<svg width="1124" height="1078" viewBox="0 0 1124 1078" fill="none" xmlns="http://www.w3.org/2000/svg">
<path fill-rule="evenodd" clip-rule="evenodd" d="M707.031 284.447C747.528 335.344 811.909 370.459 826.203 433.931C840.977 499.531 819.181 569.67 784.219 627.197C750.62 682.479 694.189 717.929 636.184 746.589C581.386 773.664 521.589 795.537 461.139 786.827C403.305 778.495 362.576 730.977 313.051 700.033C260.23 667.029 192.221 652.492 160.432 598.941C127.276 543.088 130.742 473.312 140.291 409.01C150.096 342.986 164.94 271.342 215.557 227.754C265.065 185.12 338.978 199.244 402.334 183.356C465.657 167.477 525.959 113.851 587.868 134.391C649.774 154.93 666.441 233.433 707.031 284.447Z" fill="#B4E0FF"/>
<g opacity="0.7457">
<path opacity="0.7457" fill-rule="evenodd" clip-rule="evenodd" d="M793.298 434.902C858.22 438.855 927.392 414.499 984.129 446.341C1042.77 479.25 1080.32 542.375 1099.68 606.848C1118.29 668.805 1106.88 734.463 1089.37 796.749C1072.83 855.59 1049.08 914.667 1002.17 953.768C957.281 991.177 894.715 989.656 838.582 1005.76C778.714 1022.94 722.408 1063.76 661.34 1051.56C597.645 1038.83 548.105 989.573 506.703 939.455C464.193 887.994 420.876 829.029 422.345 762.248C423.782 696.928 483.729 651.443 514.309 593.726C544.873 536.039 545.361 455.343 602.047 423.073C658.729 390.804 728.226 430.939 793.298 434.902Z" fill="url(#paint0_linear_1_3073)"/>
</g>
<defs>
<linearGradient id="paint0_linear_1_3073" x1="1076.87" y1="1038.13" x2="551.448" y2="473.382" gradientUnits="userSpaceOnUse">
<stop stop-color="#1FA2FF"/>
<stop offset="1" stop-color="#A6FFCB"/>
</linearGradient>
</defs>
</svg>
