<svg width="1554" height="910" viewBox="0 0 1554 910" fill="none" xmlns="http://www.w3.org/2000/svg" xmlns:xlink="http://www.w3.org/1999/xlink">
<g clip-path="url(#clip0_1_721)">
<rect width="1554" height="910" fill="#1FA2FF"/>
<g id="Repeat group 1_2_inner" data-figma-trr="l4u1-0f">
<g style="mix-blend-mode:overlay">
<g id="Repeat group 1_3_inner" data-figma-trr="l10u1-0f">
<path d="M18.1115 131.131C18.439 131.099 18.9866 131.273 19.6515 132.309C20.3072 133.331 20.9545 135.024 21.4779 137.555C21.9988 140.073 22.3873 143.372 22.5583 147.566L22.613 148.901L23.7721 148.236C25.2197 147.406 26.3937 147.016 27.3951 146.867C28.3932 146.719 29.2632 146.804 30.1207 146.983L30.1237 146.984C32.6092 147.492 34.136 148.186 35.2351 149.064C36.3381 149.945 37.0801 151.066 37.9148 152.58L38.7752 154.141L39.3865 152.466C40.9804 148.101 44.1826 145.914 49.4654 143.98L49.4644 143.979C51.7818 143.13 53.034 143.321 53.6724 143.791C54.3101 144.261 54.6765 145.264 54.5797 146.911C54.3886 150.164 52.4327 154.898 49.8955 158.777L49.8955 158.778C48.6101 160.752 46.7265 162.148 45.0831 163.183C44.6743 163.44 44.2837 163.673 43.922 163.888C43.5648 164.099 43.2265 164.299 42.9386 164.479C42.6554 164.657 42.3841 164.839 42.173 165.021C42.024 165.15 41.7655 165.391 41.6604 165.738L41.6281 165.881C40.8634 170.502 40.2814 174.275 39.5855 177.257C38.8853 180.258 38.0988 182.31 37.0095 183.575C35.9813 184.768 34.6176 185.332 32.491 185.174C30.3056 185.012 27.3829 184.089 23.3815 182.32L23.3767 182.318L22.9421 182.148C20.4621 181.251 13.1872 179.307 11.2875 171.902L11.1957 171.521C10.6624 169.14 10.9842 166.312 11.8087 163.345C12.6275 160.399 13.9201 157.39 15.2587 154.667C15.2874 154.619 15.4114 154.413 15.4911 154.237C15.5403 154.128 15.5992 153.978 15.6297 153.81C15.6583 153.653 15.6815 153.379 15.5418 153.099L15.536 153.087L15.5291 153.076C15.0148 152.122 14.6245 150.654 14.3933 148.853C14.1641 147.069 14.0991 145.022 14.1939 142.954C14.3795 138.904 15.1714 134.942 16.423 132.727L16.5451 132.518C17.1557 131.518 17.7248 131.168 18.1115 131.131Z" stroke="#003860" stroke-width="1.62167"/>
<path d="M24.914 172.591C24.9771 172.997 25.053 173.444 25.1562 173.838C25.2246 174.099 25.3257 174.422 25.4922 174.702C25.4666 174.816 25.4231 174.977 25.3526 175.178C25.183 175.659 24.9067 176.283 24.5753 176.887C24.2401 177.499 23.8734 178.046 23.5343 178.405C23.3638 178.585 23.2308 178.685 23.1437 178.73C23.1345 178.735 23.1258 178.737 23.1193 178.74C22.7191 178.609 22.4318 178.332 22.2931 177.797C22.1335 177.18 22.1725 176.202 22.6299 174.778L22.6289 174.777C22.7074 174.537 22.837 174.388 23.0732 174.202C23.2722 174.045 23.7626 173.729 24.1269 173.36L24.1328 173.353C24.4132 173.063 24.6638 172.693 24.8759 172.352C24.8876 172.43 24.9013 172.509 24.914 172.591Z" stroke="#003860" stroke-width="1.62167"/>
<mask id="path-3-inside-1_1_721" fill="white">
<path fill-rule="evenodd" clip-rule="evenodd" d="M24.6551 173.186C24.5536 173.398 23.1553 177.275 23.0538 176.978C22.9974 176.808 23.1891 175.549 23.6063 174.657C24.0349 173.723 24.6776 173.129 24.6551 173.2L24.6551 173.186Z"/>
</mask>
<path d="M24.6551 173.186L26.2768 173.186L23.1921 172.486L24.6551 173.186ZM23.0538 176.978L21.5148 177.489L21.5192 177.502L23.0538 176.978ZM23.6063 174.657L25.0751 175.345L25.0803 175.334L23.6063 174.657ZM24.6551 173.2L23.0334 173.2L26.2002 173.693L24.6551 173.2ZM24.6551 173.186L23.1921 172.486C23.1274 172.621 22.9803 173.016 22.8595 173.336C22.7124 173.725 22.5279 174.212 22.3442 174.682C22.1577 175.159 21.9832 175.588 21.8549 175.872C21.7835 176.03 21.7565 176.075 21.7677 176.057C21.7737 176.047 21.7952 176.013 21.8311 175.966C21.8558 175.934 21.9468 175.817 22.1018 175.699C22.1953 175.627 22.7141 175.238 23.4513 175.418C24.2616 175.616 24.5307 176.285 24.5884 176.454L23.0538 176.978L21.5192 177.502C21.5833 177.689 21.8613 178.369 22.6828 178.569C23.4313 178.752 23.9637 178.358 24.0731 178.274C24.3525 178.06 24.5079 177.793 24.5275 177.761C24.635 177.587 24.7347 177.376 24.8102 177.209C24.9758 176.842 25.1763 176.345 25.3647 175.864C25.556 175.375 25.7465 174.871 25.8932 174.483C26.0663 174.026 26.132 173.856 26.1181 173.885L24.6551 173.186ZM23.0538 176.978L24.5928 176.467C24.6482 176.633 24.6593 176.765 24.662 176.797C24.6662 176.846 24.6659 176.879 24.6658 176.886C24.6656 176.901 24.6652 176.889 24.6703 176.84C24.6801 176.748 24.7023 176.601 24.7402 176.418C24.8186 176.041 24.9388 175.636 25.0751 175.345L23.6063 174.657L22.1376 173.97C21.8567 174.57 21.6724 175.24 21.5648 175.758C21.5096 176.023 21.4684 176.278 21.4451 176.497C21.4337 176.605 21.4242 176.725 21.4227 176.845C21.4221 176.895 21.4128 177.182 21.5148 177.489L23.0538 176.978ZM23.6063 174.657L25.0803 175.334C25.224 175.02 25.4086 174.756 25.5511 174.584C25.5854 174.542 25.6149 174.508 25.6379 174.484C25.6494 174.471 25.6586 174.462 25.6654 174.455C25.6724 174.448 25.6758 174.444 25.6756 174.444C25.6754 174.445 25.6739 174.446 25.6709 174.449C25.668 174.451 25.6629 174.456 25.6558 174.462C25.6465 174.47 25.6121 174.499 25.5599 174.535C25.5345 174.553 25.4842 174.587 25.416 174.624C25.3743 174.646 25.2037 174.739 24.9611 174.786C24.8139 174.815 23.8401 174.964 23.2746 174.046C23.0475 173.677 23.0278 173.321 23.0353 173.133C23.043 172.938 23.0846 172.787 23.11 172.707L24.6551 173.2L26.2002 173.693C26.2263 173.611 26.2683 173.458 26.2761 173.261C26.2836 173.071 26.2636 172.714 26.036 172.345C25.4693 171.425 24.4932 171.573 24.3424 171.602C24.0962 171.65 23.9209 171.745 23.8732 171.771C23.7991 171.811 23.7418 171.849 23.7082 171.872C23.59 171.955 23.4945 172.043 23.4464 172.088C23.3252 172.203 23.1882 172.351 23.0486 172.52C22.7683 172.86 22.4172 173.36 22.1324 173.981L23.6063 174.657ZM24.6551 173.2L26.2768 173.2L26.2768 173.186L24.6551 173.186L23.0334 173.186L23.0334 173.2L24.6551 173.2Z" fill="#003860" mask="url(#path-3-inside-1_1_721)"/>
<path d="M25.4501 161.252C25.9032 161.223 26.4359 161.296 26.9726 161.466C28.0836 161.817 28.9761 162.504 29.2734 163.241L29.2734 163.242C29.3137 163.343 29.3323 163.558 29.1894 163.92C29.0509 164.27 28.7929 164.672 28.4404 165.062C27.7147 165.866 26.7736 166.431 26.0723 166.506L25.8428 166.306C25.1222 165.678 24.5316 164.626 24.2802 163.596C24.1561 163.087 24.1256 162.626 24.1786 162.26C24.2317 161.895 24.3572 161.68 24.495 161.562L24.496 161.562C24.6765 161.407 24.9893 161.28 25.4501 161.252Z" stroke="#003860" stroke-width="1.62167"/>
<path d="M38.5772 157.444C38.5896 157.449 38.6161 157.465 38.6543 157.501C38.8378 157.673 39.0514 158.102 39.1651 158.737L39.1583 158.741C39.1625 158.765 39.1659 158.789 39.17 158.812C39.0397 158.68 38.912 158.559 38.794 158.451C38.4994 158.18 38.2987 158.005 38.1553 157.835C38.1255 157.8 38.105 157.771 38.0899 157.75C38.1203 157.715 38.1704 157.662 38.2559 157.594L38.2569 157.595C38.453 157.442 38.5488 157.439 38.5567 157.439C38.5617 157.439 38.5669 157.439 38.5772 157.444Z" stroke="#003860" stroke-width="1.62167"/>
<path d="M19.834 151.599C19.8682 151.596 19.8876 151.599 19.9248 151.629C19.9793 151.673 20.0915 151.797 20.2061 152.104C20.248 152.218 20.2709 152.304 20.2852 152.367C20.1216 152.395 19.9116 152.406 19.584 152.428C19.3466 152.444 19.0604 152.468 18.7647 152.526C18.842 152.428 18.9261 152.322 19.0196 152.208L19.1543 152.045C19.2756 151.919 19.395 151.816 19.5069 151.741C19.6675 151.634 19.7783 151.603 19.834 151.599Z" stroke="#003860" stroke-width="1.62167"/>
<path d="M18.2995 132.991C18.4943 133.35 18.7228 133.904 18.9675 134.617C19.4532 136.032 19.9612 137.953 20.3671 139.895C20.7735 141.841 21.0702 143.771 21.1465 145.211C21.1851 145.94 21.1637 146.49 21.0948 146.841C21.083 146.901 21.0685 146.949 21.0567 146.988C20.953 147.016 20.8513 147.051 20.7608 147.084C20.5798 147.15 20.3711 147.239 20.1466 147.343C19.6965 147.551 19.1535 147.834 18.5919 148.166C18.0249 148.5 17.4133 148.899 16.8488 149.332C16.9091 148.889 17.0286 148.549 17.1681 148.284C17.4503 147.747 17.8685 147.412 18.3223 147.118C18.5078 146.998 18.8261 146.808 19.0176 146.677C19.2255 146.533 19.5234 146.308 19.6983 145.967C19.9084 145.556 19.877 145.122 19.6992 144.728C19.5407 144.377 19.258 144.036 18.9072 143.688L18.9072 143.687C17.024 141.825 16.4564 139.085 16.6814 136.717C16.7933 135.54 17.0972 134.511 17.486 133.788C17.762 133.274 18.0281 133.006 18.2311 132.877C18.2513 132.911 18.2758 132.947 18.2995 132.991Z" stroke="#003860" stroke-width="1.62167"/>
<path d="M51.536 146.146C51.6737 146.474 51.7097 146.994 51.5253 147.703C51.3132 148.518 50.8417 149.446 50.1553 150.301C48.7696 152.027 46.6741 153.272 44.3927 152.915L44.3937 152.915C43.9508 152.845 43.5021 152.821 43.1192 152.95C42.9089 153.021 42.7034 153.144 42.5411 153.338C42.3803 153.53 42.3018 153.746 42.2677 153.94C42.2064 154.289 42.276 154.656 42.3371 154.923C42.397 155.185 42.5044 155.564 42.5744 155.844C42.7349 156.487 42.8487 157.15 42.7346 157.823C42.6985 158.037 42.6346 158.257 42.5393 158.484C42.3913 157.693 42.1908 156.877 41.9826 156.139C41.7783 155.414 41.5607 154.742 41.3673 154.208C41.1973 153.738 41.0156 153.294 40.8595 153.041C40.8585 153.012 40.8635 152.902 40.9737 152.663C41.1395 152.304 41.4672 151.834 41.9561 151.295C42.8052 150.36 44.0438 149.322 45.4365 148.434L46.0429 148.063C47.3381 147.301 48.7889 146.72 49.9521 146.404C50.5369 146.245 51.0175 146.162 51.3515 146.146C51.4273 146.142 51.4883 146.144 51.536 146.146Z" stroke="#003860" stroke-width="1.62167"/>
<mask id="path-10-inside-2_1_721" fill="white">
<path fill-rule="evenodd" clip-rule="evenodd" d="M33.6374 148.807C33.7277 148.976 32.8476 149.415 32.3737 150.094C31.9449 150.688 31.6403 151.297 31.5951 151.41C30.8729 149.641 33.1183 147.859 33.6374 148.807ZM30.162 147.604C30.2974 147.731 29.5301 148.453 29.2255 149.273C28.9434 149.995 28.7854 150.688 28.7629 150.816C27.6909 149.344 29.4849 146.868 30.162 147.618L30.162 147.604ZM26.743 147.052C26.8332 147.137 26.3368 147.604 26.145 148.127C25.9532 148.594 25.8516 149.033 25.8403 149.118C25.1407 148.169 26.3029 146.585 26.743 147.052ZM30.4893 151.466C30.5796 151.551 30.0831 152.032 29.8913 152.542C29.7221 152.995 29.598 153.461 29.5867 153.532C28.8871 152.584 30.0492 151 30.4893 151.466ZM33.4344 151.948C33.5247 152.047 33.0282 152.499 32.8364 153.023C32.6446 153.49 32.543 153.943 32.5318 154.028C31.8321 153.065 32.9943 151.481 33.4344 151.962L33.4344 151.948ZM27.1719 150.674C27.2734 150.716 26.9349 151.367 26.8672 151.933C26.8221 152.457 26.8334 152.924 26.8447 153.009C25.942 152.4 26.6415 150.419 27.1719 150.688L27.1719 150.674ZM31.2793 154.678C31.3583 154.749 30.8731 155.23 30.6587 155.74C30.4895 156.206 30.3879 156.659 30.3541 156.73C29.6657 155.782 30.8279 154.197 31.268 154.678L31.2793 154.678ZM28.5824 153.73C28.6727 153.773 28.3004 154.395 28.1988 154.961C28.1198 155.471 28.1086 155.937 28.0973 156.008C27.251 155.301 28.0634 153.405 28.5824 153.73ZM36.2666 150.406C36.3682 150.575 35.4767 151.028 35.0141 151.693C34.5854 152.287 34.292 152.91 34.2243 153.023C33.4908 151.24 35.7701 149.472 36.2666 150.406Z"/>
</mask>
<path d="M33.6374 148.807L35.0693 148.045L35.0646 148.037L35.0598 148.028L33.6374 148.807ZM32.3737 150.094L33.6888 151.043L33.6963 151.033L33.7036 151.022L32.3737 150.094ZM31.5951 151.41L30.0938 152.023L31.6131 155.744L33.1015 152.011L31.5951 151.41ZM30.162 147.604L31.2729 146.422L28.5402 143.852L28.5403 147.604L30.162 147.604ZM29.2255 149.273L30.7358 149.864L30.7409 149.851L30.7458 149.838L29.2255 149.273ZM28.7629 150.816L27.4522 151.77L29.6951 154.849L30.3597 151.099L28.7629 150.816ZM30.162 147.618L28.9583 148.705L31.7838 151.834L31.7836 147.618L30.162 147.618ZM26.743 147.052L25.5629 148.164L25.5964 148.2L25.632 148.233L26.743 147.052ZM26.145 148.127L27.645 148.743L27.6569 148.714L27.6676 148.685L26.145 148.127ZM25.8403 149.118L24.5355 150.08L26.9191 153.31L27.4479 149.331L25.8403 149.118ZM30.4893 151.466L29.3092 152.579L29.3428 152.614L29.3784 152.648L30.4893 151.466ZM29.8913 152.542L28.3737 151.97L28.3723 151.974L29.8913 152.542ZM29.5867 153.532L28.2819 154.495L30.5789 157.608L31.1881 153.788L29.5867 153.532ZM33.4344 151.948L34.6329 150.855L31.8126 147.761L31.8127 151.948L33.4344 151.948ZM32.8364 153.023L34.3364 153.639L34.3483 153.61L34.3591 153.581L32.8364 153.023ZM32.5318 154.028L31.2202 154.981L33.6051 158.261L34.1393 154.241L32.5318 154.028ZM33.4344 151.962L32.2379 153.056L35.0562 156.137L35.0561 151.962L33.4344 151.962ZM27.1719 150.674L27.7972 149.178L25.5501 148.238L25.5502 150.674L27.1719 150.674ZM26.8672 151.933L25.257 151.741L25.2539 151.767L25.2516 151.794L26.8672 151.933ZM26.8447 153.009L25.9384 154.353L28.9272 156.368L28.4522 152.795L26.8447 153.009ZM27.1719 150.688L26.4387 152.135L28.7936 153.328L28.7935 150.688L27.1719 150.688ZM31.2793 154.678L32.3612 153.47L31.8993 153.057L31.2792 153.057L31.2793 154.678ZM30.6587 155.74L29.164 155.11L29.1481 155.148L29.1341 155.187L30.6587 155.74ZM30.3541 156.73L29.0419 157.683L30.6417 159.886L31.8169 157.43L30.3541 156.73ZM31.268 154.678L30.0715 155.773L30.5537 156.3L31.268 156.3L31.268 154.678ZM28.5824 153.73L27.721 155.104L27.8039 155.156L27.8924 155.198L28.5824 153.73ZM28.1988 154.961L26.6026 154.675L26.5992 154.694L26.5963 154.713L28.1988 154.961ZM28.0973 156.008L27.0572 157.252L29.2489 159.085L29.6987 156.264L28.0973 156.008ZM36.2666 150.406L34.8347 151.167L34.8539 151.203L34.8749 151.238L36.2666 150.406ZM35.0141 151.693L36.3292 152.642L36.3374 152.631L36.3454 152.619L35.0141 151.693ZM34.2243 153.023L32.7246 153.64L33.9555 156.632L35.6161 153.856L34.2243 153.023ZM33.6374 148.807L32.2056 149.568C32.0364 149.25 31.9991 148.918 32.0344 148.638C32.0666 148.383 32.1546 148.197 32.2093 148.098C32.2665 147.995 32.3224 147.924 32.3504 147.89C32.3807 147.854 32.4035 147.832 32.4101 147.825C32.4206 147.815 32.4136 147.823 32.3682 147.86C32.3238 147.897 32.2753 147.936 32.2001 147.996C31.9452 148.201 31.4305 148.612 31.0438 149.166L32.3737 150.094L33.7036 151.022C33.7908 150.897 33.9531 150.749 34.2342 150.522C34.3288 150.446 34.53 150.289 34.6792 150.143C34.7485 150.075 34.9145 149.908 35.0476 149.668C35.1751 149.437 35.4586 148.778 35.0693 148.045L33.6374 148.807ZM32.3737 150.094L31.0586 149.145C30.566 149.828 30.1913 150.552 30.0888 150.809L31.5951 151.41L33.1015 152.011C33.0842 152.054 33.0837 152.049 33.1226 151.972C33.153 151.912 33.1974 151.828 33.2537 151.728C33.3676 151.526 33.5186 151.279 33.6888 151.043L32.3737 150.094ZM31.5951 151.41L33.0965 150.797C33.0622 150.713 33.0509 150.489 33.3104 150.223C33.4357 150.095 33.4789 150.119 33.355 150.147C33.2815 150.163 33.0857 150.192 32.8336 150.104C32.5498 150.004 32.3341 149.803 32.215 149.585L33.6374 148.807L35.0598 148.028C34.811 147.573 34.4116 147.22 33.9084 147.044C33.437 146.878 32.9863 146.905 32.6406 146.983C31.9722 147.134 31.4018 147.536 30.9911 147.956C30.1788 148.787 29.4059 150.338 30.0938 152.023L31.5951 151.41ZM30.162 147.604L29.051 148.785C28.7546 148.506 28.6133 148.161 28.5711 147.859C28.5334 147.589 28.576 147.378 28.6025 147.275C28.6311 147.163 28.6659 147.084 28.6821 147.05C28.7 147.011 28.7139 146.987 28.7165 146.983C28.7198 146.977 28.7106 146.993 28.6735 147.046C28.6372 147.099 28.5971 147.154 28.538 147.237C28.3346 147.523 27.9422 148.07 27.7052 148.709L29.2255 149.273L30.7458 149.838C30.8134 149.656 30.957 149.432 31.1795 149.12C31.2583 149.009 31.4102 148.801 31.5148 148.623C31.5617 148.543 31.6769 148.342 31.7437 148.082C31.7993 147.866 31.9503 147.06 31.2729 146.422L30.162 147.604ZM29.2255 149.273L27.7151 148.683C27.3916 149.51 27.206 150.307 27.1661 150.532L28.7629 150.816L30.3597 151.099C30.3585 151.105 30.3891 150.955 30.4594 150.701C30.5267 150.459 30.62 150.16 30.7358 149.864L29.2255 149.273ZM28.7629 150.816L30.0736 149.861C30.0694 149.855 30.0647 149.847 30.0599 149.828C30.0543 149.806 30.0478 149.764 30.0522 149.696C30.0618 149.55 30.1185 149.359 30.2198 149.179C30.3332 148.978 30.4148 148.94 30.3483 148.981C30.3114 149.003 30.1345 149.104 29.8463 149.101C29.5003 149.097 29.1738 148.943 28.9583 148.705L30.162 147.618L31.3656 146.531C30.9809 146.105 30.4502 145.864 29.8807 145.858C29.369 145.853 28.9493 146.036 28.6657 146.208C28.1059 146.547 27.679 147.081 27.3933 147.588C26.8538 148.547 26.3733 150.289 27.4522 151.77L28.7629 150.816ZM30.162 147.618L31.7836 147.618L31.7836 147.604L30.162 147.604L28.5403 147.604L28.5403 147.618L30.162 147.618ZM26.743 147.052L25.632 148.233C25.3428 147.961 25.1979 147.624 25.1508 147.321C25.1085 147.049 25.1477 146.831 25.175 146.719C25.2259 146.509 25.309 146.373 25.3098 146.372C25.3216 146.351 25.3226 146.352 25.2272 146.486C25.1028 146.662 24.8033 147.075 24.6223 147.569L26.145 148.127L27.6676 148.685C27.6671 148.687 27.6782 148.658 27.7181 148.592C27.7575 148.527 27.8052 148.458 27.8723 148.364C27.9137 148.305 28.0339 148.14 28.1194 147.992C28.157 147.927 28.2656 147.737 28.3271 147.483C28.3812 147.26 28.5069 146.485 27.8539 145.87L26.743 147.052ZM26.145 148.127L24.6449 147.511C24.4142 148.072 24.2668 148.648 24.2328 148.904L25.8403 149.118L27.4479 149.331C27.4422 149.374 27.4369 149.398 27.4386 149.39C27.4389 149.388 27.4408 149.379 27.4448 149.362C27.4528 149.328 27.4661 149.275 27.4848 149.209C27.5229 149.075 27.5772 148.908 27.645 148.743L26.145 148.127ZM25.8403 149.118L27.1451 148.155C27.2412 148.285 27.2443 148.407 27.2427 148.432C27.2421 148.442 27.2457 148.406 27.2758 148.353C27.3171 148.279 27.3102 148.338 27.1635 148.428C27.0872 148.475 26.8768 148.587 26.5603 148.589C26.188 148.592 25.8208 148.438 25.5629 148.164L26.743 147.052L27.9231 145.94C27.5551 145.549 27.0554 145.342 26.538 145.346C26.0764 145.349 25.7085 145.516 25.4723 145.66C25.0058 145.945 24.6695 146.372 24.4527 146.756C24.0516 147.465 23.6348 148.86 24.5355 150.08L25.8403 149.118ZM30.4893 151.466L29.3784 152.648C29.085 152.372 28.9425 152.032 28.8967 151.733C28.8554 151.464 28.8937 151.25 28.92 151.14C28.9691 150.934 29.0494 150.8 29.0502 150.799C29.0623 150.777 29.0618 150.781 28.9696 150.912C28.8503 151.082 28.5537 151.492 28.3737 151.97L29.8913 152.542L31.4089 153.113C31.4081 153.115 31.42 153.085 31.4623 153.016C31.504 152.948 31.5536 152.876 31.6226 152.778C31.6672 152.714 31.7858 152.55 31.8717 152.399C31.9094 152.332 32.0151 152.143 32.0749 151.892C32.1252 151.681 32.2564 150.902 31.6003 150.285L30.4893 151.466ZM29.8913 152.542L28.3723 151.974C28.1897 152.462 28.0218 153.047 27.9852 153.277L29.5867 153.532L31.1881 153.788C31.1795 153.842 31.1706 153.877 31.1746 153.859C31.1756 153.855 31.1787 153.843 31.1844 153.821C31.1955 153.778 31.2128 153.715 31.2355 153.638C31.2814 153.482 31.3427 153.291 31.4103 153.11L29.8913 152.542ZM29.5867 153.532L30.8915 152.569C30.9875 152.699 30.9907 152.822 30.9891 152.847C30.9884 152.857 30.9921 152.82 31.0221 152.767C31.0635 152.694 31.0565 152.753 30.9099 152.843C30.8335 152.889 30.6231 153.002 30.3067 153.004C29.9343 153.006 29.5672 152.852 29.3092 152.579L30.4893 151.466L31.6694 150.354C31.3014 149.964 30.8017 149.757 30.2843 149.761C29.8228 149.764 29.4549 149.931 29.2186 150.075C28.7521 150.36 28.4158 150.787 28.1991 151.17C27.798 151.879 27.3811 153.274 28.2819 154.495L29.5867 153.532ZM33.4344 151.948L32.2359 153.04C31.9968 152.778 31.8786 152.473 31.8395 152.201C31.8035 151.95 31.8363 151.748 31.8628 151.634C31.9117 151.424 31.9934 151.287 31.9976 151.28C32.014 151.251 32.0212 151.243 32.0016 151.271C31.9833 151.297 31.9616 151.328 31.9228 151.382C31.8543 151.477 31.7465 151.628 31.6409 151.8C31.5354 151.972 31.4111 152.199 31.3137 152.465L32.8364 153.023L34.3591 153.581C34.3576 153.585 34.3673 153.559 34.406 153.496C34.4446 153.433 34.4913 153.366 34.5596 153.271C34.6014 153.212 34.7252 153.044 34.8144 152.888C34.8555 152.816 34.9627 152.624 35.0222 152.368C35.0791 152.122 35.1688 151.443 34.6329 150.855L33.4344 151.948ZM32.8364 153.023L31.3364 152.407C31.1009 152.98 30.9569 153.568 30.9242 153.814L32.5318 154.028L34.1393 154.241C34.134 154.281 34.1292 154.303 34.1312 154.294C34.1317 154.291 34.1339 154.28 34.138 154.262C34.1463 154.226 34.1597 154.171 34.1785 154.104C34.2168 153.967 34.2705 153.8 34.3364 153.639L32.8364 153.023ZM32.5318 154.028L33.8433 153.074C33.9331 153.197 33.9356 153.312 33.9342 153.334C33.9338 153.341 33.9382 153.303 33.9672 153.252C34.0083 153.179 33.9983 153.244 33.8437 153.337C33.7625 153.386 33.545 153.498 33.2221 153.495C32.8436 153.49 32.4842 153.326 32.2379 153.056L33.4344 151.962L34.6309 150.867C34.2746 150.478 33.7826 150.257 33.2591 150.251C32.7911 150.246 32.4161 150.411 32.1749 150.556C31.7005 150.84 31.3612 151.271 31.1442 151.655C30.7389 152.371 30.3325 153.76 31.2202 154.981L32.5318 154.028ZM33.4344 151.962L35.0561 151.962L35.0561 151.948L33.4344 151.948L31.8127 151.948L31.8127 151.962L33.4344 151.962ZM27.1719 150.674L26.5465 152.17C26.0887 151.979 25.8221 151.625 25.694 151.324C25.5822 151.062 25.5706 150.837 25.5692 150.74C25.5676 150.629 25.5791 150.545 25.585 150.507C25.5917 150.464 25.5987 150.435 25.6012 150.424C25.6033 150.416 25.5971 150.438 25.5461 150.59C25.4752 150.8 25.3141 151.263 25.257 151.741L26.8672 151.933L28.4774 152.126C28.488 152.037 28.5301 151.892 28.6199 151.625C28.6493 151.538 28.713 151.354 28.752 151.194C28.7683 151.127 28.8156 150.931 28.8122 150.694C28.8107 150.591 28.7937 149.594 27.7972 149.178L27.1719 150.674ZM26.8672 151.933L25.2516 151.794C25.2028 152.36 25.2028 152.964 25.2372 153.222L26.8447 153.009L28.4522 152.795C28.4588 152.844 28.4601 152.875 28.4594 152.863C28.4593 152.861 28.4587 152.85 28.458 152.829C28.4568 152.788 28.4559 152.726 28.4564 152.647C28.4576 152.489 28.4646 152.285 28.4829 152.073L26.8672 151.933ZM26.8447 153.009L27.751 151.664C27.9754 151.815 28.026 152.011 28.031 152.036C28.0336 152.049 28.0247 151.995 28.0482 151.896C28.0749 151.784 28.1015 151.784 28.0359 151.865C28.0055 151.903 27.8756 152.06 27.6153 152.173C27.4744 152.234 27.2872 152.286 27.0657 152.285C26.839 152.284 26.6243 152.229 26.4387 152.135L27.1719 150.688L27.905 149.242C27.3535 148.962 26.7739 149.002 26.3217 149.199C25.9252 149.371 25.6607 149.643 25.5042 149.838C25.1865 150.235 24.9952 150.717 24.8935 151.143C24.7888 151.582 24.741 152.12 24.8498 152.667C24.9609 153.226 25.2627 153.898 25.9384 154.353L26.8447 153.009ZM27.1719 150.688L28.7935 150.688L28.7935 150.674L27.1719 150.674L25.5502 150.674L25.5502 150.688L27.1719 150.688ZM31.2793 154.678L30.1974 155.886C29.8427 155.569 29.7042 155.168 29.6736 154.853C29.6467 154.576 29.7 154.362 29.7278 154.268C29.7592 154.16 29.7952 154.083 29.8128 154.047C29.8324 154.007 29.8484 153.979 29.8545 153.969C29.8605 153.959 29.8529 153.971 29.7611 154.099C29.6353 154.275 29.3523 154.663 29.164 155.11L30.6587 155.74L32.1534 156.369C32.1795 156.307 32.2463 156.2 32.3969 155.989C32.4433 155.925 32.5557 155.772 32.6371 155.636C32.6714 155.578 32.7739 155.406 32.8404 155.179C32.8744 155.063 33.1297 154.159 32.3612 153.47L31.2793 154.678ZM30.6587 155.74L29.1341 155.187C29.0293 155.476 28.9491 155.75 28.8946 155.944C28.8585 156.072 28.8536 156.092 28.832 156.169C28.8246 156.194 28.8226 156.201 28.8238 156.197C28.8245 156.195 28.8288 156.181 28.8361 156.161C28.8413 156.147 28.8598 156.096 28.8912 156.03L30.3541 156.73L31.8169 157.43C31.8756 157.307 31.9103 157.194 31.9161 157.175C31.93 157.131 31.9427 157.087 31.9523 157.053C31.9645 157.01 32.0019 156.875 32.0166 156.823C32.0637 156.656 32.1188 156.47 32.1833 156.292L30.6587 155.74ZM30.3541 156.73L31.6663 155.777C31.7626 155.91 31.7639 156.032 31.7624 156.054C31.7618 156.062 31.7663 156.025 31.7962 155.972C31.8381 155.899 31.8286 155.963 31.675 156.054C31.5943 156.103 31.3774 156.215 31.055 156.211C30.6771 156.207 30.3178 156.042 30.0715 155.773L31.268 154.678L32.4645 153.584C32.1081 153.194 31.6163 152.974 31.0932 152.968C30.6258 152.962 30.2512 153.127 30.0104 153.271C29.5367 153.554 29.1972 153.983 28.9796 154.364C28.5769 155.069 28.1542 156.46 29.0419 157.683L30.3541 156.73ZM31.268 154.678L31.268 156.3L31.2793 156.3L31.2793 154.678L31.2792 153.057L31.268 153.057L31.268 154.678ZM28.5824 153.73L27.8924 155.198C27.3944 154.964 27.1463 154.547 27.0469 154.23C26.961 153.957 26.9725 153.732 26.9793 153.645C26.9875 153.541 27.0049 153.463 27.013 153.43C27.0221 153.392 27.0303 153.367 27.0327 153.359C27.0367 153.347 27.0354 153.353 27.0196 153.392C27.0045 153.431 26.9873 153.472 26.961 153.537C26.8738 153.751 26.688 154.199 26.6026 154.675L28.1988 154.961L29.795 155.248C29.8112 155.157 29.8623 155.012 29.9641 154.762C29.9974 154.68 30.0698 154.508 30.117 154.363C30.1363 154.303 30.1952 154.122 30.2127 153.899C30.2213 153.79 30.2316 153.547 30.1413 153.259C30.0375 152.929 29.7818 152.502 29.2724 152.263L28.5824 153.73ZM28.1988 154.961L26.5963 154.713C26.5477 155.026 26.5212 155.317 26.5055 155.529C26.4976 155.635 26.492 155.726 26.4883 155.785C26.4863 155.817 26.4852 155.833 26.4845 155.842C26.4824 155.871 26.4851 155.82 26.4959 155.753L28.0973 156.008L29.6987 156.264C29.7123 156.178 29.7178 156.098 29.7188 156.085C29.7212 156.053 29.7234 156.018 29.7253 155.988C29.7293 155.924 29.7337 155.853 29.7399 155.77C29.7523 155.603 29.771 155.406 29.8013 155.21L28.1988 154.961ZM28.0973 156.008L29.1373 154.764C29.3206 154.917 29.3498 155.088 29.3517 155.103C29.3523 155.108 29.3488 155.052 29.3764 154.963C29.4091 154.858 29.4304 154.876 29.3442 154.967C29.3023 155.011 29.1483 155.163 28.8642 155.253C28.7114 155.301 28.519 155.33 28.3026 155.306C28.083 155.282 27.885 155.207 27.721 155.104L28.5824 153.73L29.4438 152.356C28.9435 152.043 28.3759 152.006 27.8915 152.159C27.4669 152.292 27.1709 152.545 26.9931 152.732C26.635 153.109 26.4088 153.584 26.2793 154C26.1447 154.433 26.0643 154.964 26.1345 155.513C26.2058 156.072 26.4508 156.745 27.0572 157.252L28.0973 156.008ZM36.2666 150.406L34.8749 151.238C34.6921 150.932 34.6338 150.601 34.6582 150.306C34.6805 150.039 34.7666 149.841 34.822 149.734C34.8796 149.624 34.9374 149.548 34.9667 149.511C34.9985 149.472 35.0229 149.447 35.0306 149.44C35.0433 149.427 35.0383 149.433 34.9942 149.47C34.9519 149.506 34.9034 149.545 34.8298 149.605C34.5829 149.805 34.0645 150.218 33.6829 150.767L35.0141 151.693L36.3454 152.619C36.4264 152.503 36.585 152.357 36.874 152.123C36.9709 152.044 37.1743 151.883 37.327 151.73C37.3968 151.66 37.5675 151.485 37.6998 151.23C37.8335 150.973 38.0883 150.292 37.6583 149.573L36.2666 150.406ZM35.0141 151.693L33.699 150.744C33.4335 151.112 33.2184 151.477 33.0657 151.752C32.9885 151.891 32.925 152.011 32.8791 152.099C32.815 152.222 32.8182 152.215 32.8326 152.191L34.2243 153.023L35.6161 153.856C35.6643 153.775 35.7296 153.647 35.7529 153.603C35.7944 153.524 35.8437 153.43 35.9019 153.325C36.02 153.112 36.166 152.868 36.3292 152.642L35.0141 151.693ZM34.2243 153.023L35.724 152.406C35.6893 152.322 35.6758 152.101 35.9394 151.834C36.0668 151.704 36.1147 151.724 35.9972 151.751C35.9283 151.766 35.7318 151.798 35.4758 151.709C35.1843 151.608 34.9585 151.4 34.8347 151.167L36.2666 150.406L37.6984 149.644C37.4505 149.178 37.0449 148.82 36.5367 148.644C36.0638 148.481 35.6135 148.511 35.2726 148.589C34.6109 148.741 34.0418 149.138 33.629 149.557C32.8122 150.386 32.0259 151.942 32.7246 153.64L34.2243 153.023Z" fill="#003860" mask="url(#path-10-inside-2_1_721)"/>
<mask id="path-12-inside-3_1_721" fill="white">
<path fill-rule="evenodd" clip-rule="evenodd" d="M15.5833 162.375C16.4404 162.772 17.2861 160.38 16.1245 159.956C15.0532 159.56 14.6247 161.923 15.5833 162.375Z"/>
</mask>
<path d="M15.5833 162.375L14.8907 163.842L14.9029 163.847L15.5833 162.375ZM16.1245 159.956L15.5621 161.477L15.568 161.479L16.1245 159.956ZM15.5833 162.375L14.9029 163.847C15.9472 164.33 16.8601 163.833 17.3182 163.392C17.7596 162.966 18.0279 162.413 18.1691 161.923C18.3121 161.427 18.3822 160.798 18.2221 160.169C18.0493 159.49 17.5789 158.761 16.6811 158.433L16.1245 159.956L15.568 161.479C15.4404 161.432 15.3137 161.345 15.2164 161.227C15.1257 161.116 15.0911 161.016 15.079 160.969C15.0602 160.895 15.0831 160.919 15.0527 161.024C15.0409 161.065 15.027 161.095 15.0187 161.11C15.0084 161.129 15.0185 161.104 15.0674 161.057C15.1129 161.013 15.2431 160.901 15.4701 160.839C15.7272 160.768 16.0143 160.788 16.2637 160.903L15.5833 162.375ZM16.1245 159.956L16.687 158.435C15.761 158.092 14.8853 158.387 14.3163 158.947C13.8329 159.422 13.6028 160.034 13.5034 160.525C13.3998 161.036 13.394 161.625 13.5509 162.187C13.7056 162.741 14.0828 163.46 14.8907 163.842L15.5833 162.375L16.2759 160.909C16.4321 160.983 16.5376 161.087 16.5989 161.172C16.6561 161.25 16.6725 161.307 16.6747 161.315C16.6759 161.319 16.6644 161.257 16.682 161.17C16.6893 161.134 16.6968 161.119 16.6936 161.126C16.692 161.129 16.6656 161.185 16.5901 161.26C16.5104 161.338 16.3621 161.448 16.1409 161.502C15.9097 161.559 15.7028 161.529 15.5621 161.477L16.1245 159.956Z" fill="#003860" mask="url(#path-12-inside-3_1_721)"/>
<mask id="path-14-inside-4_1_721" fill="white">
<path fill-rule="evenodd" clip-rule="evenodd" d="M36.673 170.045C37.5301 170.455 38.3758 168.05 37.2143 167.625C36.1429 167.229 35.7144 169.592 36.673 170.045Z"/>
</mask>
<path d="M36.673 170.045L37.3733 168.582L37.3656 168.578L36.673 170.045ZM37.2143 167.625L36.6518 169.146L36.6577 169.148L37.2143 167.625ZM36.673 170.045L35.9728 171.507C37.017 172.007 37.9405 171.516 38.4057 171.069C38.8501 170.643 39.1184 170.086 39.2592 169.596C39.4019 169.1 39.4716 168.47 39.3122 167.842C39.1405 167.164 38.6716 166.431 37.7708 166.102L37.2143 167.625L36.6577 169.148C36.5286 169.101 36.4014 169.013 36.3044 168.894C36.2141 168.784 36.1801 168.685 36.1683 168.638C36.1502 168.567 36.1727 168.593 36.1421 168.7C36.1301 168.741 36.1162 168.772 36.108 168.787C36.0979 168.805 36.1087 168.778 36.1593 168.73C36.2066 168.684 36.3408 168.57 36.5736 168.509C36.8374 168.439 37.1268 168.464 37.3732 168.582L36.673 170.045ZM37.2143 167.625L37.7767 166.104C36.8508 165.762 35.975 166.056 35.406 166.616C34.9226 167.091 34.6925 167.704 34.5931 168.194C34.4895 168.705 34.4837 169.294 34.6406 169.856C34.7953 170.41 35.1725 171.129 35.9804 171.511L36.673 170.045L37.3656 168.578C37.5219 168.652 37.6273 168.756 37.6887 168.841C37.7458 168.919 37.7623 168.976 37.7645 168.984C37.7656 168.988 37.7541 168.926 37.7717 168.839C37.779 168.803 37.7865 168.788 37.7833 168.795C37.7817 168.799 37.7553 168.855 37.6798 168.929C37.6002 169.007 37.4518 169.118 37.2307 169.172C36.9995 169.228 36.7925 169.198 36.6518 169.146L37.2143 167.625Z" fill="#003860" mask="url(#path-14-inside-4_1_721)"/>
<path d="M95.5497 0.814758C95.8772 0.783599 96.4248 0.957531 97.0898 1.99354C97.7454 3.01505 98.3927 4.70801 98.9161 7.23874C99.437 9.75744 99.8255 13.0566 99.9965 17.2505L100.051 18.5855L101.21 17.9205C102.658 17.0906 103.832 16.7001 104.833 16.5515C105.831 16.4034 106.701 16.4887 107.559 16.6669L107.562 16.6678C110.047 17.176 111.574 17.8698 112.673 18.7482C113.776 19.6297 114.518 20.7498 115.353 22.2639L116.213 23.8255L116.825 22.1507C118.419 17.7854 121.621 15.598 126.904 13.6638L126.903 13.6629C129.22 12.8145 130.472 13.0053 131.111 13.4756C131.748 13.9455 132.115 14.9481 132.018 16.5957C131.827 19.8479 129.871 24.5825 127.334 28.4617L127.334 28.4627C126.048 30.4364 124.165 31.8321 122.521 32.8668C122.113 33.1242 121.722 33.3574 121.36 33.5718C121.003 33.7835 120.665 33.9831 120.377 34.1635C120.094 34.3412 119.822 34.5231 119.611 34.7055C119.462 34.8343 119.204 35.0757 119.099 35.4223L119.066 35.5649C118.302 40.1863 117.72 43.959 117.024 46.9417C116.324 49.9425 115.537 51.9944 114.448 53.259C113.419 54.4527 112.056 55.016 109.929 54.8584C107.744 54.6963 104.821 53.7734 100.82 52.0045L100.815 52.0025L100.38 51.8326C97.9003 50.9356 90.6254 48.9911 88.7257 41.5859L88.6339 41.2051C88.1006 38.8244 88.4224 35.996 89.247 33.0293C90.0657 30.0834 91.3584 27.0739 92.6969 24.3508C92.7257 24.3032 92.8496 24.0975 92.9293 23.9211C92.9786 23.812 93.0374 23.6622 93.068 23.4943C93.0965 23.3374 93.1197 23.0636 92.98 22.7834L92.9742 22.7717L92.9674 22.76C92.453 21.8063 92.0627 20.338 91.8315 18.5372C91.6024 16.7528 91.5373 14.7057 91.6321 12.6378C91.8177 8.58808 92.6097 4.62581 93.8613 2.41136L93.9833 2.20238C94.594 1.20233 95.163 0.851779 95.5497 0.814758Z" stroke="#003860" stroke-width="1.62167"/>
<path d="M102.341 42.2748C102.404 42.6812 102.48 43.1282 102.583 43.5218C102.652 43.7827 102.753 44.1058 102.919 44.3861C102.894 44.5003 102.85 44.6611 102.78 44.8617C102.61 45.3434 102.334 45.967 102.002 46.5716C101.667 47.1829 101.3 47.7305 100.961 48.0891C100.791 48.2695 100.658 48.3689 100.571 48.4143C100.562 48.4191 100.553 48.4211 100.546 48.4241C100.146 48.293 99.8588 48.0163 99.7201 47.4807C99.5605 46.8645 99.5995 45.886 100.057 44.4622L100.056 44.4612C100.134 44.2208 100.264 44.0717 100.5 43.886C100.699 43.7296 101.19 43.4129 101.554 43.0443L101.56 43.0374C101.84 42.7476 102.091 42.377 102.303 42.0365C102.315 42.1138 102.328 42.1931 102.341 42.2748Z" stroke="#003860" stroke-width="1.62167"/>
<mask id="path-18-inside-5_1_721" fill="white">
<path fill-rule="evenodd" clip-rule="evenodd" d="M102.093 42.8703C101.992 43.0825 100.594 46.9594 100.492 46.6623C100.436 46.4925 100.627 45.2332 101.045 44.3418C101.473 43.408 102.116 42.8137 102.093 42.8845L102.093 42.8703Z"/>
</mask>
<path d="M102.093 42.8703L103.715 42.8704L100.63 42.1706L102.093 42.8703ZM100.492 46.6623L98.953 47.1733L98.9575 47.1864L100.492 46.6623ZM101.045 44.3418L102.513 45.0294L102.518 45.0182L101.045 44.3418ZM102.093 42.8845L100.472 42.8844L103.638 43.3771L102.093 42.8845ZM102.093 42.8703L100.63 42.1706C100.566 42.3058 100.419 42.7009 100.298 43.0205C100.151 43.4097 99.9661 43.8969 99.7824 44.3665C99.596 44.8433 99.4215 45.273 99.2932 45.5567C99.2217 45.7148 99.1947 45.7595 99.206 45.7414C99.2119 45.7317 99.2334 45.6973 99.2694 45.6507C99.294 45.6188 99.3851 45.5017 99.54 45.3832C99.6335 45.3116 100.152 44.9228 100.89 45.1027C101.7 45.3004 101.969 45.9693 102.027 46.1381L100.492 46.6623L98.9575 47.1864C99.0215 47.3738 99.2995 48.0531 100.121 48.2536C100.87 48.4362 101.402 48.0425 101.511 47.9588C101.791 47.7449 101.946 47.477 101.966 47.4453C102.073 47.2712 102.173 47.0602 102.248 46.8932C102.414 46.527 102.614 46.0299 102.803 45.5481C102.994 45.0591 103.185 44.5559 103.331 44.1677C103.504 43.7101 103.57 43.5409 103.556 43.57L102.093 42.8703ZM100.492 46.6623L102.031 46.1512C102.086 46.318 102.098 46.4495 102.1 46.4811C102.104 46.5308 102.104 46.5636 102.104 46.5709C102.104 46.5859 102.103 46.5731 102.109 46.5249C102.118 46.4324 102.141 46.2851 102.178 46.1028C102.257 45.7257 102.377 45.3206 102.513 45.0294L101.045 44.3418L99.5758 43.6542C99.2949 44.2544 99.1106 44.9247 99.003 45.4424C98.9479 45.7076 98.9066 45.9626 98.8833 46.182C98.8719 46.2896 98.8625 46.41 98.861 46.5299C98.8603 46.5793 98.8511 46.8662 98.9531 47.1733L100.492 46.6623ZM101.045 44.3418L102.518 45.0182C102.662 44.705 102.847 44.4409 102.989 44.2681C103.024 44.2265 103.053 44.193 103.076 44.1681C103.088 44.1557 103.097 44.1461 103.104 44.1392C103.111 44.1321 103.114 44.1288 103.114 44.129C103.114 44.1291 103.112 44.1306 103.109 44.1333C103.106 44.1359 103.101 44.1405 103.094 44.1465C103.085 44.1545 103.05 44.1836 102.998 44.2199C102.973 44.2376 102.922 44.2714 102.854 44.3083C102.812 44.3309 102.642 44.4237 102.399 44.4708C102.252 44.4994 101.278 44.6483 100.713 43.7302C100.486 43.3616 100.466 43.0058 100.473 42.8175C100.481 42.6223 100.523 42.4715 100.548 42.3918L102.093 42.8845L103.638 43.3771C103.664 43.2952 103.707 43.1425 103.714 42.9457C103.722 42.7559 103.702 42.3988 103.474 42.0293C102.908 41.1094 101.931 41.2577 101.781 41.287C101.534 41.3348 101.359 41.4296 101.311 41.4553C101.237 41.4954 101.18 41.5337 101.146 41.557C101.028 41.6392 100.933 41.7275 100.885 41.773C100.763 41.8877 100.626 42.0354 100.487 42.2047C100.206 42.5448 99.8555 43.0448 99.5707 43.6654L101.045 44.3418ZM102.093 42.8845L103.715 42.8845L103.715 42.8704L102.093 42.8703L100.472 42.8702L100.472 42.8844L102.093 42.8845Z" fill="#003860" mask="url(#path-18-inside-5_1_721)"/>
<path d="M102.888 30.9361C103.342 30.908 103.874 30.9802 104.411 31.15C105.522 31.5016 106.414 32.1889 106.712 32.9255L106.712 32.9265C106.752 33.0276 106.771 33.2423 106.628 33.6042C106.489 33.955 106.231 34.3564 105.879 34.7468C105.153 35.5507 104.212 36.1155 103.511 36.19L103.281 35.9908C102.561 35.3629 101.97 34.3107 101.719 33.2808C101.594 32.7717 101.564 32.3103 101.617 31.9448C101.67 31.5797 101.796 31.3647 101.933 31.2466L101.934 31.2466C102.115 31.0916 102.428 30.9647 102.888 30.9361Z" stroke="#003860" stroke-width="1.62167"/>
<path d="M116.016 27.1281C116.028 27.1336 116.054 27.1488 116.093 27.1847C116.276 27.3569 116.49 27.7862 116.603 28.421L116.597 28.425C116.601 28.4489 116.604 28.4729 116.608 28.4962C116.478 28.3645 116.35 28.2433 116.232 28.1349C115.938 27.8642 115.737 27.6892 115.594 27.5196C115.564 27.4844 115.543 27.4556 115.528 27.4337C115.559 27.3988 115.609 27.3459 115.694 27.2784L115.695 27.2794C115.891 27.1257 115.987 27.1231 115.995 27.1232C116 27.1232 116.005 27.1235 116.016 27.1281Z" stroke="#003860" stroke-width="1.62167"/>
<path d="M97.2724 21.2971C97.3065 21.2942 97.326 21.2975 97.3632 21.3273C97.4176 21.371 97.5299 21.4954 97.6444 21.802C97.6863 21.9162 97.7093 22.0027 97.7236 22.0656C97.56 22.0929 97.35 22.1043 97.0224 22.1261C96.7849 22.142 96.4988 22.1662 96.2031 22.2247C96.2804 22.1266 96.3645 22.0198 96.4579 21.9064L96.5927 21.7433C96.714 21.6169 96.8333 21.5146 96.9452 21.4396C97.1059 21.3319 97.2167 21.3018 97.2724 21.2971Z" stroke="#003860" stroke-width="1.62167"/>
<path d="M95.7377 2.68963C95.9326 3.04872 96.1611 3.60279 96.4057 4.31563C96.8915 5.73098 97.3994 7.65133 97.8053 9.59402C98.2117 11.5395 98.5084 13.4696 98.5847 14.9095C98.6234 15.6383 98.6019 16.189 98.533 16.5394C98.5213 16.5992 98.5067 16.6476 98.495 16.6868C98.3912 16.7146 98.2896 16.7493 98.1991 16.7825C98.018 16.849 97.8093 16.9374 97.5848 17.0413C97.1347 17.2494 96.5917 17.533 96.0301 17.8644C95.4631 18.1991 94.8516 18.5977 94.287 19.0304C94.3474 18.5877 94.4668 18.2481 94.6063 17.9825C94.8885 17.4455 95.3067 17.1104 95.7606 16.8166C95.9461 16.6965 96.2643 16.5071 96.4559 16.3752C96.6637 16.2321 96.9616 16.007 97.1365 15.6653C97.3466 15.2548 97.3153 14.8207 97.1375 14.427C96.979 14.0761 96.6963 13.7343 96.3454 13.3869L96.3454 13.3859C94.4622 11.5233 93.8947 8.78317 94.1196 6.41612C94.2316 5.23885 94.5354 4.21004 94.9242 3.48647C95.2002 2.97299 95.4663 2.70417 95.6693 2.57537C95.6895 2.60916 95.7141 2.64608 95.7377 2.68963Z" stroke="#003860" stroke-width="1.62167"/>
<path d="M128.974 15.8444C129.112 16.1729 129.148 16.6925 128.964 17.4011C128.751 18.2166 128.28 19.1445 127.594 19.9996C126.208 21.7257 124.112 22.9703 121.831 22.6136L121.832 22.6136C121.389 22.5437 120.94 22.5195 120.557 22.6487C120.347 22.7197 120.142 22.8423 119.979 23.0364C119.819 23.2289 119.74 23.444 119.706 23.6379C119.645 23.9876 119.714 24.3542 119.775 24.6214C119.835 24.8837 119.943 25.262 120.013 25.5423C120.173 26.185 120.287 26.8485 120.173 27.5218C120.137 27.7349 120.073 27.955 119.978 28.1829C119.83 27.391 119.629 26.5751 119.421 25.8372C119.216 25.1128 118.999 24.4405 118.806 23.9065C118.635 23.4367 118.454 22.9925 118.298 22.7394C118.297 22.7104 118.302 22.6006 118.412 22.3615C118.578 22.0022 118.905 21.532 119.394 20.9934C120.243 20.0582 121.482 19.0209 122.875 18.1322L123.481 17.7612C124.776 16.9997 126.227 16.4183 127.39 16.1022C127.975 15.9433 128.456 15.8602 128.79 15.8444C128.866 15.8408 128.927 15.8422 128.974 15.8444Z" stroke="#003860" stroke-width="1.62167"/>
<mask id="path-25-inside-6_1_721" fill="white">
<path fill-rule="evenodd" clip-rule="evenodd" d="M111.076 18.491C111.166 18.6608 110.286 19.0994 109.812 19.7785C109.383 20.3727 109.079 20.9811 109.033 21.0943C108.311 19.3257 110.557 17.543 111.076 18.491ZM107.6 17.3023C107.736 17.4297 106.968 18.1512 106.664 18.9719C106.382 19.6935 106.224 20.3868 106.201 20.5141C105.129 19.0425 106.923 16.5665 107.6 17.3164L107.6 17.3023ZM104.17 16.7362C104.26 16.8211 103.764 17.288 103.572 17.8115C103.38 18.2784 103.279 18.717 103.267 18.8019C102.568 17.8539 103.73 16.2692 104.17 16.7362ZM107.928 21.1509C108.018 21.2358 107.521 21.7168 107.33 22.2262C107.16 22.679 107.036 23.1459 107.025 23.2166C106.325 22.2686 107.488 20.6839 107.928 21.1509ZM110.873 21.6321C110.963 21.7311 110.466 22.1839 110.275 22.7074C110.083 23.1743 109.981 23.6271 109.97 23.712C109.27 22.7498 110.433 21.1651 110.873 21.6462L110.873 21.6321ZM104.61 20.3584C104.712 20.4008 104.373 21.0517 104.306 21.6176C104.26 22.1412 104.272 22.6081 104.283 22.693C103.38 22.0845 104.08 20.1037 104.61 20.3725L104.61 20.3584ZM108.718 24.3769C108.797 24.4477 108.311 24.9287 108.097 25.4381C107.928 25.905 107.826 26.3578 107.792 26.4285C107.104 25.4805 108.266 23.8958 108.706 24.3769L108.718 24.3769ZM106.009 23.4288C106.1 23.4713 105.727 24.0938 105.626 24.6598C105.547 25.1691 105.536 25.636 105.524 25.7068C104.678 24.9993 105.49 23.1034 106.009 23.4288ZM113.705 20.09C113.806 20.2598 112.915 20.7125 112.452 21.3775C112.024 21.9717 111.73 22.5943 111.663 22.7075C110.929 20.9246 113.208 19.1561 113.705 20.09Z"/>
</mask>
<path d="M111.076 18.491L112.508 17.7298L112.503 17.721L112.498 17.7122L111.076 18.491ZM109.812 19.7785L111.127 20.7274L111.135 20.7171L111.142 20.7066L109.812 19.7785ZM109.033 21.0943L107.532 21.7073L109.051 25.4279L110.54 21.695L109.033 21.0943ZM107.6 17.3023L108.711 16.121L105.978 13.551L105.979 17.3022L107.6 17.3023ZM106.664 18.9719L108.174 19.5624L108.179 19.5494L108.184 19.5363L106.664 18.9719ZM106.201 20.5141L104.89 21.4689L107.133 24.5478L107.798 20.7972L106.201 20.5141ZM107.6 17.3164L106.397 18.4031L109.222 21.5327L109.222 17.3165L107.6 17.3164ZM104.17 16.7362L102.99 17.8484L103.023 17.884L103.059 17.9175L104.17 16.7362ZM103.572 17.8115L105.072 18.4278L105.084 18.3989L105.095 18.3695L103.572 17.8115ZM103.267 18.8019L101.963 19.7648L104.346 22.9946L104.875 19.0156L103.267 18.8019ZM107.928 21.1509L106.748 22.2631L106.781 22.2987L106.817 22.3322L107.928 21.1509ZM107.33 22.2262L105.812 21.6546L105.811 21.6583L107.33 22.2262ZM107.025 23.2166L105.72 24.1795L108.017 27.2921L108.626 23.4721L107.025 23.2166ZM110.873 21.6321L112.071 20.5398L109.251 17.4453L109.251 21.632L110.873 21.6321ZM110.275 22.7074L111.775 23.3237L111.787 23.2948L111.797 23.2654L110.275 22.7074ZM109.97 23.712L108.658 24.6656L111.043 27.9455L111.578 23.9257L109.97 23.712ZM110.873 21.6462L109.676 22.7408L112.494 25.8217L112.494 21.6463L110.873 21.6462ZM104.61 20.3584L105.235 18.8622L102.988 17.9229L102.988 20.3583L104.61 20.3584ZM104.306 21.6176L102.695 21.4249L102.692 21.4516L102.69 21.4783L104.306 21.6176ZM104.283 22.693L103.377 24.0377L106.365 26.0522L105.891 22.4794L104.283 22.693ZM104.61 20.3725L103.877 21.8189L106.232 23.0128L106.232 20.3726L104.61 20.3725ZM108.718 24.3769L109.799 23.169L109.338 22.7553L108.718 22.7553L108.718 24.3769ZM108.097 25.4381L106.602 24.8089L106.586 24.8468L106.572 24.8854L108.097 25.4381ZM107.792 26.4285L106.48 27.3812L108.08 29.5847L109.255 27.1285L107.792 26.4285ZM108.706 24.3769L107.51 25.4714L107.992 25.9986L108.706 25.9986L108.706 24.3769ZM106.009 23.4288L105.148 24.8027L105.231 24.8547L105.319 24.8963L106.009 23.4288ZM105.626 24.6598L104.03 24.3733L104.026 24.3922L104.023 24.4112L105.626 24.6598ZM105.524 25.7068L104.484 26.9509L106.676 28.7831L107.126 25.9623L105.524 25.7068ZM113.705 20.09L112.273 20.8512L112.292 20.8872L112.313 20.9223L113.705 20.09ZM112.452 21.3775L113.768 22.3264L113.776 22.3151L113.784 22.3036L112.452 21.3775ZM111.663 22.7075L110.163 23.3244L111.394 26.3162L113.054 23.5399L111.663 22.7075ZM111.076 18.491L109.644 19.2522C109.475 18.934 109.437 18.6027 109.473 18.3229C109.505 18.0676 109.593 17.8813 109.648 17.7823C109.705 17.679 109.761 17.6084 109.789 17.5749C109.819 17.5386 109.842 17.516 109.848 17.5095C109.859 17.4993 109.852 17.507 109.806 17.5446C109.762 17.5813 109.714 17.62 109.638 17.6806C109.383 17.8858 108.869 18.2962 108.482 18.8504L109.812 19.7785L111.142 20.7066C111.229 20.5816 111.391 20.4332 111.672 20.2069C111.767 20.1307 111.968 19.9732 112.118 19.8271C112.187 19.7593 112.353 19.5928 112.486 19.3521C112.613 19.1216 112.897 18.462 112.508 17.7298L111.076 18.491ZM109.812 19.7785L108.497 18.8296C108.004 19.5123 107.63 20.2366 107.527 20.4936L109.033 21.0943L110.54 21.695C110.523 21.7383 110.522 21.7334 110.561 21.6567C110.591 21.5965 110.636 21.5124 110.692 21.4124C110.806 21.21 110.957 20.9633 111.127 20.7274L109.812 19.7785ZM109.033 21.0943L110.535 20.4814C110.5 20.3975 110.489 20.1731 110.749 19.9076C110.874 19.7794 110.917 19.803 110.793 19.831C110.72 19.8475 110.524 19.8767 110.272 19.7881C109.988 19.6884 109.772 19.4871 109.653 19.2697L111.076 18.491L112.498 17.7122C112.249 17.2578 111.85 16.9049 111.347 16.7281C110.875 16.5625 110.425 16.5892 110.079 16.6672C109.41 16.8181 108.84 17.2201 108.429 17.6402C107.617 18.4712 106.844 20.0225 107.532 21.7073L109.033 21.0943ZM107.6 17.3023L106.489 18.4836C106.193 18.2048 106.052 17.8594 106.009 17.5574C105.972 17.2877 106.014 17.0762 106.041 16.9731C106.069 16.8619 106.104 16.7829 106.12 16.7482C106.138 16.7096 106.152 16.6859 106.155 16.6815C106.158 16.6759 106.149 16.6916 106.112 16.745C106.075 16.7973 106.035 16.853 105.976 16.936C105.773 17.2215 105.38 17.7689 105.143 18.4074L106.664 18.9719L108.184 19.5363C108.252 19.3542 108.395 19.1305 108.618 18.8182C108.697 18.7076 108.848 18.4999 108.953 18.3215C109 18.2413 109.115 18.0406 109.182 17.7808C109.238 17.5645 109.389 16.7581 108.711 16.121L107.6 17.3023ZM106.664 18.9719L105.153 18.3813C104.83 19.2088 104.644 20.0057 104.604 20.231L106.201 20.5141L107.798 20.7972C107.797 20.8039 107.827 20.6533 107.898 20.3997C107.965 20.1576 108.058 19.8586 108.174 19.5624L106.664 18.9719ZM106.201 20.5141L107.512 19.5593C107.508 19.5536 107.503 19.546 107.498 19.527C107.493 19.505 107.486 19.4621 107.491 19.3944C107.5 19.2482 107.557 19.0576 107.658 18.8777C107.771 18.6761 107.853 18.6389 107.787 18.6792C107.75 18.7016 107.573 18.8028 107.285 18.7998C106.939 18.7961 106.612 18.6418 106.397 18.4031L107.6 17.3164L108.804 16.2298C108.419 15.8036 107.889 15.5627 107.319 15.5566C106.807 15.5511 106.388 15.7343 106.104 15.9063C105.544 16.246 105.117 16.7791 104.832 17.2868C104.292 18.2454 103.812 19.9879 104.89 21.4689L106.201 20.5141ZM107.6 17.3164L109.222 17.3165L109.222 17.3024L107.6 17.3023L105.979 17.3022L105.979 17.3164L107.6 17.3164ZM104.17 16.7362L103.059 17.9175C102.77 17.6454 102.625 17.3083 102.578 17.0053C102.536 16.7331 102.575 16.5159 102.602 16.4032C102.653 16.1932 102.736 16.0575 102.737 16.0561C102.749 16.0357 102.75 16.0363 102.654 16.1707C102.53 16.3461 102.23 16.7594 102.049 17.2535L103.572 17.8115L105.095 18.3695C105.094 18.3711 105.105 18.3421 105.145 18.2765C105.184 18.2116 105.232 18.1425 105.299 18.048C105.341 17.9896 105.461 17.8249 105.546 17.6766C105.584 17.6114 105.693 17.4212 105.754 17.1673C105.808 16.944 105.934 16.169 105.281 15.5549L104.17 16.7362ZM103.572 17.8115L102.072 17.1952C101.841 17.7569 101.694 18.3326 101.66 18.5882L103.267 18.8019L104.875 19.0156C104.869 19.0579 104.864 19.0826 104.866 19.0741C104.866 19.0726 104.868 19.0633 104.872 19.0461C104.88 19.0119 104.893 18.9594 104.912 18.8934C104.95 18.7595 105.004 18.5928 105.072 18.4278L103.572 17.8115ZM103.267 18.8019L104.572 17.839C104.668 17.9692 104.671 18.0914 104.67 18.1165C104.669 18.1268 104.673 18.0901 104.703 18.0369C104.744 17.9638 104.737 18.0228 104.591 18.1124C104.514 18.1591 104.304 18.2715 103.987 18.2736C103.615 18.2762 103.248 18.1221 102.99 17.8484L104.17 16.7362L105.35 15.624C104.982 15.2335 104.482 15.0268 103.965 15.0304C103.503 15.0335 103.136 15.2005 102.899 15.3448C102.433 15.6299 102.096 16.0567 101.88 16.4399C101.479 17.1491 101.062 18.5442 101.963 19.7648L103.267 18.8019ZM107.928 21.1509L106.817 22.3322C106.523 22.0562 106.381 21.716 106.335 21.4173C106.294 21.1485 106.332 20.9345 106.358 20.8244C106.407 20.6181 106.488 20.4847 106.488 20.4832C106.501 20.4618 106.5 20.4653 106.408 20.5965C106.289 20.766 105.992 21.1766 105.812 21.6546L107.33 22.2262L108.847 22.7978C108.846 22.7999 108.858 22.7698 108.901 22.7006C108.942 22.6323 108.992 22.5605 109.061 22.4623C109.105 22.3989 109.224 22.2344 109.31 22.0829C109.348 22.0165 109.453 21.8276 109.513 21.5768C109.563 21.3657 109.695 20.5867 109.039 19.9696L107.928 21.1509ZM107.33 22.2262L105.811 21.6583C105.628 22.1467 105.46 22.7318 105.424 22.9611L107.025 23.2166L108.626 23.4721C108.618 23.5264 108.609 23.5611 108.613 23.5438C108.614 23.5396 108.617 23.527 108.623 23.5053C108.634 23.4625 108.651 23.3995 108.674 23.3225C108.72 23.1665 108.781 22.9749 108.849 22.7941L107.33 22.2262ZM107.025 23.2166L108.33 22.2537C108.426 22.3839 108.429 22.5061 108.427 22.5312C108.427 22.5415 108.43 22.5048 108.46 22.4516C108.502 22.3785 108.495 22.4375 108.348 22.5272C108.272 22.5738 108.061 22.6862 107.745 22.6883C107.373 22.6909 107.005 22.5368 106.748 22.2631L107.928 21.1509L109.108 20.0387C108.74 19.6482 108.24 19.4415 107.723 19.4451C107.261 19.4482 106.893 19.6152 106.657 19.7595C106.19 20.0446 105.854 20.4714 105.637 20.8546C105.236 21.5638 104.819 22.9589 105.72 24.1795L107.025 23.2166ZM110.873 21.6321L109.674 22.7244C109.435 22.4621 109.317 22.1575 109.278 21.8851C109.242 21.6345 109.275 21.4328 109.301 21.3185C109.35 21.108 109.432 20.9718 109.436 20.9643C109.452 20.9355 109.459 20.9271 109.44 20.9554C109.422 20.9819 109.4 21.012 109.361 21.0662C109.293 21.1619 109.185 21.3126 109.079 21.4848C108.974 21.6569 108.849 21.8835 108.752 22.1494L110.275 22.7074L111.797 23.2654C111.796 23.2695 111.806 23.2433 111.844 23.1801C111.883 23.1171 111.93 23.0503 111.998 22.9549C112.04 22.8965 112.164 22.7285 112.253 22.5722C112.294 22.5002 112.401 22.3082 112.46 22.052C112.517 21.8066 112.607 21.1278 112.071 20.5398L110.873 21.6321ZM110.275 22.7074L108.775 22.0911C108.539 22.6642 108.395 23.2526 108.363 23.4982L109.97 23.712L111.578 23.9257C111.572 23.9653 111.568 23.9877 111.569 23.978C111.57 23.9751 111.572 23.9646 111.576 23.9464C111.585 23.9103 111.598 23.8558 111.617 23.7884C111.655 23.6511 111.709 23.4841 111.775 23.3237L110.275 22.7074ZM109.97 23.712L111.282 22.7583C111.371 22.8818 111.374 22.9964 111.372 23.0179C111.372 23.0251 111.376 22.9877 111.405 22.9364C111.447 22.8638 111.437 22.9286 111.282 23.0213C111.201 23.0701 110.983 23.1827 110.66 23.179C110.282 23.1746 109.922 23.01 109.676 22.7408L110.873 21.6462L112.069 20.5517C111.713 20.1622 111.221 19.9419 110.697 19.9359C110.229 19.9305 109.854 20.0955 109.613 20.2401C109.139 20.5248 108.799 20.9557 108.582 21.3394C108.177 22.0558 107.771 23.4447 108.658 24.6656L109.97 23.712ZM110.873 21.6462L112.494 21.6463L112.494 21.6322L110.873 21.6321L109.251 21.632L109.251 21.6462L110.873 21.6462ZM104.61 20.3584L103.985 21.8546C103.527 21.6632 103.26 21.3095 103.132 21.0088C103.02 20.7463 103.009 20.5214 103.007 20.4247C103.006 20.3135 103.017 20.2296 103.023 20.1914C103.03 20.1486 103.037 20.119 103.039 20.1088C103.042 20.1003 103.035 20.1227 102.984 20.2741C102.913 20.4849 102.752 20.9477 102.695 21.4249L104.306 21.6176L105.916 21.8103C105.926 21.7216 105.968 21.576 106.058 21.3092C106.088 21.2219 106.151 21.0382 106.19 20.8781C106.207 20.8117 106.254 20.6157 106.25 20.3782C106.249 20.2754 106.232 19.2788 105.235 18.8622L104.61 20.3584ZM104.306 21.6176L102.69 21.4783C102.641 22.0444 102.641 22.6482 102.675 22.9066L104.283 22.693L105.891 22.4794C105.897 22.5289 105.898 22.5598 105.898 22.5479C105.898 22.5454 105.897 22.5344 105.896 22.5136C105.895 22.4727 105.894 22.4105 105.895 22.3317C105.896 22.1733 105.903 21.9689 105.921 21.757L104.306 21.6176ZM104.283 22.693L105.189 21.3483C105.414 21.4995 105.464 21.6951 105.469 21.7199C105.472 21.7333 105.463 21.6791 105.487 21.5804C105.513 21.4685 105.54 21.4679 105.474 21.5499C105.444 21.5878 105.314 21.7441 105.054 21.8572C104.913 21.9185 104.725 21.97 104.504 21.9693C104.277 21.9685 104.063 21.913 103.877 21.8189L104.61 20.3725L105.343 18.9261C104.792 18.6465 104.212 18.6863 103.76 18.8829C103.364 19.0554 103.099 19.327 102.943 19.5224C102.625 19.9191 102.433 20.4014 102.332 20.8271C102.227 21.2661 102.179 21.8043 102.288 22.3519C102.399 22.9109 102.701 23.5822 103.377 24.0377L104.283 22.693ZM104.61 20.3725L106.232 20.3726L106.232 20.3585L104.61 20.3584L102.988 20.3583L102.988 20.3725L104.61 20.3725ZM108.718 24.3769L107.636 25.5848C107.281 25.2672 107.143 24.8661 107.112 24.5518C107.085 24.2746 107.138 24.0609 107.166 23.9661C107.197 23.8589 107.233 23.7813 107.251 23.7453C107.271 23.7052 107.287 23.6779 107.293 23.6678C107.299 23.6578 107.291 23.6699 107.199 23.798C107.074 23.9734 106.791 24.3616 106.602 24.8089L108.097 25.4381L109.592 26.0673C109.618 26.0052 109.685 25.8982 109.835 25.688C109.882 25.6233 109.994 25.4702 110.075 25.3341C110.11 25.2768 110.212 25.105 110.279 24.8778C110.313 24.7617 110.568 23.8573 109.799 23.169L108.718 24.3769ZM108.097 25.4381L106.572 24.8854C106.468 25.1744 106.387 25.4488 106.333 25.6424C106.297 25.7705 106.292 25.7908 106.27 25.8671C106.263 25.893 106.261 25.8994 106.262 25.8956C106.263 25.8934 106.267 25.8798 106.274 25.8595C106.28 25.8452 106.298 25.7941 106.33 25.7285L107.792 26.4285L109.255 27.1285C109.314 27.0059 109.349 26.8924 109.354 26.874C109.368 26.8301 109.381 26.7859 109.391 26.752C109.403 26.7089 109.44 26.5736 109.455 26.5213C109.502 26.3541 109.557 26.1687 109.622 25.9908L108.097 25.4381ZM107.792 26.4285L109.105 25.4758C109.201 25.6084 109.202 25.7306 109.201 25.7527C109.2 25.761 109.205 25.7233 109.234 25.6709C109.276 25.5976 109.267 25.6612 109.113 25.7531C109.033 25.8013 108.816 25.9134 108.493 25.9096C108.115 25.9051 107.756 25.7407 107.51 25.4714L108.706 24.3769L109.903 23.2824C109.546 22.8928 109.055 22.6727 108.532 22.6665C108.064 22.661 107.69 22.8254 107.449 22.9694C106.975 23.2526 106.635 23.6815 106.418 24.0626C106.015 24.768 105.592 26.1587 106.48 27.3812L107.792 26.4285ZM108.706 24.3769L108.706 25.9986L108.718 25.9986L108.718 24.3769L108.718 22.7553L108.706 22.7553L108.706 24.3769ZM106.009 23.4288L105.319 24.8963C104.821 24.6621 104.573 24.2456 104.474 23.929C104.388 23.6554 104.4 23.4303 104.406 23.3438C104.415 23.2392 104.432 23.1618 104.44 23.1286C104.449 23.0906 104.457 23.0652 104.46 23.0578C104.464 23.0454 104.462 23.0511 104.447 23.0908C104.431 23.1291 104.414 23.1709 104.388 23.2354C104.301 23.4491 104.115 23.8976 104.03 24.3733L105.626 24.6598L107.222 24.9462C107.238 24.856 107.289 24.7102 107.391 24.4605C107.424 24.3789 107.497 24.2061 107.544 24.0611C107.563 24.0019 107.622 23.8205 107.64 23.5976C107.648 23.4888 107.659 23.2455 107.568 22.9578C107.465 22.6272 107.209 22.2008 106.699 21.9613L106.009 23.4288ZM105.626 24.6598L104.023 24.4112C103.975 24.7247 103.948 25.0156 103.932 25.2272C103.925 25.3331 103.919 25.4243 103.915 25.4831C103.913 25.5153 103.912 25.5317 103.912 25.5408C103.909 25.5692 103.912 25.519 103.923 25.4513L105.524 25.7068L107.126 25.9623C107.139 25.8769 107.145 25.7966 107.146 25.7839C107.148 25.752 107.15 25.7163 107.152 25.6868C107.156 25.6223 107.161 25.5516 107.167 25.4684C107.179 25.3014 107.198 25.1042 107.228 24.9083L105.626 24.6598ZM105.524 25.7068L106.564 24.4626C106.748 24.6158 106.777 24.7866 106.779 24.8014C106.779 24.8065 106.776 24.7507 106.803 24.6619C106.836 24.5568 106.857 24.5744 106.771 24.6651C106.729 24.7092 106.575 24.862 106.291 24.9513C106.138 24.9993 105.946 25.0288 105.73 25.0047C105.51 24.9802 105.312 24.9055 105.148 24.8027L106.009 23.4288L106.871 22.0549C106.37 21.7412 105.803 21.7049 105.318 21.8572C104.894 21.9906 104.598 22.2437 104.42 22.4308C104.062 22.8076 103.836 23.2824 103.706 23.6989C103.572 24.132 103.491 24.6624 103.561 25.2118C103.633 25.7709 103.878 26.444 104.484 26.9509L105.524 25.7068ZM113.705 20.09L112.313 20.9223C112.13 20.6167 112.072 20.285 112.097 19.9908C112.119 19.7232 112.205 19.5253 112.26 19.4187C112.318 19.308 112.376 19.2322 112.405 19.1959C112.437 19.1565 112.461 19.1317 112.469 19.124C112.482 19.1113 112.477 19.1175 112.433 19.1545C112.39 19.19 112.342 19.2292 112.268 19.2889C112.021 19.4894 111.503 19.9028 111.121 20.4513L112.452 21.3775L113.784 22.3036C113.865 22.1872 114.023 22.0417 114.312 21.8071C114.409 21.7285 114.613 21.5676 114.765 21.4145C114.835 21.3445 115.006 21.1693 115.138 20.9149C115.272 20.6576 115.527 19.9766 115.097 19.2576L113.705 20.09ZM112.452 21.3775L111.137 20.4285C110.872 20.7965 110.657 21.1609 110.504 21.4361C110.427 21.5753 110.363 21.6958 110.317 21.7836C110.253 21.9062 110.256 21.899 110.271 21.875L111.663 22.7075L113.054 23.5399C113.103 23.4593 113.168 23.3319 113.191 23.2873C113.233 23.208 113.282 23.1145 113.34 23.0096C113.458 22.7967 113.604 22.5527 113.768 22.3264L112.452 21.3775ZM111.663 22.7075L113.162 22.0905C113.128 22.0061 113.114 21.7856 113.378 21.5182C113.505 21.3889 113.553 21.408 113.435 21.435C113.367 21.4507 113.17 21.4823 112.914 21.3936C112.623 21.2927 112.397 21.084 112.273 20.8512L113.705 20.09L115.137 19.3288C114.889 18.8624 114.483 18.5047 113.975 18.3288C113.502 18.1651 113.052 18.1954 112.711 18.2736C112.049 18.4252 111.48 18.8228 111.067 19.2417C110.25 20.0708 109.464 21.626 110.163 23.3244L111.663 22.7075Z" fill="#003860" mask="url(#path-25-inside-6_1_721)"/>
<mask id="path-27-inside-7_1_721" fill="white">
<path fill-rule="evenodd" clip-rule="evenodd" d="M93.0107 32.0597C93.8677 32.4559 94.7135 30.0647 93.5519 29.6402C92.4806 29.2439 92.0521 31.6069 93.0107 32.0597Z"/>
</mask>
<path d="M93.0107 32.0597L92.3181 33.526L92.3303 33.5317L93.0107 32.0597ZM93.5519 29.6402L92.9895 31.1612L92.9953 31.1633L93.5519 29.6402ZM93.0107 32.0597L92.3303 33.5317C93.3746 34.0144 94.2875 33.5176 94.7456 33.0761C95.187 32.6507 95.4553 32.0968 95.5965 31.6071C95.7395 31.1111 95.8096 30.4823 95.6495 29.8532C95.4767 29.1743 95.0062 28.4452 94.1085 28.1171L93.5519 29.6402L92.9953 31.1633C92.8678 31.1167 92.7411 31.0296 92.6438 30.911C92.5531 30.8005 92.5185 30.7007 92.5063 30.6529C92.4876 30.5792 92.5105 30.603 92.4801 30.7084C92.4683 30.7493 92.4544 30.7796 92.4461 30.7947C92.4358 30.8132 92.4459 30.7879 92.4947 30.7408C92.5402 30.697 92.6705 30.5857 92.8975 30.5233C93.1546 30.4526 93.4417 30.4724 93.6911 30.5877L93.0107 32.0597ZM93.5519 29.6402L94.1143 28.1192C93.1884 27.7768 92.3127 28.0715 91.7436 28.6309C91.2603 29.1061 91.0302 29.7187 90.9307 30.2092C90.8271 30.7201 90.8213 31.3088 90.9782 31.8708C91.133 32.425 91.5102 33.1443 92.3181 33.526L93.0107 32.0597L93.7032 30.5934C93.8595 30.6672 93.9649 30.7714 94.0263 30.8558C94.0835 30.9344 94.0999 30.991 94.1021 30.9989C94.1032 31.003 94.0918 30.9408 94.1094 30.8539C94.1167 30.818 94.1241 30.8034 94.121 30.8101C94.1193 30.8135 94.093 30.8696 94.0175 30.9438C93.9378 31.0222 93.7894 31.1325 93.5683 31.1867C93.3371 31.2435 93.1302 31.2132 92.9895 31.1611L93.5519 29.6402Z" fill="#003860" mask="url(#path-27-inside-7_1_721)"/>
<mask id="path-29-inside-8_1_721" fill="white">
<path fill-rule="evenodd" clip-rule="evenodd" d="M114.111 39.7291C114.968 40.1395 115.814 37.7341 114.652 37.3096C113.581 36.9134 113.153 39.2763 114.111 39.7291Z"/>
</mask>
<path d="M114.111 39.7291L114.811 38.2664L114.804 38.2628L114.111 39.7291ZM114.652 37.3096L114.09 38.8306L114.096 38.8327L114.652 37.3096ZM114.111 39.7291L113.411 41.1918C114.455 41.6917 115.379 41.2003 115.844 40.7537C116.288 40.327 116.557 39.7701 116.697 39.2806C116.84 38.784 116.91 38.1549 116.75 37.5261C116.579 36.8486 116.11 36.1157 115.209 35.7865L114.652 37.3096L114.096 38.8327C113.967 38.7855 113.84 38.6976 113.743 38.5789C113.652 38.4685 113.618 38.3693 113.607 38.3228C113.588 38.2516 113.611 38.2778 113.58 38.3843C113.568 38.4258 113.554 38.4562 113.546 38.471C113.536 38.4893 113.547 38.4627 113.598 38.4141C113.645 38.3687 113.779 38.2549 114.012 38.1931C114.276 38.123 114.565 38.1485 114.811 38.2665L114.111 39.7291ZM114.652 37.3096L115.215 35.7886C114.289 35.4462 113.413 35.7409 112.844 36.3004C112.361 36.7755 112.131 37.3882 112.031 37.8786C111.928 38.3895 111.922 38.9782 112.079 39.5402C112.234 40.0945 112.611 40.8137 113.419 41.1954L114.111 39.7291L114.804 38.2628C114.96 38.3366 115.066 38.4408 115.127 38.5252C115.184 38.6038 115.2 38.6604 115.203 38.6684C115.204 38.6724 115.192 38.6102 115.21 38.5233C115.217 38.4874 115.225 38.4729 115.222 38.4795C115.22 38.483 115.194 38.5391 115.118 38.6133C115.038 38.6916 114.89 38.8019 114.669 38.8562C114.438 38.9129 114.231 38.8826 114.09 38.8306L114.652 37.3096Z" fill="#003860" mask="url(#path-29-inside-8_1_721)"/>
<path d="M28.8976 311.468C34.2447 310.903 37.6923 314.29 39.6438 315.853L39.6448 315.853C41.0376 316.965 41.2898 318.441 41.0063 320.374C40.8631 321.35 40.5892 322.394 40.2808 323.513C39.9767 324.616 39.6386 325.793 39.4 326.97C38.9233 329.32 38.8 331.849 40.1961 334.147C41.5356 336.35 44.1678 338.165 48.7187 339.49C49.2114 344.927 48.0578 348.825 46.1498 351.497C44.1765 354.261 41.3392 355.795 38.4692 356.342C35.5839 356.892 32.727 356.434 30.7524 355.294C28.804 354.169 27.784 352.447 28.2181 350.331L28.2181 350.33C28.3411 349.729 28.3317 349.114 27.9866 348.616C27.6378 348.112 27.0918 347.936 26.6448 347.871C26.1939 347.804 25.6809 347.826 25.2024 347.86C24.6872 347.896 24.2144 347.947 23.6956 347.971L23.5813 347.976L23.4729 348.013C20.2792 349.099 17.7749 348.739 15.7893 347.656C13.7724 346.557 12.207 344.666 11.0206 342.558C9.83753 340.457 9.06519 338.199 8.60537 336.454C8.37602 335.583 8.22716 334.85 8.14437 334.339C8.13225 334.264 8.12222 334.194 8.11312 334.131C9.42565 333.504 10.7181 332.442 11.9372 331.071C13.3339 329.5 14.6704 327.483 15.8677 325.137C17.6973 321.571 19.4187 318.31 21.4827 315.843C23.5279 313.399 25.8575 311.8 28.8976 311.468Z" stroke="#003860" stroke-width="1.62167"/>
<path d="M29.9241 311.407C32.5728 311.342 35.8269 312.112 39.889 314.147L39.89 314.148C40.768 314.587 41.2303 315.151 41.4682 315.806C41.7179 316.494 41.7473 317.357 41.5991 318.416C41.4514 319.471 41.1403 320.643 40.775 321.922C40.4146 323.185 40.0017 324.552 39.6843 325.928C39.0518 328.67 38.7437 331.65 40.0342 334.346C41.2886 336.967 43.9574 339.129 48.7619 340.612C48.6225 346.975 44.1429 350.835 39.6704 351.729C37.3617 352.19 35.1334 351.844 33.5298 350.728C31.9588 349.634 30.8699 347.722 30.9534 344.772L30.9768 343.954L30.1594 343.938C28.8216 343.91 27.8385 343.411 27.0705 342.581C26.2788 341.725 25.6876 340.485 25.2482 338.955C24.365 335.878 24.175 331.955 23.9226 328.429C23.7984 326.694 23.6572 325.046 23.3971 323.706C23.2668 323.034 23.1015 322.412 22.8805 321.879C22.6616 321.351 22.367 320.858 21.9468 320.503C21.5037 320.128 20.96 319.94 20.3472 319.981C19.7644 320.02 19.1691 320.263 18.566 320.64C18.3568 320.771 18.1398 320.922 17.9146 321.095C18.2512 320.468 18.5976 319.846 18.9605 319.237C20.2436 317.083 21.6836 315.156 23.4515 313.753C25.2036 312.362 27.2932 311.472 29.9241 311.407Z" stroke="#003860" stroke-width="1.62167"/>
<path d="M39.0288 314.905C39.4007 314.855 39.8688 314.929 40.4136 315.131C40.9514 315.33 41.5111 315.635 42.0435 315.981C43.1167 316.678 43.9846 317.482 44.2213 317.744L44.2252 317.748C51.519 325.695 54.4879 332.205 55.0158 337.161C55.5401 342.083 53.6671 345.522 51.1148 347.47C48.5217 349.449 45.2432 349.893 42.898 348.851C41.7401 348.336 40.7947 347.456 40.2309 346.186C39.6993 344.987 39.4846 343.39 39.8226 341.344L39.8978 340.929C41.6644 331.878 38.9572 328.988 38.1131 324.821L38.1131 324.819L37.9754 324.122C37.6537 322.424 37.3462 320.255 37.4098 318.402C37.4463 317.337 37.6041 316.454 37.896 315.838C38.1671 315.266 38.5177 314.983 38.9917 314.909L39.0288 314.905Z" stroke="#003860" stroke-width="1.62167"/>
<path d="M26.292 322.636C26.5528 322.542 26.9562 322.551 27.4346 322.725C27.903 322.895 28.3434 323.188 28.6368 323.511C28.8595 323.757 28.944 323.957 28.9669 324.095C28.9566 324.103 28.9467 324.116 28.9327 324.125C28.8381 324.191 28.6902 324.265 28.4884 324.329C28.0827 324.457 27.5596 324.517 27.0616 324.471C26.5505 324.424 26.1713 324.278 25.963 324.099C25.8075 323.965 25.6943 323.778 25.7706 323.383C25.8696 322.877 26.091 322.709 26.292 322.636Z" stroke="#003860" stroke-width="1.62167"/>
<mask id="path-35-inside-9_1_721" fill="white">
<path fill-rule="evenodd" clip-rule="evenodd" d="M17.7309 340.461C17.7986 340.065 17.5165 339.796 17.3585 340.065C17.2005 340.32 17.3134 340.914 17.1216 341.565C17.0539 341.763 16.9749 342.003 16.8734 342.215C15.9707 344.083 14.7182 342.923 14.0073 341.649C13.7477 341.168 13.4544 341.465 13.6011 341.89C14.8762 345.441 18.1034 344.069 17.7309 340.461Z"/>
</mask>
<path d="M17.7309 340.461L16.1324 340.188L16.095 340.407L16.1178 340.627L17.7309 340.461ZM17.3585 340.065L18.7366 340.92L18.7468 340.903L18.7567 340.886L17.3585 340.065ZM17.1216 341.565L18.6561 342.089L18.6673 342.056L18.6771 342.023L17.1216 341.565ZM16.8734 342.215L18.3335 342.921L18.3362 342.916L16.8734 342.215ZM14.0073 341.649L12.5801 342.419L12.5856 342.43L12.5913 342.44L14.0073 341.649ZM13.6011 341.89L12.0683 342.42L12.0715 342.429L12.0748 342.438L13.6011 341.89ZM17.7309 340.461L19.3294 340.734C19.4267 340.165 19.3236 339.423 18.7851 338.876C18.5024 338.589 17.9742 338.257 17.2764 338.35C16.5745 338.445 16.1568 338.909 15.9603 339.243L17.3585 340.065L18.7567 340.886C18.6392 341.086 18.316 341.483 17.7093 341.565C17.1067 341.646 16.6744 341.355 16.4735 341.151C16.0987 340.77 16.1028 340.361 16.1324 340.188L17.7309 340.461ZM17.3585 340.065L15.9804 339.21C15.7623 339.562 15.7011 339.914 15.6767 340.084C15.6502 340.268 15.6402 340.464 15.6339 340.57C15.6181 340.838 15.6036 340.979 15.5661 341.106L17.1216 341.565L18.6771 342.023C18.8314 341.5 18.8564 341.018 18.8716 340.762C18.8758 340.692 18.8785 340.645 18.8817 340.603C18.8832 340.584 18.8844 340.57 18.8855 340.559C18.8865 340.549 18.8871 340.545 18.887 340.546C18.8868 340.547 18.8857 340.555 18.8827 340.569C18.8799 340.583 18.8746 340.606 18.8658 340.636C18.849 340.693 18.8125 340.797 18.7366 340.92L17.3585 340.065ZM17.1216 341.565L15.5871 341.04C15.5069 341.275 15.4615 341.409 15.4105 341.515L16.8734 342.215L18.3362 342.916C18.4884 342.598 18.6009 342.251 18.6561 342.089L17.1216 341.565ZM16.8734 342.215L15.4133 341.51C15.2648 341.817 15.2165 341.75 15.3915 341.658C15.4901 341.606 15.6147 341.572 15.7469 341.571C15.8718 341.57 15.9585 341.599 15.9952 341.615C16.0291 341.629 16.0265 341.634 15.9899 341.605C15.9545 341.577 15.9021 341.53 15.8364 341.456C15.7024 341.307 15.5573 341.099 15.4232 340.859L14.0073 341.649L12.5913 342.44C12.8127 342.836 13.0908 343.252 13.4197 343.619C13.7356 343.972 14.1763 344.369 14.7416 344.606C15.3609 344.866 16.1397 344.928 16.8979 344.53C17.5838 344.171 18.0306 343.548 18.3335 342.921L16.8734 342.215ZM14.0073 341.649L15.4345 340.88C15.2967 340.624 15.0385 340.242 14.5813 339.996C14.028 339.699 13.2743 339.675 12.6636 340.144C12.1647 340.528 12.0045 341.055 11.9594 341.386C11.9093 341.753 11.9608 342.108 12.0683 342.42L13.6011 341.89L15.1338 341.36C15.168 341.459 15.2011 341.619 15.1729 341.825C15.1496 341.996 15.0515 342.4 14.64 342.716C14.1168 343.118 13.4759 343.084 13.046 342.853C12.7123 342.673 12.588 342.434 12.5801 342.419L14.0073 341.649ZM13.6011 341.89L12.0748 342.438C12.4716 343.543 13.0888 344.461 13.9431 345.025C14.8336 345.614 15.8902 345.745 16.861 345.376C18.7408 344.66 19.5706 342.49 19.344 340.295L17.7309 340.461L16.1178 340.627C16.1858 341.286 16.0794 341.747 15.9517 342.022C15.8206 342.304 15.6929 342.35 15.7067 342.345C15.7578 342.325 15.7919 342.36 15.7303 342.319C15.6325 342.255 15.368 342.012 15.1273 341.342L13.6011 341.89Z" fill="#003860" mask="url(#path-35-inside-9_1_721)"/>
<path d="M9.98623 332.656C10.8003 332.72 11.5812 332.988 12.0419 333.31C12.274 333.473 12.3548 333.6 12.3749 333.652C12.376 333.655 12.3806 333.657 12.3779 333.671L12.3378 333.732C11.872 334.438 11.4607 335.173 11.0947 335.851C10.7215 336.543 10.4083 337.152 10.1084 337.667C9.82371 338.155 9.60074 338.459 9.4327 338.622C9.41571 338.596 9.39559 338.566 9.3741 338.529C9.27165 338.353 9.15465 338.099 9.01666 337.746C8.73928 337.036 8.42468 336.056 7.99606 334.759L7.99508 334.758C7.81475 334.213 7.80127 333.833 7.84954 333.579C7.89526 333.338 8.00303 333.171 8.15519 333.042C8.49685 332.752 9.15249 332.59 9.98623 332.656Z" stroke="#003860" stroke-width="1.62167"/>
<path d="M15.0193 336.507C14.9608 336.535 14.8866 336.559 14.7927 336.562C14.6708 336.567 14.5782 336.535 14.5125 336.5C14.4546 336.421 14.4165 336.327 14.4138 336.226C14.4166 336.219 14.4184 336.212 14.4216 336.206L15.0193 336.507ZM14.8875 335.909C14.9565 335.908 15.0098 335.92 15.0486 335.936C15.133 336.057 15.1873 336.22 15.1873 336.369C15.1849 336.374 15.1831 336.379 15.1804 336.384C15.1658 336.403 15.116 336.459 15.0252 336.504L14.4363 336.18C14.4718 336.115 14.5332 336.041 14.6267 335.985C14.7188 335.931 14.8125 335.911 14.8875 335.909Z" stroke="#003860" stroke-width="1.62167"/>
<path d="M16.1481 338.969C16.0896 338.997 16.0153 339.021 15.9215 339.025C15.7787 339.03 15.676 338.986 15.61 338.944C15.5658 338.875 15.5375 338.796 15.5338 338.711C15.5389 338.698 15.5431 338.683 15.5504 338.668L16.1481 338.969ZM15.9996 338.373C16.0883 338.37 16.1502 338.395 16.1901 338.415C16.267 338.534 16.3154 338.688 16.3161 338.829C16.3127 338.837 16.3091 338.844 16.3053 338.851C16.2873 338.873 16.239 338.923 16.1569 338.964L15.5729 338.627C15.6089 338.565 15.6689 338.496 15.7565 338.445C15.8424 338.395 15.9295 338.376 15.9996 338.373Z" stroke="#003860" stroke-width="1.62167"/>
<path d="M13.082 338.541C13.1568 338.539 13.2125 338.556 13.252 338.572C13.3346 338.688 13.3875 338.842 13.3887 338.985L13.3731 339.021C13.3604 339.038 13.243 339.193 12.9844 339.2C12.865 339.204 12.7748 339.172 12.7119 339.138C12.6526 339.059 12.6125 338.965 12.6084 338.863L12.6309 338.811L12.6338 338.805C12.6698 338.742 12.7308 338.671 12.8213 338.617C12.9134 338.563 13.0071 338.543 13.082 338.541Z" stroke="#003860" stroke-width="1.62167"/>
<mask id="path-41-inside-10_1_721" fill="white">
<path fill-rule="evenodd" clip-rule="evenodd" d="M27.1525 332.764C26.2616 332.523 26.5773 329.934 27.7389 330.359C28.8102 330.741 28.1449 333.033 27.1525 332.764Z"/>
</mask>
<path d="M27.1525 332.764L27.5765 331.199L27.5752 331.198L27.1525 332.764ZM27.7389 330.359L27.1823 331.882L27.1942 331.886L27.7389 330.359ZM27.1525 332.764L27.5752 331.198C27.8504 331.273 28.0373 331.432 28.1408 331.561C28.2344 331.678 28.2606 331.769 28.2636 331.779C28.2671 331.792 28.251 331.716 28.2719 331.6C28.2759 331.578 28.2805 331.559 28.2848 331.545C28.2868 331.538 28.2887 331.532 28.29 331.529C28.2914 331.525 28.2922 331.523 28.2921 331.523C28.292 331.523 28.2909 331.526 28.2883 331.531C28.2858 331.536 28.2816 331.543 28.2753 331.553C28.2632 331.572 28.2403 331.604 28.2028 331.643C28.1265 331.723 27.978 331.841 27.7512 331.9C27.5146 331.961 27.3094 331.928 27.1823 331.882L27.7389 330.359L28.2954 328.835C27.8779 328.683 27.4088 328.638 26.9361 328.76C26.4731 328.881 26.1164 329.133 25.8611 329.399C25.3815 329.9 25.1684 330.535 25.0802 331.023C24.9883 331.532 24.9877 332.122 25.1463 332.674C25.2908 333.177 25.7046 334.053 26.7299 334.329L27.1525 332.764ZM27.7389 330.359L27.1942 331.886C27.049 331.834 26.9159 331.74 26.8171 331.622C26.7249 331.511 26.6886 331.412 26.6753 331.364C26.6539 331.286 26.6762 331.299 26.6526 331.388C26.6437 331.421 26.6331 331.445 26.6276 331.455C26.6209 331.467 26.6309 331.444 26.6734 331.402C26.7156 331.36 26.816 331.275 26.9854 331.218C27.1699 331.155 27.38 331.145 27.5765 331.199L27.1525 332.764L26.7286 334.329C27.6916 334.59 28.4885 334.168 28.9535 333.709C29.3939 333.273 29.6545 332.719 29.7866 332.223C29.9194 331.724 29.9692 331.11 29.8023 330.503C29.6251 329.859 29.1647 329.145 28.2835 328.831L27.7389 330.359Z" fill="#003860" mask="url(#path-41-inside-10_1_721)"/>
<path d="M171.366 190.638C171.597 190.617 171.913 190.731 172.281 191.246C173.035 192.302 173.5 194.404 173.324 196.35L173.324 196.351C173.179 197.994 172.509 199.306 171.788 199.891C171.443 200.171 171.139 200.247 170.886 200.21C170.66 200.178 170.35 200.037 169.994 199.625L169.839 199.432C169.174 198.54 168.868 197.074 168.916 195.53C168.964 193.982 169.36 192.598 169.85 191.912L170.026 191.664C170.65 190.867 171.11 190.661 171.366 190.638Z" stroke="#003860" stroke-width="1.62167"/>
<path d="M175.256 198.548C176.255 197.721 177.287 197.384 177.89 197.467L178.252 197.515C178.995 197.68 179.393 197.995 179.606 198.317C179.863 198.705 179.955 199.258 179.831 199.958C179.577 201.385 178.483 203.036 177.198 203.936L177.196 203.937C176.136 204.683 175.022 204.748 174.298 204.39C173.639 204.065 173.073 203.271 173.318 201.728L173.318 201.726C173.511 200.484 174.285 199.351 175.256 198.548Z" stroke="#003860" stroke-width="1.62167"/>
<path d="M164.01 196.929C164.631 196.951 165.561 197.338 166.451 198.131C167.401 198.978 168.144 200.148 168.305 201.407L168.306 201.409C168.509 202.968 167.919 203.729 167.264 204.021C166.581 204.325 165.561 204.25 164.572 203.585L164.375 203.445C163.105 202.484 162.055 200.784 161.84 199.348C161.734 198.642 161.843 198.098 162.105 197.728C162.355 197.375 162.847 197.037 163.825 196.946L164.01 196.929Z" stroke="#003860" stroke-width="1.62167"/>
<path d="M168.173 205.564C168.699 205.529 169.051 205.685 169.302 205.923C169.571 206.178 169.787 206.594 169.895 207.165C170.114 208.317 169.842 209.866 169.071 211.142C168.619 211.887 168.029 212.542 167.411 213.019C166.784 213.504 166.183 213.765 165.711 213.812C165.284 213.855 164.974 213.73 164.735 213.402C164.492 213.067 164.272 212.445 164.244 211.385L164.256 210.903C164.279 209.939 164.765 208.602 165.56 207.475C166.369 206.326 167.333 205.624 168.174 205.565L168.173 205.564Z" stroke="#003860" stroke-width="1.62167"/>
<path d="M173.31 206.229C173.783 206.3 174.379 206.59 174.993 207.107C175.597 207.616 176.166 208.302 176.593 209.07L176.594 209.071C177.326 210.381 177.549 211.948 177.294 213.091C177.167 213.657 176.939 214.059 176.666 214.298C176.413 214.519 176.062 214.655 175.538 214.592L175.535 214.592C174.688 214.492 173.744 213.741 172.97 212.553C172.211 211.388 171.766 210.028 171.771 209.061L171.771 209.047C171.776 207.688 172.047 206.948 172.332 206.584C172.574 206.276 172.881 206.166 173.31 206.229Z" stroke="#003860" stroke-width="1.62167"/>
<path d="M171.05 200.374C171.412 200.352 171.755 200.491 172.077 200.809C172.765 201.487 173.194 202.848 173.034 204.102L173.034 204.103C172.905 205.121 172.31 205.978 171.603 206.382C170.99 206.732 170.279 206.762 169.588 206.196L169.451 206.075C168.855 205.511 168.578 204.595 168.622 203.602C168.667 202.595 169.033 201.715 169.466 201.285L169.75 201.003C170.29 200.548 170.728 200.394 171.05 200.374Z" stroke="#003860" stroke-width="1.62167"/>
<path d="M21.1815 239.196C21.4125 239.175 21.7283 239.289 22.0966 239.804C22.8502 240.86 23.315 242.962 23.1396 244.908L23.1396 244.909C22.994 246.552 22.324 247.864 21.6036 248.449C21.2587 248.729 20.9546 248.805 20.7012 248.768C20.4759 248.735 20.1654 248.595 19.8096 248.183L19.6543 247.99C18.989 247.098 18.6832 245.632 18.7314 244.088C18.7797 242.54 19.1758 241.156 19.665 240.47L19.8417 240.222C20.465 239.425 20.9258 239.219 21.1815 239.196Z" stroke="#003860" stroke-width="1.62167"/>
<path d="M25.0715 247.105C26.0711 246.278 27.1025 245.941 27.7062 246.024L28.0675 246.073C28.811 246.238 29.2085 246.553 29.422 246.875C29.6786 247.263 29.7712 247.815 29.6467 248.516C29.3929 249.942 28.2991 251.595 27.014 252.495L27.0121 252.496C25.9519 253.242 24.8377 253.305 24.1136 252.948C23.4553 252.623 22.8889 251.829 23.1341 250.286L23.1341 250.284C23.3274 249.042 24.1007 247.908 25.0715 247.105Z" stroke="#003860" stroke-width="1.62167"/>
<path d="M13.8263 245.487C14.4468 245.509 15.3766 245.896 16.2668 246.689C17.2173 247.536 17.9604 248.706 18.1214 249.965L18.1223 249.967C18.3248 251.527 17.7351 252.287 17.0795 252.579C16.3974 252.883 15.3766 252.808 14.388 252.143L14.1908 252.003C12.921 251.042 11.8708 249.342 11.6555 247.906C11.5497 247.2 11.6585 246.656 11.9211 246.286C12.1713 245.933 12.6627 245.595 13.6408 245.505L13.8263 245.487Z" stroke="#003860" stroke-width="1.62167"/>
<path d="M17.9887 254.122C18.515 254.087 18.8667 254.243 19.1176 254.481C19.3872 254.736 19.6031 255.152 19.7114 255.723C19.9297 256.875 19.6578 258.424 18.8873 259.7C18.4353 260.445 17.845 261.1 17.2272 261.577C16.5997 262.062 15.9991 262.323 15.527 262.37C15.0997 262.413 14.7898 262.288 14.5514 261.96C14.3079 261.625 14.088 261.003 14.0601 259.943L14.0718 259.461C14.0951 258.497 14.5811 257.16 15.3754 256.033C16.1853 254.884 17.1484 254.182 17.9896 254.123L17.9887 254.122Z" stroke="#003860" stroke-width="1.62167"/>
<path d="M23.1259 254.802C23.5988 254.872 24.1948 255.163 24.8085 255.68C25.4127 256.189 25.9819 256.874 26.4092 257.643L26.4101 257.644C27.142 258.954 27.3646 260.52 27.1095 261.663C26.9831 262.229 26.7545 262.631 26.4816 262.87C26.2291 263.091 25.878 263.227 25.3537 263.164L25.3507 263.164C24.504 263.065 23.5602 262.313 22.7862 261.126C22.027 259.961 21.5823 258.6 21.5869 257.634L21.5869 257.619C21.5922 256.26 21.8627 255.52 22.1484 255.156C22.3901 254.848 22.6973 254.738 23.1259 254.802Z" stroke="#003860" stroke-width="1.62167"/>
<path d="M20.8661 248.933C21.2282 248.91 21.5714 249.049 21.8935 249.367C22.5807 250.046 23.0105 251.407 22.8496 252.66L22.8496 252.661C22.7212 253.679 22.1256 254.536 21.419 254.94C20.8057 255.291 20.0954 255.32 19.4044 254.755L19.2667 254.634C18.6713 254.07 18.3943 253.154 18.4385 252.16C18.4833 251.154 18.8489 250.273 19.2822 249.844L19.5663 249.561C20.1065 249.106 20.5445 248.952 20.8661 248.933Z" stroke="#003860" stroke-width="1.62167"/>
<path d="M21.957 17.591C22.6634 17.6451 23.4602 18.0999 24.2041 18.884C24.9364 19.6559 25.5314 20.6597 25.8526 21.6145C26.1868 22.6083 26.1652 23.3621 25.9484 23.7639L27.1671 24.7825C28.8303 23.4577 30.1444 23.2922 31.0294 23.5726C31.9253 23.8566 32.6295 24.6746 32.9191 25.8373C33.4713 28.0552 32.4127 31.3534 28.3255 32.886L27.9202 33.0286C27.6706 33.1108 27.4882 33.2789 27.3841 33.385C27.2617 33.5098 27.1434 33.6604 27.0306 33.8196C26.8034 34.14 26.548 34.5677 26.2737 35.0716C25.7228 36.084 25.0519 37.4805 24.3119 39.1203C22.8298 42.4045 21.0444 46.7213 19.3414 51.0245C17.6379 55.3287 16.0127 59.6299 14.8504 62.8867C14.2698 64.5136 13.8017 65.8883 13.4969 66.875C13.3454 67.3654 13.2289 67.7763 13.16 68.0801C13.1266 68.2277 13.0983 68.3788 13.0868 68.5117C13.0814 68.5746 13.0759 68.6717 13.0897 68.7783C13.0965 68.8306 13.1332 69.1504 13.4286 69.3701L13.4296 69.3711C16.5411 71.6802 17.4624 74.2578 17.252 76.2667C17.0381 78.3068 15.6647 79.8753 13.9141 80.2979C13.3732 80.4265 12.9293 80.3237 12.5294 80.0664C12.1046 79.793 11.7057 79.3265 11.3526 78.706C10.6439 77.4606 10.2439 75.8143 10.1386 74.6865L9.95014 72.6611L8.6943 74.2606C6.23008 77.3977 3.71294 77.6348 2.32716 76.8425C0.951523 76.0556 0.0952139 73.9128 1.60929 71.0193L1.61124 71.0164C1.94429 70.3739 2.58454 69.4321 3.32507 68.7264C3.69466 68.3742 4.0586 68.1098 4.39147 67.9608C4.71902 67.8141 4.9684 67.7988 5.1649 67.8563L6.12194 68.1366L6.19712 67.201C6.20022 67.1912 6.20394 67.1786 6.20884 67.1639C6.2325 67.0928 6.27027 66.9899 6.32211 66.8524C6.42548 66.5783 6.5775 66.1936 6.77327 65.7108C7.16423 64.7467 7.72143 63.4082 8.3943 61.8104C9.73975 58.6156 11.5413 54.396 13.3814 50.0859C17.05 41.4932 20.8994 32.4796 21.5491 30.6125L21.7014 30.1759L21.4026 29.8224C20.869 29.191 19.5521 27.8096 18.8195 25.881C18.1075 24.0064 17.9507 21.614 19.8155 18.9064L19.8155 18.9054C20.5723 17.8043 21.3227 17.5426 21.957 17.591Z" stroke="#003860" stroke-width="1.62167"/>
<path d="M170.03 72.0135C170.059 72.6475 169.983 73.3974 169.689 74.2039L170.731 74.8114C170.643 74.9271 170.568 75.034 170.519 75.1219L169.659 76.6814L171.4 76.3065C172.433 76.0842 173.09 76.0836 173.482 76.1484C173.439 76.1651 173.395 76.1836 173.349 76.2011C172.73 76.438 171.901 76.7314 171.064 77.0155C170.229 77.2992 169.395 77.5712 168.765 77.7664C168.761 77.7674 168.757 77.7683 168.754 77.7693C168.772 77.6474 168.791 77.5151 168.814 77.3748C168.961 76.5011 169.199 75.3545 169.466 74.2185C169.649 73.4398 169.845 72.6753 170.03 72.0135ZM175.575 71.5811C176.56 71.3697 177.194 71.3652 177.579 71.424C177.133 71.5966 176.559 71.8075 175.94 72.0235C174.868 72.3976 173.691 72.7832 172.868 73.0371L172.91 72.789C172.944 72.5838 172.983 72.3617 173.027 72.1269L175.575 71.5811ZM174.148 67.3047C174.174 67.8771 174.114 68.5419 173.887 69.2549L175.081 69.9473C174.987 70.0464 174.902 70.1413 174.821 70.2256L173.038 72.0713C173.272 70.8354 173.629 69.2608 173.98 67.9258C174.037 67.7104 174.093 67.5026 174.148 67.3047Z" stroke="#003860" stroke-width="1.62167"/>
<path d="M190.378 46.9486C191.089 46.9122 191.823 47.2369 192.47 48.0161C193.082 48.7547 193.593 49.8842 193.849 51.3843L193.897 51.689C194.113 53.1981 193.913 55.2892 193.403 57.7319C192.896 60.1571 192.1 62.8584 191.18 65.557C189.544 70.3561 187.53 75.1009 186.1 78.1916C185.721 77.7584 185.224 77.1723 184.651 76.4571C183.332 74.8101 181.612 72.4952 179.967 69.83C178.321 67.1618 176.763 64.1619 175.75 61.1432C174.799 58.3068 174.348 55.5048 174.717 52.9655L174.801 52.4616C175.304 49.8302 176.15 48.9137 176.837 48.6511C177.547 48.3798 178.516 48.6342 179.677 49.4051C180.796 50.1486 181.883 51.2357 182.699 52.1768C183.104 52.6432 183.434 53.0624 183.657 53.3692C183.77 53.5237 183.851 53.6434 183.9 53.7217C183.912 53.7406 183.921 53.7556 183.928 53.7667C183.934 53.7772 183.937 53.7823 183.937 53.7823C183.936 53.7815 183.934 53.7772 183.931 53.7706C183.928 53.7644 183.923 53.7522 183.916 53.7354C183.91 53.7201 183.9 53.6889 183.89 53.6475C183.882 53.6149 183.862 53.5251 183.871 53.4083L185.462 53.6837C186.125 51.2579 186.988 49.5673 187.881 48.4876C188.774 47.4078 189.653 46.9858 190.378 46.9486Z" stroke="#003860" stroke-width="1.62167"/>
<path d="M199.302 43.6902C199.072 44.4558 198.758 45.4676 198.434 46.4772C198.11 47.4876 197.778 48.4908 197.515 49.2419C197.484 49.3305 197.452 49.4145 197.423 49.4948C197.274 49.2811 197.119 49.0375 196.96 48.7819C196.795 48.5155 196.619 48.2277 196.458 47.985L196.019 47.3219L195.717 47.5133L195.769 47.4517L195.475 46.9576C194.935 46.05 194.476 45.3556 194.153 44.855C194.074 44.7342 194.006 44.6275 193.946 44.5327C194.033 44.5006 194.13 44.464 194.238 44.4282C194.886 44.2148 195.784 43.9852 196.71 43.7877C197.635 43.5904 198.559 43.4303 199.253 43.3513C199.305 43.3454 199.355 43.3415 199.403 43.3367C199.371 43.4465 199.339 43.5653 199.302 43.6902Z" stroke="#003860" stroke-width="1.62167"/>
<path d="M110.345 239.741C114.539 237.497 118.663 237.924 121.943 239.437C125.27 240.971 127.617 243.566 128.276 245.474L128.441 245.952L128.942 246.014C129.092 246.033 129.213 246.007 129.27 245.993C129.335 245.976 129.389 245.955 129.426 245.939C129.498 245.908 129.566 245.871 129.616 245.842C129.718 245.784 129.85 245.7 129.979 245.621C130.25 245.452 130.61 245.234 131.059 245.011C131.956 244.567 133.203 244.112 134.738 244.054L134.743 244.054C135.976 244 137.685 244.518 138.938 245.782C140 246.854 140.782 248.511 140.59 250.943C139.941 250.329 138.829 249.442 137.363 249.704L137.358 249.705C136.808 249.807 136.488 250.23 136.313 250.537C136.124 250.867 135.98 251.276 135.858 251.683C135.733 252.096 135.613 252.57 135.49 253.042C135.365 253.522 135.234 254.014 135.081 254.499C134.771 255.482 134.394 256.354 133.875 256.965C133.387 257.54 132.778 257.882 131.901 257.855L130.951 257.826L131.072 258.768C131.922 265.402 131.891 268.81 131.411 271.136C130.927 273.48 130.015 274.709 128.827 277.27L128.826 277.273C127.762 279.591 126.328 280.664 124.807 280.751C123.235 280.842 121.229 279.908 118.995 277.422L118.036 276.356L117.617 277.728C117.306 278.746 116.816 279.332 116.303 279.662C115.782 279.997 115.162 280.116 114.515 280.062C113.864 280.009 113.22 279.782 112.703 279.47C112.169 279.146 111.864 278.788 111.766 278.541L111.077 276.815L110.28 278.494C109.264 280.633 107.724 281.834 106.094 282.235C104.459 282.637 102.629 282.26 100.984 281.036C97.7005 278.592 95.1146 272.679 97.0367 263.141C97.7013 259.862 98.3638 258.313 98.7338 257.538C98.7813 257.439 98.8251 257.35 98.8656 257.268C98.905 257.188 98.9442 257.109 98.9779 257.037C99.0343 256.918 99.1245 256.725 99.1566 256.518C99.2007 256.232 99.1358 255.928 98.9163 255.676C98.7625 255.5 98.5626 255.391 98.4544 255.333L98.4554 255.333C97.8816 255.023 97.1935 254.883 96.6565 254.768C96.0623 254.641 95.6105 254.537 95.263 254.353C94.966 254.194 94.7778 253.994 94.6907 253.631C94.59 253.211 94.6078 252.498 94.9738 251.304L94.9728 251.303C95.6981 248.972 96.2062 246.845 96.2305 245.092C96.2505 243.636 95.9338 242.314 95.0194 241.377C95.7966 240.492 96.5485 240.064 97.2254 239.895C98.0382 239.692 98.8564 239.835 99.6463 240.198C100.442 240.565 101.174 241.14 101.765 241.733C102.359 242.329 102.77 242.901 102.942 243.218L103.205 243.704L103.753 243.636C104.269 243.573 104.826 243.312 105.335 243.025C105.866 242.726 106.444 242.339 107.02 241.94C108.206 241.119 109.371 240.257 110.342 239.742L110.345 239.741Z" stroke="#003860" stroke-width="1.62167"/>
<path d="M97.6847 244.847C98.3181 245.229 98.9577 245.666 99.4739 246.286C100.506 247.526 101.269 249.768 99.4565 254.463C98.8238 254.507 97.9311 254.31 97.2993 253.694C96.605 253.017 96.0295 251.619 96.9739 248.851C97.344 247.775 97.617 246.643 97.6789 245.568C97.6928 245.328 97.6938 245.087 97.6847 244.847Z" stroke="#003860" stroke-width="1.62167"/>
<path d="M134.75 248.676C135.428 248.549 136.167 248.682 136.806 248.946C136.819 248.951 136.832 248.958 136.845 248.963C136.759 249.015 136.677 249.069 136.598 249.128C136.076 249.523 135.782 250.041 135.59 250.547C135.406 251.032 135.291 251.582 135.182 252.039C135.066 252.524 134.946 252.962 134.754 253.364L134.753 253.366C134.112 254.719 133.604 255.499 133.22 255.909C133.013 256.129 132.891 256.193 132.838 256.21C132.795 256.178 132.671 256.068 132.498 255.743C132.318 255.403 132.158 254.974 131.999 254.516C132.025 252.3 132.422 250.892 132.942 250.023C133.454 249.165 134.103 248.798 134.75 248.676Z" stroke="#003860" stroke-width="1.62167"/>
<path d="M110.457 257.871C110.669 257.81 110.971 257.866 111.414 258.474C111.835 259.051 112.18 259.877 112.426 260.608C112.458 260.702 112.485 260.794 112.513 260.882L112.317 260.882L112.834 262.027C112.957 262.298 113.098 262.521 113.213 262.699C113.335 262.886 113.413 263.004 113.479 263.131L113.48 263.131C113.481 263.135 113.505 263.197 113.522 263.354C113.538 263.513 113.543 263.724 113.531 263.99C113.509 264.52 113.427 265.203 113.297 265.997C113.037 267.58 112.599 269.529 112.124 271.436C111.651 273.339 111.146 275.187 110.757 276.562C110.563 277.249 110.398 277.817 110.281 278.215C110.222 278.414 110.175 278.569 110.143 278.675C110.135 278.703 110.127 278.726 110.121 278.746C109.313 280.127 108.477 281.19 107.441 281.809C106.427 282.415 105.124 282.654 103.253 282.161L103.252 282.161C101.015 281.572 99.4878 279.928 98.4606 278.127C97.7688 276.913 97.3305 275.668 97.0679 274.727C98.5696 274.882 99.7953 274.777 100.824 274.359C102.143 273.824 103.008 272.831 103.709 271.565C104.396 270.326 104.975 268.726 105.664 266.901C106.363 265.053 107.201 262.902 108.42 260.456L108.42 260.455C108.881 259.529 109.297 258.898 109.658 258.486C110.022 258.07 110.293 257.919 110.457 257.871Z" stroke="#003860" stroke-width="1.62167"/>
<path d="M117.785 257.893C118.286 257.409 118.637 257.357 118.93 257.478C119.305 257.633 119.882 258.165 120.55 259.581L120.749 260.044C121.84 262.602 122.544 264.647 123.119 266.288C123.683 267.897 124.149 269.206 124.762 270.166C125.415 271.19 126.249 271.844 127.497 272.157C128.448 272.396 129.625 272.43 131.111 272.343C130.857 273.44 130.461 274.976 129.777 276.463C128.813 278.56 127.391 280.314 125.247 280.689C123.422 281.007 122.025 280.521 120.892 279.626C119.746 278.72 118.848 277.376 118.114 275.931C118.017 275.539 117.324 272.733 116.684 269.66C116.341 268.009 116.018 266.304 115.815 264.883C115.714 264.172 115.644 263.543 115.616 263.034C115.594 262.634 115.6 262.352 115.621 262.175L115.645 262.033C115.761 261.575 116.03 260.787 116.416 259.974C116.807 259.151 117.282 258.378 117.785 257.893Z" stroke="#003860" stroke-width="1.62167"/>
<path d="M127.673 269.15C127.99 269.19 128.309 269.197 128.626 269.178C128.349 269.271 128.106 269.281 127.893 269.244C127.768 269.222 127.644 269.181 127.521 269.125C127.572 269.134 127.622 269.143 127.673 269.15Z" stroke="#003860" stroke-width="1.62167"/>
<mask id="path-65-inside-11_1_721" fill="white">
<path fill-rule="evenodd" clip-rule="evenodd" d="M102.222 267.098C102.075 269.814 99.9427 271.47 98.047 271.908C97.7988 271.965 98.2276 273.012 100.033 272.63C102.583 272.107 102.933 268.598 102.301 267.282L102.222 267.112L102.222 267.098Z"/>
</mask>
<path d="M102.222 267.098L103.844 267.098L100.603 267.01L102.222 267.098ZM98.047 271.908L98.4076 273.489L98.4127 273.488L98.047 271.908ZM100.033 272.63L99.7068 271.041L99.6973 271.043L100.033 272.63ZM102.301 267.282L100.831 267.966L100.835 267.975L100.839 267.984L102.301 267.282ZM102.222 267.112L100.6 267.112L100.6 267.471L100.752 267.796L102.222 267.112ZM102.222 267.098L100.603 267.01C100.505 268.815 99.0788 270.005 97.6814 270.328L98.047 271.908L98.4127 273.488C100.807 272.934 103.645 270.814 103.841 267.185L102.222 267.098ZM98.047 271.908L97.6865 270.327C96.9595 270.493 96.5467 271.057 96.4158 271.57C96.3039 272.008 96.3853 272.387 96.4608 272.613C96.6223 273.096 96.9503 273.477 97.3117 273.742C98.0874 274.31 99.155 274.473 100.369 274.217L100.033 272.63L99.6973 271.043C99.1056 271.169 99.0561 270.999 99.2281 271.125C99.2876 271.169 99.4422 271.302 99.5366 271.584C99.5787 271.71 99.6532 272.001 99.5583 272.373C99.4444 272.819 99.0725 273.338 98.4076 273.489L98.047 271.908ZM100.033 272.63L100.359 274.219C102.435 273.793 103.491 272.149 103.915 270.713C104.322 269.336 104.299 267.696 103.763 266.58L102.301 267.282L100.839 267.984C100.935 268.183 101.053 268.956 100.805 269.793C100.575 270.571 100.181 270.944 99.7069 271.041L100.033 272.63ZM102.301 267.282L103.771 266.598L103.692 266.428L102.222 267.112L100.752 267.796L100.831 267.966L102.301 267.282ZM102.222 267.112L103.844 267.112L103.844 267.098L102.222 267.098L100.6 267.098L100.6 267.112L102.222 267.112Z" fill="#003860" mask="url(#path-65-inside-11_1_721)"/>
<path d="M104.885 250.099C105.354 249.852 105.755 249.788 106.013 249.842C106.196 249.881 106.415 249.995 106.554 250.473L106.555 250.476C106.566 250.514 106.573 250.548 106.581 250.578C106.566 250.578 106.55 250.581 106.533 250.58C106.345 250.575 106.119 250.548 105.835 250.513C105.44 250.464 104.929 250.395 104.414 250.4C104.563 250.287 104.722 250.185 104.885 250.099Z" stroke="#003860" stroke-width="1.62167"/>
<path d="M124.642 248.909C124.905 248.854 125.308 248.919 125.776 249.165C125.89 249.225 126.003 249.293 126.11 249.367L126.235 249.457C125.72 249.452 125.21 249.52 124.814 249.569C124.53 249.604 124.303 249.631 124.113 249.637C124.096 249.638 124.079 249.635 124.063 249.635C124.07 249.608 124.078 249.578 124.088 249.545C124.231 249.067 124.454 248.948 124.642 248.909Z" stroke="#003860" stroke-width="1.62167"/>
<path d="M113.377 260.254C114.117 260.159 115.283 260.212 116.172 260.589C116.645 260.79 116.97 261.053 117.147 261.361C117.314 261.651 117.409 262.085 117.224 262.77C117.116 263.171 117.014 263.422 116.933 263.572C116.835 263.481 116.724 263.356 116.594 263.199C116.46 263.039 116.276 262.807 116.117 262.642C116.035 262.556 115.923 262.448 115.789 262.36C115.667 262.281 115.415 262.145 115.089 262.186C114.715 262.232 114.484 262.473 114.365 262.671C114.256 262.852 114.203 263.053 114.172 263.22C114.123 263.477 114.099 263.808 114.094 264.215L114.094 264.647C114.097 264.906 114.071 265.087 114.041 265.208C114.031 265.196 114.02 265.184 114.01 265.171C114.009 265.17 114.008 265.168 114.007 265.166C114.004 265.161 114.001 265.155 113.996 265.146C113.987 265.129 113.974 265.106 113.961 265.075C113.934 265.013 113.906 264.932 113.878 264.836C113.821 264.642 113.773 264.416 113.734 264.196C113.696 263.979 113.67 263.781 113.651 263.642C113.643 263.582 113.633 263.507 113.625 263.458C113.623 263.445 113.618 263.417 113.61 263.387C113.607 263.372 113.599 263.341 113.586 263.304C113.585 263.302 113.54 263.158 113.419 263.025C113.356 262.957 113.158 262.765 112.828 262.762C112.473 262.758 112.26 262.972 112.182 263.071C112.104 263.171 112.068 263.266 112.056 263.301C112.04 263.345 112.031 263.383 112.026 263.404C112.019 263.439 112.016 263.471 112.014 263.496L112.011 263.496C111.988 263.727 111.926 263.83 111.9 263.863C111.887 263.88 111.879 263.884 111.879 263.885C111.878 263.885 111.878 263.885 111.876 263.886C111.866 263.887 111.717 263.886 111.578 263.673C111.384 263.374 111.086 262.157 113.377 260.254ZM113.627 263.635C113.627 263.639 113.625 263.651 113.624 263.665C113.623 263.672 113.62 263.687 113.617 263.708C113.619 263.69 113.622 263.672 113.624 263.653L113.356 263.627L113.627 263.635Z" stroke="#003860" stroke-width="1.62167"/>
<path d="M120.914 277.019C121.505 277.713 122.211 278.323 123.035 278.707C122.603 278.642 122.245 278.486 121.94 278.264C121.548 277.981 121.208 277.564 120.914 277.019Z" stroke="#003860" stroke-width="1.62167"/>
<path d="M108.418 277.841C108.122 278.386 107.781 278.802 107.389 279.084C107.084 279.303 106.727 279.456 106.296 279.518C107.12 279.139 107.826 278.533 108.418 277.841Z" stroke="#003860" stroke-width="1.62167"/>
<path d="M126.175 259.727C126.167 259.802 126.147 259.887 126.114 259.975C126.124 259.909 126.138 259.841 126.159 259.773C126.164 259.757 126.17 259.742 126.175 259.727Z" stroke="#003860" stroke-width="1.62167"/>
<path d="M102.366 259.339C102.36 259.43 102.332 259.541 102.28 259.658C102.293 259.557 102.32 259.451 102.36 259.352C102.362 259.348 102.364 259.343 102.366 259.339Z" stroke="#003860" stroke-width="1.62167"/>
<path d="M153.423 138.318L153.033 138.146C152.987 138.103 152.92 138.039 152.831 137.949C152.644 137.761 152.383 137.488 152.054 137.137C151.398 136.436 150.49 135.445 149.408 134.252C147.243 131.867 144.389 128.688 141.475 125.44C135.669 118.971 129.568 112.168 128.267 110.935L127.746 110.443L127.193 110.898C126.559 111.421 125.222 112.66 123.629 113.084C122.866 113.286 122.084 113.287 121.308 112.936C120.523 112.581 119.651 111.825 118.798 110.341C117.47 108.031 118.344 105.85 119.871 104.435C120.638 103.724 121.519 103.264 122.259 103.111C123.016 102.954 123.424 103.14 123.611 103.397L125.05 102.708C124.395 100.312 124.548 98.4941 125.049 97.2994C125.548 96.1082 126.37 95.5573 127.144 95.4918C127.919 95.4264 128.895 95.8266 129.736 97.0602C130.58 98.2982 131.247 100.338 131.299 103.345L131.299 103.346C131.303 103.561 131.364 103.761 131.424 103.916C131.487 104.081 131.573 104.254 131.671 104.428C131.866 104.778 132.138 105.188 132.467 105.641C133.126 106.551 134.055 107.696 135.156 108.981C137.361 111.556 140.294 114.741 143.235 117.822C146.178 120.904 149.137 123.89 151.394 126.069C152.521 127.157 153.482 128.052 154.181 128.658C154.527 128.958 154.826 129.203 155.058 129.366C155.167 129.444 155.298 129.528 155.43 129.587C155.49 129.614 155.609 129.663 155.758 129.677C155.903 129.69 156.26 129.681 156.513 129.357L156.516 129.353C159.091 126.007 161.161 125.717 162.395 126.311C163.754 126.965 164.778 128.953 164.688 131.475L164.688 131.476C164.632 133.109 163.815 134.019 162.798 134.534C161.729 135.074 160.433 135.167 159.602 135.045L158.068 134.821L158.758 136.208C160.632 139.975 160.314 143.374 159.235 145.109C158.7 145.968 158.043 146.342 157.422 146.343C156.831 146.344 156.029 146.006 155.153 144.926L154.976 144.699C154.561 144.147 153.972 143.141 153.587 142.047C153.193 140.923 153.077 139.886 153.366 139.161L153.423 139.017L153.423 138.318Z" stroke="#003860" stroke-width="1.62167"/>
<path d="M146.928 361.358L146.537 361.185C146.491 361.142 146.424 361.078 146.335 360.988C146.148 360.8 145.887 360.527 145.558 360.176C144.902 359.475 143.995 358.484 142.912 357.291C140.747 354.906 137.894 351.727 134.979 348.479C129.173 342.01 123.072 335.207 121.771 333.974L121.25 333.482L120.698 333.937C120.063 334.46 118.726 335.7 117.133 336.123C116.371 336.325 115.589 336.326 114.812 335.975C114.027 335.62 113.155 334.864 112.302 333.38C110.974 331.07 111.849 328.889 113.375 327.474C114.142 326.763 115.023 326.303 115.763 326.15C116.52 325.993 116.929 326.179 117.115 326.436L118.554 325.747C117.899 323.351 118.052 321.533 118.553 320.338C119.052 319.147 119.874 318.596 120.649 318.531C121.423 318.466 122.399 318.866 123.24 320.099C124.084 321.337 124.751 323.377 124.803 326.385L124.803 326.385C124.807 326.6 124.869 326.801 124.928 326.955C124.992 327.12 125.078 327.293 125.175 327.468C125.37 327.817 125.642 328.227 125.971 328.68C126.63 329.59 127.56 330.735 128.661 332.02C130.865 334.595 133.798 337.78 136.74 340.861C139.682 343.943 142.641 346.929 144.898 349.109C146.025 350.197 146.986 351.092 147.685 351.697C148.031 351.997 148.331 352.242 148.562 352.405C148.672 352.483 148.803 352.567 148.934 352.626C148.994 352.653 149.113 352.702 149.262 352.716C149.407 352.73 149.764 352.72 150.017 352.396L150.02 352.392C152.595 349.046 154.666 348.756 155.899 349.35C157.258 350.004 158.282 351.992 158.192 354.514L158.192 354.515C158.136 356.14 157.32 357.051 156.302 357.568C155.231 358.11 153.936 358.206 153.106 358.084L151.572 357.86L152.263 359.247C154.136 363.014 153.818 366.413 152.739 368.148C152.205 369.007 151.547 369.381 150.927 369.382C150.335 369.383 149.534 369.045 148.657 367.965L148.48 367.739C148.065 367.186 147.476 366.18 147.092 365.086C146.697 363.962 146.581 362.925 146.87 362.2L146.928 362.056L146.928 361.358Z" stroke="#003860" stroke-width="1.62167"/>
<path d="M194.111 263.187C194.712 262.74 195.481 262.478 196.459 262.535L196.818 262.584C199.096 262.887 200.426 264.557 200.93 266.654C201.41 268.656 201.081 270.856 200.205 272.236L200.023 272.501C199.256 273.526 197.963 274.157 196.656 274.162C195.382 274.166 194.098 273.575 193.275 272.131C192.152 270.151 191.919 267.519 192.574 265.5C192.899 264.499 193.425 263.699 194.111 263.187Z" stroke="#003860" stroke-width="1.62167"/>
<path d="M95.4228 168.411C96.023 167.964 96.7925 167.702 97.7704 167.759L98.1298 167.808C100.407 168.111 101.738 169.781 102.241 171.878C102.722 173.88 102.392 176.08 101.517 177.46L101.334 177.725C100.568 178.75 99.2745 179.381 97.9679 179.386C96.6933 179.39 95.4091 178.799 94.586 177.356C93.4639 175.375 93.2309 172.743 93.8857 170.724C94.21 169.724 94.7359 168.923 95.4228 168.411Z" stroke="#003860" stroke-width="1.62167"/>
<path d="M52.8366 83.8669C53.4368 83.4199 54.2063 83.1578 55.1842 83.2146L55.5436 83.2635C57.8212 83.567 59.1515 85.2366 59.655 87.3339C60.1354 89.3353 59.806 91.5354 58.9305 92.9159L58.7479 93.1805C57.9817 94.2057 56.6883 94.8372 55.3817 94.8416C54.1071 94.8459 52.8229 94.2551 51.9998 92.8113C50.8777 90.8309 50.6447 88.1987 51.2995 86.1794C51.6239 85.1792 52.1497 84.3786 52.8366 83.8669Z" stroke="#003860" stroke-width="1.62167"/>
</g>
<use xlink:href="#Repeat%20group%201_3_inner" transform="translate(201.962)"/>
<use xlink:href="#Repeat%20group%201_3_inner" transform="translate(403.923)"/>
<use xlink:href="#Repeat%20group%201_3_inner" transform="translate(605.885)"/>
<use xlink:href="#Repeat%20group%201_3_inner" transform="translate(807.847)"/>
<use xlink:href="#Repeat%20group%201_3_inner" transform="translate(1009.81)"/>
<use xlink:href="#Repeat%20group%201_3_inner" transform="translate(1211.77)"/>
<use xlink:href="#Repeat%20group%201_3_inner" transform="translate(1413.73)"/>
<use xlink:href="#Repeat%20group%201_3_inner" transform="translate(1615.69)"/>
<use xlink:href="#Repeat%20group%201_3_inner" transform="translate(1817.65)"/>
</g>
</g>
<use xlink:href="#Repeat%20group%201_2_inner" transform="translate(0 370.193)"/>
<use xlink:href="#Repeat%20group%201_2_inner" transform="translate(0 740.386)"/>
<use xlink:href="#Repeat%20group%201_2_inner" transform="translate(0 1110.58)"/>
<path d="M1923.59 900H-121.889C-124.316 900 -126.445 898.382 -127.096 896.044L-372.092 15.8551C-373.051 12.4101 -370.46 9 -366.884 9L1923.59 9C1926.58 9 1929 11.4201 1929 14.4056V894.594C1929 897.58 1926.58 900 1923.59 900Z" stroke="white" stroke-width="4.865" stroke-dasharray="32.43 32.43"/>
</g>
<defs>
<clipPath id="clip0_1_721">
<rect width="1554" height="910" fill="white"/>
</clipPath>
</defs>
</svg>
