<svg width="4218" height="1024" viewBox="0 0 4218 1024" fill="none" xmlns="http://www.w3.org/2000/svg" xmlns:xlink="http://www.w3.org/1999/xlink">
<g id="Repeat group 1_inner" data-figma-trr="l4u1-0f_l2u0.85-0f">
<g clip-path="url(#clip0_1209_28665)">
<g style="mix-blend-mode:overlay">
<g id="Repeat group 1_2_inner" data-figma-trr="l10u1-0f">
<path d="M0.615166 113.472C1.03074 113.441 1.58208 113.627 2.20395 114.408C2.83276 115.197 3.46289 116.519 3.97704 118.522C4.48865 120.516 4.87295 123.138 5.0418 126.482L5.10225 127.68L6.19213 127.176C9.04582 125.858 10.9083 125.883 12.5916 126.165L12.5936 126.165C15.0813 126.575 16.6126 127.135 17.7087 127.841C18.7967 128.542 19.5222 129.426 20.3432 130.626L21.1566 131.814L21.7504 130.502C23.2994 127.086 26.4407 125.328 31.7383 123.766C34.0553 123.083 35.3603 123.223 36.0313 123.621C36.6247 123.973 36.9546 124.685 36.8641 125.924C36.7739 127.158 36.2659 128.718 35.437 130.386C34.6139 132.043 33.5014 133.756 32.2579 135.288L32.2569 135.289C30.996 136.848 29.1351 137.963 27.4919 138.796C27.0852 139.002 26.6971 139.189 26.3376 139.36C25.982 139.53 25.6456 139.689 25.36 139.833C25.0799 139.974 24.8116 140.12 24.6012 140.266C24.496 140.34 24.379 140.431 24.2769 140.542C24.1834 140.643 24.0461 140.821 23.9956 141.071C23.2336 144.779 22.6585 147.783 21.9705 150.158C21.2798 152.541 20.5139 154.14 19.4613 155.124C18.451 156.069 17.071 156.541 14.9026 156.411C12.7046 156.28 9.78357 155.533 5.80802 154.117L5.80314 154.116L5.36077 153.978C4.18289 153.637 2.027 153.151 -0.285553 152.01C-2.87625 150.732 -5.36162 148.749 -6.25376 145.567L-6.25278 145.567C-6.76046 143.742 -6.46052 141.543 -5.64775 139.189C-4.84168 136.853 -3.56458 134.459 -2.23603 132.283C-2.19392 132.226 -2.07916 132.069 -2.00456 131.936C-1.95179 131.842 -1.88005 131.698 -1.84144 131.528C-1.80408 131.363 -1.77355 131.059 -1.95856 130.759L-1.97418 130.734L-2.15189 130.443C-2.55331 129.719 -2.86768 128.695 -3.0657 127.452C-3.28948 126.046 -3.35405 124.429 -3.26062 122.79C-3.07114 119.468 -2.2455 116.257 -0.968912 114.572C-0.393983 113.814 0.166782 113.507 0.615166 113.472Z" stroke="#003860" stroke-width="1.62167"/>
<path d="M7.38365 146.553C7.44664 146.88 7.52554 147.252 7.63356 147.584C7.69558 147.775 7.7857 148.014 7.92648 148.235C7.90422 148.297 7.87515 148.372 7.83661 148.46C7.67484 148.831 7.4076 149.318 7.08357 149.794C6.75658 150.275 6.39989 150.702 6.07175 150.982C5.75631 151.25 5.61074 151.263 5.602 151.267C5.12273 151.153 4.87952 150.919 4.771 150.581C4.64132 150.178 4.65372 149.47 5.09834 148.355C5.1507 148.224 5.24318 148.121 5.49095 147.964C5.68715 147.84 6.17594 147.585 6.54081 147.287L6.54765 147.281C6.85511 147.025 7.12858 146.69 7.35241 146.396C7.36199 146.447 7.37322 146.499 7.38365 146.553Z" stroke="#003860" stroke-width="1.62167"/>
<mask id="path-3-inside-1_1209_28665" fill="white">
<path fill-rule="evenodd" clip-rule="evenodd" d="M7.12831 146.976C7.02743 147.146 5.63751 150.249 5.53667 150.011C5.48065 149.875 5.67125 148.867 6.08597 148.154C6.51189 147.406 7.15073 146.93 7.12831 146.987L7.12831 146.976Z"/>
</mask>
<path d="M7.12831 146.976L8.74998 146.976L8.75048 141.067L5.73393 146.148L7.12831 146.976ZM5.53667 150.011L4.03736 150.629L4.04046 150.637L4.04364 150.644L5.53667 150.011ZM6.08597 148.154L7.48807 148.969L7.49496 148.956L6.08597 148.154ZM7.12831 146.987L5.50664 146.987L8.63612 147.584L7.12831 146.987ZM7.12831 146.976L5.73393 146.148C5.67266 146.251 5.59873 146.409 5.57054 146.468C5.52053 146.574 5.45538 146.712 5.38331 146.866C5.237 147.178 5.05485 147.565 4.87377 147.938C4.68893 148.318 4.52041 148.652 4.39969 148.867C4.33045 148.99 4.31508 149.006 4.34286 148.969C4.35383 148.955 4.38233 148.919 4.42663 148.872C4.46122 148.836 4.561 148.735 4.71913 148.638C4.83977 148.563 5.27162 148.316 5.86263 148.433C6.56948 148.572 6.90869 149.093 7.02971 149.378L5.53667 150.011L4.04364 150.644C4.17095 150.944 4.51898 151.474 5.23701 151.615C5.83921 151.733 6.2846 151.483 6.42099 151.399C6.71273 151.219 6.8871 150.981 6.91689 150.943C7.04038 150.781 7.15093 150.592 7.22775 150.455C7.39916 150.15 7.60333 149.742 7.79119 149.355C7.9828 148.96 8.17335 148.555 8.31917 148.244C8.39317 148.087 8.45394 147.957 8.49964 147.861C8.56716 147.719 8.55874 147.743 8.52269 147.804L7.12831 146.976ZM5.53667 150.011L7.03598 149.393C7.08108 149.503 7.10484 149.596 7.11769 149.655C7.13115 149.718 7.13805 149.77 7.14182 149.806C7.14914 149.876 7.14897 149.926 7.14865 149.947C7.14799 149.989 7.14484 150.002 7.14826 149.976C7.15444 149.929 7.17153 149.834 7.20496 149.704C7.23757 149.578 7.28058 149.439 7.33202 149.305C7.38419 149.168 7.43817 149.054 7.48802 148.968L6.08597 148.154L4.68391 147.339C4.3777 147.866 4.17969 148.448 4.06462 148.894C4.00557 149.122 3.95959 149.349 3.93283 149.552C3.91978 149.65 3.90769 149.77 3.90571 149.896C3.90503 149.939 3.89069 150.273 4.03736 150.629L5.53667 150.011ZM6.08597 148.154L7.49496 148.956C7.61417 148.747 7.77519 148.559 7.90844 148.429C7.93969 148.398 7.96644 148.374 7.98695 148.356C8.0083 148.337 8.01899 148.329 8.01773 148.33C8.01708 148.331 8.0093 148.337 7.99513 148.346C7.98471 148.353 7.9505 148.377 7.8998 148.405C7.87484 148.419 7.82783 148.445 7.76539 148.472C7.72343 148.49 7.5771 148.553 7.37561 148.585C7.27513 148.601 7.07076 148.623 6.81853 148.575C6.54862 148.522 6.14597 148.368 5.84022 147.968C5.53936 147.575 5.49676 147.158 5.50917 146.905C5.52105 146.663 5.58482 146.48 5.62049 146.39L7.12831 146.987L8.63612 147.584C8.6725 147.492 8.73665 147.308 8.74859 147.064C8.76106 146.811 8.7182 146.393 8.41678 145.998C8.11047 145.598 7.70694 145.443 7.43586 145.391C7.18245 145.341 6.9766 145.364 6.87435 145.38C6.6693 145.412 6.51824 145.477 6.47041 145.498C6.4021 145.528 6.34809 145.557 6.31506 145.575C6.19867 145.641 6.10236 145.712 6.05186 145.75C5.92736 145.845 5.78631 145.968 5.6421 146.109C5.35505 146.389 4.9837 146.812 4.67697 147.351L6.08597 148.154ZM7.12831 146.987L8.74998 146.987L8.74998 146.976L7.12831 146.976L5.50664 146.976L5.50664 146.987L7.12831 146.987Z" fill="#003860" mask="url(#path-3-inside-1_1209_28665)"/>
<path d="M7.91009 137.584C8.38259 137.56 8.93058 137.621 9.4755 137.76C10.0204 137.899 10.5335 138.11 10.9442 138.365C11.3105 138.592 11.5548 138.829 11.6902 139.045L11.742 139.137L11.742 139.182C11.7372 139.233 11.7164 139.319 11.657 139.44C11.5356 139.687 11.2962 139.993 10.9489 140.303C10.2421 140.934 9.29103 141.406 8.54355 141.467L8.49667 141.47L8.24571 141.294C7.53881 140.798 6.98086 139.985 6.74882 139.219C6.50186 138.403 6.6947 137.992 6.90616 137.846L6.90714 137.845C7.09093 137.718 7.42388 137.608 7.91009 137.584Z" stroke="#003860" stroke-width="1.62167"/>
<path d="M20.9452 134.532C20.9922 134.533 21.0405 134.545 21.1034 134.593C21.236 134.693 21.3925 134.926 21.4999 135.28L21.5067 135.31C21.3705 135.198 21.237 135.096 21.1161 135.007C20.9094 134.854 20.7527 134.741 20.6298 134.642C20.7939 134.547 20.8966 134.532 20.9452 134.532Z" stroke="#003860" stroke-width="1.62167"/>
<path d="M2.32513 129.857C2.40338 129.851 2.45134 129.867 2.49212 129.894C2.53423 129.921 2.61136 129.991 2.69815 130.159C2.54273 130.174 2.35189 130.183 2.09951 130.196C1.94457 130.205 1.77104 130.215 1.58974 130.235L1.60146 130.223C1.89312 129.978 2.15716 129.868 2.32513 129.857Z" stroke="#003860" stroke-width="1.62167"/>
<path d="M0.851481 114.943C1.03468 115.215 1.25565 115.643 1.49591 116.207C1.97239 117.326 2.47275 118.851 2.87348 120.397C3.27528 121.947 3.56474 123.473 3.63875 124.6C3.67643 125.174 3.65301 125.58 3.5947 125.819C3.59299 125.826 3.58951 125.832 3.58786 125.838C3.32942 125.895 3.0122 126.002 2.70503 126.117C2.26063 126.282 1.72273 126.509 1.16591 126.774C0.600732 127.042 -0.0127511 127.363 -0.579286 127.714C-0.520425 127.496 -0.436817 127.323 -0.344866 127.182C-0.0871586 126.787 0.309062 126.525 0.773374 126.282C0.9608 126.185 1.27406 126.035 1.46481 125.929C1.65759 125.822 1.97403 125.634 2.17092 125.325C2.28422 125.146 2.35925 124.928 2.35456 124.68C2.35 124.442 2.27312 124.234 2.17884 124.066C2.00266 123.751 1.70224 123.464 1.35762 123.189L1.35664 123.189C-0.476349 121.728 -1.00314 119.617 -0.790363 117.816C-0.683671 116.912 -0.394231 116.127 -0.0284555 115.579C0.256732 115.152 0.541562 114.931 0.774341 114.839C0.796309 114.868 0.823585 114.901 0.851481 114.943Z" stroke="#003860" stroke-width="1.62167"/>
<path d="M33.8866 125.495C33.9705 125.69 33.9981 126.008 33.8416 126.492C33.646 127.098 33.2003 127.816 32.526 128.492C31.1771 129.845 29.071 130.884 26.7212 130.587L26.7222 130.587C26.2876 130.532 25.8721 130.516 25.5239 130.611C25.3369 130.661 25.1338 130.754 24.9604 130.921C24.7803 131.095 24.679 131.304 24.6342 131.51C24.5567 131.866 24.6471 132.221 24.7074 132.434C24.7667 132.643 24.8826 132.975 24.9456 133.178C25.1021 133.683 25.1957 134.155 25.0978 134.62C25.0642 134.78 25.0029 134.954 24.8985 135.141C24.7478 134.492 24.5459 133.829 24.3391 133.238C24.134 132.652 23.9152 132.108 23.7201 131.674C23.5743 131.349 23.4109 131.023 23.2592 130.796C23.2718 130.767 23.2907 130.729 23.3188 130.68C23.4683 130.419 23.7793 130.054 24.2652 129.623C25.2235 128.773 26.6923 127.811 28.324 127.04L28.324 127.039C29.6157 126.427 31.0654 125.959 32.2323 125.704C32.8179 125.576 33.3062 125.507 33.6533 125.494C33.7506 125.49 33.8278 125.492 33.8866 125.495Z" stroke="#003860" stroke-width="1.62167"/>
<mask id="path-10-inside-2_1209_28665" fill="white">
<path fill-rule="evenodd" clip-rule="evenodd" d="M16.0558 127.461C16.1455 127.597 15.2709 127.948 14.7998 128.491C14.3737 128.967 14.0709 129.454 14.026 129.545C13.3085 128.129 15.5401 126.702 16.0558 127.461ZM12.6022 126.498C12.7367 126.6 11.9741 127.177 11.6713 127.834C11.3909 128.412 11.2339 128.967 11.2115 129.069C10.1463 127.891 11.9294 125.909 12.6022 126.509L12.6022 126.498ZM9.20449 126.056C9.29419 126.124 8.80076 126.497 8.6101 126.917C8.41943 127.29 8.31848 127.641 8.30726 127.709C7.61209 126.95 8.76719 125.682 9.20449 126.056ZM12.9271 129.59C13.0168 129.658 12.5234 130.043 12.3327 130.451C12.1645 130.813 12.0411 131.187 12.0299 131.244C11.3347 130.485 12.4898 129.216 12.9271 129.59ZM15.8538 129.975C15.9435 130.055 15.4501 130.417 15.2594 130.836C15.0687 131.21 14.9678 131.572 14.9566 131.64C14.2614 130.87 15.4165 129.602 15.8538 129.987L15.8538 129.975ZM9.63036 128.955C9.73128 128.989 9.39482 129.51 9.3275 129.963C9.28262 130.383 9.2938 130.756 9.30501 130.824C8.40796 130.337 9.10334 128.751 9.63036 128.967L9.63036 128.955ZM13.7118 132.161C13.7903 132.218 13.3081 132.603 13.095 133.011C12.9268 133.384 12.8258 133.747 12.7922 133.803C12.1082 133.044 13.2633 131.776 13.7006 132.161L13.7118 132.161ZM11.0318 131.402C11.1215 131.436 10.7515 131.934 10.6505 132.387C10.572 132.795 10.5607 133.169 10.5495 133.226C9.70854 132.659 10.516 131.142 11.0318 131.402ZM18.6685 128.741C18.7694 128.877 17.8835 129.239 17.4237 129.772C16.9975 130.247 16.706 130.746 16.6387 130.836C15.9099 129.409 18.1752 127.993 18.6685 128.741Z"/>
</mask>
<path d="M16.0558 127.461L17.4094 126.568L17.4033 126.558L17.3971 126.549L16.0558 127.461ZM14.7998 128.491L16.0077 129.574L16.0167 129.564L16.0255 129.553L14.7998 128.491ZM14.026 129.545L12.5795 130.278L14.0429 133.165L15.4793 130.264L14.026 129.545ZM12.6022 126.498L13.5815 125.205L10.9808 123.235L10.9805 126.498L12.6022 126.498ZM11.6713 127.834L13.1302 128.542L13.1373 128.528L13.144 128.513L11.6713 127.834ZM11.2115 129.069L10.0086 130.156L12.1189 132.49L12.7952 129.417L11.2115 129.069ZM12.6022 126.509L11.5224 127.719L14.2235 130.129L14.2238 126.509L12.6022 126.509ZM9.20449 126.056L8.15077 127.288L8.18707 127.319L8.22514 127.348L9.20449 126.056ZM8.6101 126.917L10.0547 127.653L10.0711 127.621L10.0862 127.588L8.6101 126.917ZM8.30726 127.709L7.11144 128.805L9.36405 131.264L9.90727 127.974L8.30726 127.709ZM12.9271 129.59L11.8734 130.823L11.9097 130.854L11.9477 130.883L12.9271 129.59ZM12.3327 130.451L10.8637 129.764L10.8618 129.768L12.3327 130.451ZM12.0299 131.244L10.834 132.339L12.9981 134.701L13.6206 131.559L12.0299 131.244ZM15.8538 129.975L16.9278 128.76L14.2324 126.378L14.2321 129.975L15.8538 129.975ZM15.2594 130.836L16.704 131.573L16.7204 131.541L16.7355 131.508L15.2594 130.836ZM14.9566 131.64L13.7527 132.727L16.0082 135.226L16.5566 131.904L14.9566 131.64ZM15.8538 129.987L14.782 131.204L17.4752 133.576L17.4755 129.987L15.8538 129.987ZM9.63036 128.955L10.1479 127.419L8.00888 126.698L8.00869 128.955L9.63036 128.955ZM9.3275 129.963L7.72345 129.725L7.71859 129.758L7.71506 129.791L9.3275 129.963ZM9.30501 130.824L8.53114 132.249L11.4445 133.831L10.9051 130.56L9.30501 130.824ZM9.63036 128.967L9.01719 130.468L11.2518 131.381L11.252 128.967L9.63036 128.967ZM13.7118 132.161L14.6608 130.846L14.2359 130.54L13.712 130.539L13.7118 132.161ZM13.095 133.011L11.6578 132.259L11.6357 132.302L11.6162 132.345L13.095 133.011ZM12.7922 133.803L11.5875 134.889L13.0616 136.525L14.1863 134.632L12.7922 133.803ZM13.7006 132.161L12.6288 133.378L13.0882 133.783L13.7005 133.783L13.7006 132.161ZM11.0318 131.402L10.3007 132.85L10.3772 132.888L10.4573 132.919L11.0318 131.402ZM10.6505 132.387L9.06766 132.035L9.06254 132.058L9.0581 132.081L10.6505 132.387ZM10.5495 133.226L9.64361 134.571L11.6664 135.933L12.1403 133.541L10.5495 133.226ZM18.6685 128.741L17.315 129.634L17.3397 129.672L17.3664 129.708L18.6685 128.741ZM17.4237 129.772L18.6315 130.854L18.6413 130.843L18.6509 130.832L17.4237 129.772ZM16.6387 130.836L15.1944 131.574L16.3827 133.901L17.9406 131.803L16.6387 130.836ZM16.0558 127.461L14.7023 128.354C14.4718 128.005 14.4026 127.602 14.4596 127.238C14.509 126.922 14.6412 126.704 14.7101 126.604C14.7849 126.495 14.8557 126.424 14.8881 126.392C14.9244 126.357 14.9514 126.336 14.9595 126.329C14.973 126.319 14.9681 126.324 14.9226 126.354C14.8787 126.383 14.8308 126.414 14.7558 126.463C14.5124 126.62 13.9824 126.958 13.5742 127.43L14.7998 128.491L16.0255 129.553C16.0883 129.481 16.2312 129.371 16.5204 129.184C16.6125 129.124 16.8155 128.996 16.9678 128.876C17.0314 128.826 17.2224 128.675 17.3838 128.44C17.5352 128.219 17.9706 127.418 17.4094 126.568L16.0558 127.461ZM14.7998 128.491L13.592 127.409C13.0909 127.969 12.6963 128.576 12.5727 128.825L14.026 129.545L15.4793 130.264C15.4514 130.321 15.4409 130.332 15.4791 130.271C15.5058 130.229 15.5465 130.167 15.5991 130.092C15.7058 129.939 15.8479 129.752 16.0077 129.574L14.7998 128.491ZM14.026 129.545L15.4725 128.812C15.4873 128.841 15.5041 128.892 15.5065 128.955C15.5088 129.015 15.4973 129.055 15.4925 129.068C15.4884 129.079 15.5129 129.019 15.6096 128.939C15.7131 128.854 15.7701 128.852 15.7102 128.863C15.6755 128.869 15.5412 128.889 15.3494 128.835C15.1326 128.773 14.8872 128.626 14.7146 128.372L16.0558 127.461L17.3971 126.549C16.7486 125.595 15.6964 125.569 15.1302 125.672C14.5292 125.781 13.9765 126.082 13.5473 126.436C12.7567 127.087 11.7166 128.575 12.5795 130.278L14.026 129.545ZM12.6022 126.498L11.6228 127.79C11.3024 127.548 11.0875 127.192 11.0194 126.799C10.9605 126.46 11.0278 126.191 11.0683 126.064C11.1119 125.928 11.1644 125.832 11.1886 125.79C11.2159 125.743 11.2379 125.713 11.2448 125.703C11.246 125.701 11.2264 125.725 11.0862 125.883C10.8932 126.101 10.4647 126.578 10.1986 127.155L11.6713 127.834L13.144 128.513C13.1808 128.433 13.2849 128.293 13.5153 128.032C13.5868 127.952 13.7515 127.771 13.8673 127.611C13.914 127.547 14.0661 127.339 14.1581 127.051C14.2072 126.897 14.2774 126.605 14.215 126.245C14.1435 125.833 13.9188 125.461 13.5815 125.205L12.6022 126.498ZM11.6713 127.834L10.2124 127.126C9.87428 127.823 9.67641 128.499 9.6277 128.72L11.2115 129.069L12.7952 129.417C12.7877 129.451 12.811 129.352 12.8778 129.158C12.9397 128.979 13.0253 128.759 13.1302 128.542L11.6713 127.834ZM11.2115 129.069L12.4143 127.981C12.437 128.006 12.4668 128.052 12.4855 128.112C12.503 128.168 12.502 128.208 12.5011 128.219C12.5005 128.227 12.5102 128.157 12.5843 128.051C12.6639 127.937 12.7198 127.919 12.6633 127.947C12.6311 127.963 12.5008 128.022 12.2915 128.02C12.0527 128.018 11.7628 127.934 11.5224 127.719L12.6022 126.509L13.6819 125.299C12.7971 124.51 11.7481 124.784 11.2392 125.033C10.6924 125.3 10.243 125.739 9.92581 126.193C9.34384 127.026 8.72726 128.739 10.0086 130.156L11.2115 129.069ZM12.6022 126.509L14.2238 126.509L14.2238 126.498L12.6022 126.498L10.9805 126.498L10.9805 126.509L12.6022 126.509ZM9.20449 126.056L8.22514 127.348C7.91368 127.112 7.69724 126.768 7.62233 126.379C7.55672 126.039 7.61828 125.765 7.65966 125.628C7.7354 125.376 7.85674 125.217 7.85779 125.216C7.88208 125.182 7.89739 125.167 7.79572 125.282C7.68211 125.411 7.34472 125.782 7.13402 126.245L8.6101 126.917L10.0862 127.588C10.0661 127.632 10.0708 127.606 10.2291 127.427C10.2634 127.388 10.3972 127.24 10.4948 127.104C10.5324 127.052 10.6791 126.849 10.7654 126.562C10.812 126.407 10.8752 126.119 10.807 125.765C10.7296 125.363 10.5065 125.008 10.1838 124.763L9.20449 126.056ZM8.6101 126.917L7.16553 126.18C6.92207 126.657 6.75283 127.169 6.70725 127.445L8.30726 127.709L9.90727 127.974C9.90183 128.006 9.89666 128.031 9.89446 128.041C9.89182 128.053 9.88982 128.061 9.88897 128.064C9.88732 128.071 9.88737 128.07 9.88991 128.061C9.89488 128.044 9.905 128.012 9.92059 127.967C9.95243 127.877 9.99827 127.764 10.0547 127.653L8.6101 126.917ZM8.30726 127.709L9.50309 126.614C9.66697 126.793 9.72322 127.03 9.70931 127.206C9.70357 127.279 9.68761 127.327 9.6785 127.35C9.66925 127.374 9.66139 127.385 9.65825 127.39C9.65522 127.394 9.64842 127.403 9.63239 127.418C9.61873 127.43 9.57668 127.466 9.49811 127.505C9.42641 127.54 9.26067 127.609 9.0207 127.61C8.75364 127.611 8.42819 127.526 8.15077 127.288L9.20449 126.056L10.2582 124.823C9.42581 124.112 8.47423 124.394 8.06599 124.595C7.61166 124.818 7.2526 125.172 7.00414 125.526C6.55848 126.16 6.0058 127.598 7.11144 128.805L8.30726 127.709ZM12.9271 129.59L11.9477 130.883C11.6309 130.642 11.4175 130.294 11.3442 129.91C11.2802 129.574 11.3403 129.304 11.3802 129.169C11.4536 128.921 11.5713 128.765 11.5728 128.762C11.5978 128.727 11.6115 128.714 11.5135 128.826C11.4467 128.903 11.336 129.03 11.2265 129.174C11.119 129.316 10.9786 129.518 10.8637 129.764L12.3327 130.451L13.8017 131.138C13.7835 131.177 13.7923 131.148 13.9566 130.96C13.9945 130.916 14.1267 130.769 14.2249 130.629C14.2631 130.575 14.4061 130.374 14.49 130.09C14.5352 129.938 14.5969 129.652 14.5303 129.303C14.4545 128.905 14.2344 128.546 13.9064 128.297L12.9271 129.59ZM12.3327 130.451L10.8618 129.768C10.7537 130.001 10.6637 130.229 10.5992 130.405C10.5552 130.526 10.4736 130.754 10.4391 130.928L12.0299 131.244L13.6206 131.559C13.612 131.602 13.6036 131.634 13.6016 131.642C13.5984 131.654 13.5962 131.661 13.5958 131.663C13.5949 131.666 13.5963 131.661 13.6009 131.647C13.6098 131.619 13.6249 131.575 13.6456 131.518C13.6876 131.403 13.7434 131.263 13.8036 131.134L12.3327 130.451ZM12.0299 131.244L13.2257 130.148C13.3896 130.327 13.4458 130.564 13.4319 130.74C13.4262 130.813 13.4102 130.861 13.4011 130.884C13.3918 130.908 13.384 130.92 13.3808 130.924C13.3778 130.928 13.371 130.938 13.355 130.952C13.3413 130.964 13.2993 131 13.2207 131.039C13.149 131.074 12.9833 131.143 12.7433 131.144C12.4762 131.146 12.1508 131.06 11.8734 130.823L12.9271 129.59L13.9808 128.357C13.1484 127.646 12.1968 127.928 11.7886 128.129C11.3343 128.352 10.9752 128.706 10.7267 129.06C10.2811 129.694 9.7284 131.132 10.834 132.339L12.0299 131.244ZM15.8538 129.975L14.7798 131.19C14.5084 130.95 14.3297 130.627 14.2675 130.278C14.2115 129.964 14.2631 129.709 14.3036 129.569C14.3768 129.315 14.4968 129.155 14.5025 129.147C14.5315 129.106 14.5512 129.087 14.45 129.201C14.3823 129.277 14.2682 129.405 14.155 129.554C14.043 129.701 13.8995 129.909 13.7833 130.165L15.2594 130.836L16.7355 131.508C16.7131 131.557 16.7123 131.537 16.8735 131.356C16.9082 131.317 17.0464 131.166 17.1486 131.022C17.191 130.962 17.3363 130.757 17.42 130.467C17.4658 130.308 17.519 130.037 17.4605 129.709C17.3957 129.345 17.2104 129.01 16.9278 128.76L15.8538 129.975ZM15.2594 130.836L13.8148 130.099C13.5646 130.59 13.4002 131.112 13.3566 131.376L14.9566 131.64L16.5566 131.904C16.5514 131.936 16.5466 131.958 16.5447 131.967C16.5423 131.978 16.5406 131.985 16.5399 131.988C16.5387 131.993 16.5391 131.991 16.5418 131.981C16.5472 131.963 16.5576 131.928 16.5732 131.883C16.6052 131.791 16.6502 131.678 16.704 131.573L15.2594 130.836ZM14.9566 131.64L16.1604 130.554C16.3177 130.728 16.3722 130.958 16.3587 131.13C16.3531 131.201 16.3376 131.248 16.3285 131.271C16.3193 131.295 16.3113 131.307 16.3076 131.312C16.304 131.317 16.2962 131.328 16.2786 131.343C16.2635 131.357 16.219 131.395 16.1369 131.434C16.0615 131.471 15.8908 131.539 15.6461 131.537C15.3734 131.535 15.0514 131.441 14.782 131.204L15.8538 129.987L16.9256 128.77C16.1041 128.046 15.1487 128.31 14.7258 128.514C14.2649 128.737 13.9027 129.093 13.6534 129.448C13.202 130.091 12.6634 131.52 13.7527 132.727L14.9566 131.64ZM15.8538 129.987L17.4755 129.987L17.4755 129.975L15.8538 129.975L14.2321 129.975L14.2321 129.987L15.8538 129.987ZM9.63036 128.955L9.11277 130.492C8.71275 130.358 8.39566 130.075 8.21069 129.725C8.05132 129.424 8.03002 129.151 8.02767 129.019C8.02326 128.771 8.08298 128.594 8.08316 128.593C8.09479 128.555 8.10163 128.543 8.04587 128.677C7.98128 128.831 7.79207 129.263 7.72345 129.725L9.3275 129.963L10.9316 130.202C10.9303 130.211 10.9429 130.156 11.0382 129.928C11.0623 129.87 11.1386 129.694 11.187 129.534C11.2056 129.473 11.2755 129.246 11.2705 128.961C11.2678 128.811 11.2435 128.522 11.078 128.209C10.8869 127.848 10.5606 127.558 10.1479 127.419L9.63036 128.955ZM9.3275 129.963L7.71506 129.791C7.68602 130.062 7.67543 130.314 7.67362 130.511C7.67232 130.653 7.67338 130.897 7.70495 131.088L9.30501 130.824L10.9051 130.56C10.9115 130.599 10.9147 130.628 10.9158 130.64C10.9172 130.653 10.918 130.663 10.9182 130.666C10.9187 130.673 10.9184 130.671 10.918 130.659C10.9171 130.636 10.9163 130.596 10.9168 130.54C10.9178 130.429 10.9241 130.284 10.9399 130.136L9.3275 129.963ZM9.30501 130.824L10.0789 129.399C10.3036 129.521 10.4352 129.737 10.4778 129.91C10.4954 129.981 10.4953 130.032 10.494 130.055C10.4927 130.078 10.4893 130.09 10.4884 130.093C10.4876 130.096 10.485 130.104 10.4757 130.121C10.468 130.135 10.4412 130.181 10.381 130.241C10.3266 130.296 10.1924 130.415 9.96428 130.495C9.70932 130.585 9.36517 130.61 9.01719 130.468L9.63036 128.967L10.2435 127.465C9.21167 127.044 8.39281 127.641 8.08111 127.954C7.72651 128.311 7.50111 128.759 7.37887 129.171C7.16351 129.898 7.07659 131.46 8.53114 132.249L9.30501 130.824ZM9.63036 128.967L11.252 128.967L11.252 128.956L9.63036 128.955L8.00869 128.955L8.00869 128.967L9.63036 128.967ZM13.7118 132.161L12.7629 133.476C12.3808 133.2 12.1607 132.788 12.1102 132.37C12.0682 132.022 12.152 131.755 12.1926 131.643C12.2389 131.515 12.2913 131.425 12.316 131.384C12.344 131.338 12.3672 131.306 12.3771 131.293C12.3939 131.27 12.3984 131.267 12.3015 131.376C12.1845 131.507 11.872 131.85 11.6578 132.259L13.095 133.011L14.5322 133.762C14.5311 133.764 14.5662 133.71 14.724 133.533C14.7645 133.487 14.8881 133.351 14.9799 133.228C15.0137 133.183 15.1491 133.003 15.2406 132.751C15.2873 132.623 15.3736 132.342 15.3302 131.981C15.2782 131.551 15.0527 131.129 14.6608 130.846L13.7118 132.161ZM13.095 133.011L11.6162 132.345C11.5036 132.595 11.4183 132.831 11.3623 132.991C11.3481 133.031 11.3353 133.068 11.3249 133.099C11.3138 133.131 11.3064 133.152 11.3004 133.17C11.2937 133.189 11.294 133.187 11.2986 133.175C11.301 133.169 11.3083 133.151 11.3198 133.125C11.3285 133.106 11.355 133.048 11.398 132.975L12.7922 133.803L14.1863 134.632C14.2336 134.552 14.2648 134.484 14.2787 134.453C14.2954 134.416 14.3086 134.384 14.3173 134.361C14.3345 134.318 14.3496 134.275 14.3596 134.247C14.3696 134.218 14.4143 134.089 14.424 134.061C14.4689 133.932 14.5182 133.8 14.5738 133.676L13.095 133.011ZM12.7922 133.803L13.9968 132.718C14.1623 132.901 14.2146 133.14 14.1997 133.312C14.1936 133.383 14.1777 133.43 14.1688 133.453C14.1597 133.475 14.1521 133.487 14.1489 133.491C14.1458 133.495 14.1386 133.505 14.1216 133.52C14.107 133.533 14.0631 133.57 13.9816 133.61C13.9068 133.646 13.7366 133.714 13.4924 133.712C13.2202 133.709 12.8983 133.615 12.6288 133.378L13.7006 132.161L14.7724 130.944C13.9511 130.221 12.996 130.484 12.5744 130.687C12.1144 130.909 11.7525 131.263 11.503 131.615C11.0575 132.244 10.4947 133.676 11.5875 134.889L12.7922 133.803ZM13.7006 132.161L13.7005 133.783L13.7117 133.783L13.7118 132.161L13.712 130.539L13.7007 130.539L13.7006 132.161ZM11.0318 131.402L10.4573 132.919C10.0086 132.749 9.68705 132.399 9.53241 132.002C9.40456 131.674 9.42006 131.394 9.43134 131.278C9.44436 131.145 9.47207 131.045 9.48541 131.001C9.5006 130.95 9.5147 130.914 9.52064 130.899C9.53002 130.876 9.53263 130.873 9.46596 131.005C9.38473 131.165 9.16923 131.579 9.06766 132.035L10.6505 132.387L12.2333 132.74C12.2327 132.743 12.2527 132.681 12.3594 132.47C12.3866 132.416 12.4713 132.254 12.528 132.114C12.5487 132.062 12.6337 131.857 12.6594 131.593C12.6724 131.459 12.6867 131.164 12.5545 130.825C12.3955 130.417 12.0663 130.06 11.6064 129.886L11.0318 131.402ZM10.6505 132.387L9.0581 132.081C9.00499 132.356 8.9766 132.609 8.96 132.789C8.95169 132.878 8.94582 132.956 8.94224 133.002C8.94131 133.014 8.94061 133.022 8.94003 133.029C8.93943 133.037 8.93918 133.039 8.9392 133.039C8.93923 133.039 8.93941 133.037 8.93975 133.034C8.94008 133.031 8.9407 133.025 8.94164 133.017C8.94263 133.009 8.94765 132.967 8.95875 132.91L10.5495 133.226L12.1403 133.541C12.1528 133.478 12.1592 133.426 12.1616 133.406C12.1648 133.379 12.167 133.356 12.1685 133.341C12.1713 133.31 12.1739 133.277 12.1757 133.254C12.1798 133.201 12.1838 133.149 12.1895 133.088C12.201 132.964 12.2175 132.826 12.2429 132.694L10.6505 132.387ZM10.5495 133.226L11.4554 131.881C11.666 132.022 11.7728 132.245 11.7993 132.411C11.8103 132.481 11.8063 132.529 11.8033 132.551C11.8002 132.573 11.7961 132.584 11.7947 132.588C11.7935 132.591 11.7897 132.6 11.7781 132.618C11.7683 132.632 11.7364 132.678 11.6691 132.735C11.6077 132.787 11.4618 132.895 11.2265 132.954C10.9639 133.021 10.6259 133.014 10.3007 132.85L11.0318 131.402L11.763 129.955C10.7812 129.459 9.9219 129.964 9.57216 130.26C9.18522 130.588 8.92375 131.019 8.76903 131.42C8.49558 132.128 8.28912 133.658 9.64361 134.571L10.5495 133.226ZM18.6685 128.741L17.3664 129.708C17.1262 129.384 17.0234 128.988 17.0631 128.603C17.0976 128.268 17.2291 128.033 17.3004 127.923C17.3768 127.805 17.4512 127.727 17.4854 127.693C17.5238 127.654 17.553 127.63 17.5625 127.623C17.5668 127.619 17.5413 127.638 17.369 127.75C17.1338 127.904 16.5997 128.245 16.1965 128.712L17.4237 129.772L18.6509 130.832C18.7075 130.766 18.8462 130.659 19.1437 130.465C19.2378 130.403 19.4436 130.272 19.6 130.146C19.6638 130.095 19.8627 129.934 20.0253 129.682C20.1121 129.548 20.2527 129.29 20.2893 128.936C20.3311 128.53 20.2234 128.115 19.9706 127.774L18.6685 128.741ZM17.4237 129.772L16.2159 128.689C15.941 128.996 15.7185 129.3 15.5611 129.528C15.4815 129.644 15.4163 129.744 15.3699 129.815C15.3002 129.922 15.3136 129.9 15.3368 129.869L16.6387 130.836L17.9406 131.803C17.9809 131.749 18.017 131.693 18.03 131.674C18.048 131.646 18.0716 131.61 18.0897 131.582C18.1302 131.52 18.1771 131.448 18.2321 131.368C18.3439 131.206 18.4802 131.023 18.6315 130.854L17.4237 129.772ZM16.6387 130.836L18.0829 130.099C18.0969 130.126 18.1143 130.177 18.1168 130.242C18.1192 130.303 18.1073 130.344 18.1021 130.358C18.0973 130.371 18.1216 130.31 18.2216 130.229C18.3279 130.142 18.3898 130.137 18.335 130.147C18.3038 130.153 18.1688 130.174 17.974 130.12C17.7526 130.058 17.4942 129.906 17.315 129.634L18.6685 128.741L20.022 127.848C19.3725 126.864 18.2925 126.857 17.7465 126.958C17.151 127.067 16.5996 127.365 16.169 127.717C15.3765 128.365 14.318 129.857 15.1944 131.574L16.6387 130.836Z" fill="#003860" mask="url(#path-10-inside-2_1209_28665)"/>
<mask id="path-12-inside-3_1209_28665" fill="white">
<path fill-rule="evenodd" clip-rule="evenodd" d="M19.0703 144.462C19.922 144.79 20.7627 142.865 19.6084 142.525C18.5438 142.208 18.1178 144.099 19.0703 144.462Z"/>
</mask>
<path d="M19.0703 144.462L19.654 142.949L19.6472 142.946L19.0703 144.462ZM19.6084 142.525L19.1453 144.079L19.1504 144.081L19.6084 142.525ZM19.0703 144.462L18.4867 145.975C19.3721 146.316 20.1751 146.01 20.6681 145.628C21.1381 145.265 21.449 144.765 21.6189 144.289C21.7874 143.817 21.8826 143.181 21.678 142.531C21.4469 141.796 20.8774 141.208 20.0665 140.969L19.6084 142.525L19.1504 144.081C19.064 144.055 18.9362 143.995 18.8136 143.875C18.6921 143.755 18.6205 143.619 18.5841 143.504C18.5497 143.394 18.549 143.312 18.5516 143.271C18.5543 143.229 18.5617 143.206 18.5644 143.199C18.5671 143.191 18.5715 143.181 18.5824 143.165C18.5922 143.151 18.6217 143.111 18.684 143.063C18.746 143.015 18.8659 142.94 19.0461 142.901C19.2398 142.86 19.4549 142.872 19.654 142.949L19.0703 144.462ZM19.6084 142.525L20.0715 140.971C19.2869 140.737 18.5142 140.913 17.9346 141.371C17.4135 141.784 17.1345 142.35 17.0104 142.842C16.8009 143.674 16.8859 145.366 18.4935 145.977L19.0703 144.462L19.6472 142.946C19.9349 143.056 20.0847 143.285 20.1352 143.431C20.1757 143.548 20.1608 143.614 20.1555 143.635C20.1519 143.649 20.1195 143.778 19.9479 143.914C19.853 143.989 19.7198 144.061 19.555 144.093C19.3881 144.126 19.244 144.109 19.1453 144.079L19.6084 142.525Z" fill="#003860" mask="url(#path-12-inside-3_1209_28665)"/>
<path d="M77.582 9.1618C77.9975 9.13005 78.5489 9.31686 79.1708 10.0975C79.7996 10.8868 80.4297 12.2085 80.9438 14.2119C81.4554 16.2055 81.8397 18.8271 82.0086 22.171L82.069 23.3692L83.1589 22.8654C86.0126 21.5478 87.8751 21.5725 89.5584 21.8542L89.5604 21.8542C92.0481 22.264 93.5794 22.8248 94.6755 23.5304C95.7635 24.231 96.489 25.1159 97.31 26.3158L98.1234 27.5034L98.7172 26.1919C100.266 22.7756 103.407 21.0176 108.705 19.4554C111.022 18.7724 112.327 18.9122 112.998 19.3103C113.591 19.6626 113.921 20.3748 113.831 21.6131C113.741 22.8477 113.233 24.4071 112.404 26.0759C111.581 27.733 110.468 29.4457 109.225 30.977L109.224 30.978C107.963 32.5372 106.102 33.6522 104.459 34.4854C104.052 34.6916 103.664 34.8781 103.304 35.0497C102.949 35.2195 102.612 35.378 102.327 35.5223C102.047 35.6638 101.778 35.8094 101.568 35.9558C101.463 36.029 101.346 36.1204 101.244 36.2312C101.15 36.3328 101.013 36.5105 100.962 36.7605C100.2 40.468 99.6253 43.4729 98.9373 45.8472C98.2466 48.2304 97.4807 49.8295 96.4281 50.8138C95.4178 51.7584 94.0378 52.2301 91.8693 52.1005C89.6714 51.9692 86.7504 51.2227 82.7748 49.8068L82.7699 49.8058L82.3276 49.6671C81.1497 49.3269 78.9938 48.8405 76.6812 47.6998C74.0905 46.4219 71.6052 44.4386 70.713 41.2569L70.714 41.2569C70.2063 39.4312 70.5063 37.2329 71.319 34.8781C72.1251 32.5427 73.4022 30.1484 74.7308 27.9721C74.7729 27.9156 74.8876 27.7584 74.9622 27.6254C75.015 27.5314 75.0867 27.3877 75.1254 27.2173C75.1627 27.052 75.1932 26.7481 75.0082 26.4487L74.9926 26.4233L74.8149 26.1323C74.4135 25.4089 74.0991 24.3842 73.9011 23.141C73.6773 21.7359 73.6127 20.1182 73.7062 18.4798C73.8957 15.1571 74.7213 11.9464 75.9979 10.2613C76.5728 9.50313 77.1336 9.19614 77.582 9.1618Z" stroke="#003860" stroke-width="1.62167"/>
<path d="M84.3407 42.2425C84.4037 42.5693 84.4826 42.9417 84.5906 43.2738C84.6526 43.4643 84.7427 43.703 84.8835 43.9242C84.8613 43.9862 84.8322 44.0615 84.7936 44.1497C84.6319 44.5201 84.3646 45.0076 84.0406 45.4837C83.7136 45.9641 83.3569 46.3916 83.0288 46.6711C82.7134 46.9397 82.5678 46.9523 82.559 46.9562C82.0798 46.8421 81.8365 46.6081 81.728 46.2706C81.5984 45.8672 81.6108 45.1597 82.0554 44.044C82.1077 43.9139 82.2002 43.8103 82.448 43.6535C82.6442 43.5293 83.133 43.2741 83.4978 42.9768L83.5047 42.9709C83.8121 42.7149 84.0856 42.3791 84.3094 42.0853C84.319 42.1362 84.3303 42.1884 84.3407 42.2425Z" stroke="#003860" stroke-width="1.62167"/>
<mask id="path-16-inside-4_1209_28665" fill="white">
<path fill-rule="evenodd" clip-rule="evenodd" d="M84.0951 42.6652C83.9942 42.8351 82.6043 45.9384 82.5035 45.7005C82.4474 45.5646 82.6381 44.5566 83.0528 43.8431C83.4787 43.0955 84.1175 42.6199 84.0951 42.6765L84.0951 42.6652Z"/>
</mask>
<path d="M84.0951 42.6652L85.7168 42.6653L85.7173 36.757L82.7007 41.8372L84.0951 42.6652ZM82.5035 45.7005L81.0042 46.3185L81.0073 46.326L81.0104 46.3335L82.5035 45.7005ZM83.0528 43.8431L84.4549 44.658L84.4618 44.6459L83.0528 43.8431ZM84.0951 42.6765L82.4734 42.6764L85.6029 43.2734L84.0951 42.6765ZM84.0951 42.6652L82.7007 41.8372C82.6395 41.9404 82.5655 42.0985 82.5373 42.1578C82.4873 42.263 82.4222 42.4019 82.3501 42.5554C82.2038 42.867 82.0216 43.2544 81.8406 43.6273C81.6557 44.0078 81.4872 44.3416 81.3665 44.5566C81.2973 44.6799 81.2819 44.695 81.3097 44.6588C81.3206 44.6445 81.3491 44.6081 81.3934 44.5619C81.428 44.5258 81.5278 44.4245 81.6859 44.327C81.8066 44.2527 82.2384 44.0059 82.8294 44.122C83.5363 44.261 83.8755 44.7821 83.9965 45.0676L82.5035 45.7005L81.0104 46.3335C81.1378 46.6338 81.4858 47.1633 82.2038 47.3045C82.806 47.4228 83.2514 47.1721 83.3878 47.088C83.6795 46.9082 83.8539 46.6709 83.8837 46.632C84.0072 46.4709 84.1177 46.2813 84.1945 46.1444C84.366 45.8392 84.5701 45.431 84.758 45.0443C84.9496 44.6498 85.1401 44.2443 85.286 43.9338C85.36 43.7762 85.4207 43.6466 85.4664 43.5505C85.534 43.4085 85.5255 43.4324 85.4895 43.4931L84.0951 42.6652ZM82.5035 45.7005L84.0028 45.0826C84.0479 45.192 84.0716 45.2851 84.0845 45.3449C84.0979 45.4076 84.1048 45.4596 84.1086 45.4955C84.1159 45.5651 84.1158 45.6159 84.1154 45.6365C84.1148 45.6783 84.1116 45.6915 84.1151 45.6656C84.1212 45.6188 84.1383 45.5233 84.1718 45.3938C84.2044 45.2675 84.2474 45.1289 84.2988 44.9944C84.351 44.8579 84.405 44.7437 84.4548 44.6579L83.0528 43.8431L81.6507 43.0282C81.3445 43.555 81.1465 44.1373 81.0314 44.583C80.9724 44.8117 80.9264 45.0383 80.8996 45.2411C80.8866 45.3399 80.8745 45.4598 80.8725 45.5855C80.8718 45.6287 80.8575 45.9627 81.0042 46.3185L82.5035 45.7005ZM83.0528 43.8431L84.4618 44.6459C84.581 44.4367 84.742 44.2484 84.8752 44.1183C84.9065 44.0877 84.9332 44.0633 84.9538 44.0454C84.9751 44.0268 84.9858 44.0186 84.9845 44.0196C84.9839 44.0201 84.9761 44.026 84.9619 44.0358C84.9515 44.0429 84.9173 44.0662 84.8666 44.0946C84.8416 44.1086 84.7946 44.134 84.7322 44.1612C84.6902 44.1795 84.5439 44.2427 84.3424 44.2742C84.2419 44.29 84.0376 44.3129 83.7853 44.264C83.5154 44.2117 83.1128 44.0576 82.807 43.6577C82.5062 43.2642 82.4636 42.8471 82.476 42.5947C82.4878 42.3527 82.5516 42.1697 82.5873 42.0796L84.0951 42.6765L85.6029 43.2734C85.6393 43.1815 85.7034 42.997 85.7154 42.7538C85.7279 42.5001 85.685 42.082 85.3836 41.6878C85.0773 41.2871 84.6737 41.1326 84.4027 41.08C84.1492 41.0309 83.9434 41.0539 83.8411 41.0699C83.6361 41.1019 83.485 41.1668 83.4372 41.1876C83.3689 41.2173 83.3149 41.2463 83.2819 41.2648C83.1655 41.33 83.0692 41.4015 83.0187 41.4399C82.8942 41.5348 82.7531 41.6573 82.6089 41.7982C82.3219 42.0786 81.9505 42.5019 81.6438 43.0402L83.0528 43.8431ZM84.0951 42.6765L85.7168 42.6766L85.7168 42.6653L84.0951 42.6652L82.4734 42.665L82.4734 42.6764L84.0951 42.6765Z" fill="#003860" mask="url(#path-16-inside-4_1209_28665)"/>
<path d="M84.8769 33.2735C85.3494 33.2499 85.8974 33.3105 86.4423 33.4494C86.9872 33.5884 87.5003 33.7991 87.911 34.054C88.2773 34.2814 88.5216 34.5183 88.657 34.7348L88.7088 34.8266L88.7088 34.8715C88.704 34.9222 88.6832 35.0081 88.6238 35.1293C88.5024 35.3768 88.263 35.6827 87.9157 35.9925C87.2089 36.623 86.2578 37.0957 85.5103 37.1564L85.4635 37.1593L85.2125 36.9835C84.5056 36.4873 83.9477 35.6742 83.7156 34.9082C83.4687 34.0926 83.6615 33.6815 83.873 33.5351L83.8739 33.5342C84.0577 33.407 84.3907 33.2978 84.8769 33.2735Z" stroke="#003860" stroke-width="1.62167"/>
<path d="M97.912 30.2218C97.959 30.2221 98.0073 30.2348 98.0702 30.2823C98.2027 30.3825 98.3593 30.6147 98.4667 30.9689L98.4735 30.9992C98.3373 30.8875 98.2038 30.7859 98.0829 30.6964C97.8762 30.5434 97.7194 30.43 97.5966 30.3311C97.7607 30.2361 97.8634 30.2215 97.912 30.2218Z" stroke="#003860" stroke-width="1.62167"/>
<path d="M79.2919 25.5569C79.3702 25.5516 79.4181 25.5676 79.4589 25.594C79.501 25.6212 79.5782 25.6908 79.6649 25.8596C79.5095 25.8739 79.3187 25.8831 79.0663 25.8967C78.9114 25.905 78.7378 25.9154 78.5565 25.9347L78.5683 25.923C78.8599 25.6779 79.124 25.5681 79.2919 25.5569Z" stroke="#003860" stroke-width="1.62167"/>
<path d="M77.8183 10.6438C78.0015 10.9158 78.2224 11.3444 78.4627 11.9085C78.9392 13.0272 79.4395 14.5521 79.8403 16.098C80.2421 17.6481 80.5315 19.174 80.6055 20.3012C80.6432 20.8753 80.6198 21.2813 80.5615 21.52C80.5598 21.527 80.5563 21.5332 80.5547 21.5395C80.2962 21.5957 79.979 21.7033 79.6718 21.8178C79.2274 21.9833 78.6895 22.2102 78.1327 22.4748C77.5675 22.7435 76.954 23.0643 76.3875 23.4151C76.4464 23.1975 76.53 23.0239 76.6219 22.8829C76.8796 22.4879 77.2759 22.2257 77.7402 21.9836C77.9276 21.8859 78.2409 21.736 78.4316 21.6301C78.6244 21.5232 78.9408 21.3355 79.1377 21.0257C79.251 20.8474 79.326 20.6288 79.3214 20.3812C79.3168 20.1431 79.2399 19.9352 79.1456 19.7669C78.9695 19.4526 78.669 19.1648 78.3244 18.8899L78.3234 18.8899C76.4904 17.4291 75.9637 15.3181 76.1764 13.5167C76.2831 12.6135 76.5726 11.8286 76.9383 11.2804C77.2235 10.853 77.5084 10.6318 77.7411 10.5402C77.7631 10.5691 77.7904 10.6023 77.8183 10.6438Z" stroke="#003860" stroke-width="1.62167"/>
<path d="M110.853 21.1963C110.937 21.3911 110.965 21.7091 110.808 22.1933C110.613 22.7989 110.167 23.5167 109.493 24.1932C108.144 25.5465 106.038 26.5847 103.688 26.2884L103.689 26.2884C103.254 26.2332 102.839 26.2171 102.491 26.3118C102.304 26.3627 102.101 26.4553 101.927 26.6223C101.747 26.7959 101.646 27.0055 101.601 27.2111C101.523 27.567 101.614 27.9225 101.674 28.135C101.734 28.3445 101.849 28.6759 101.912 28.8791C102.069 29.3842 102.162 29.8563 102.065 30.3215C102.031 30.481 101.97 30.6552 101.865 30.842C101.715 30.1928 101.513 29.5303 101.306 28.9396C101.101 28.3537 100.882 27.8093 100.687 27.3751C100.541 27.0507 100.378 26.7241 100.226 26.4971C100.239 26.4684 100.257 26.4301 100.286 26.3809C100.435 26.12 100.746 25.7554 101.232 25.3244C102.19 24.4743 103.659 23.5126 105.291 22.7407L105.291 22.7398C106.583 22.1281 108.032 21.6605 109.199 21.4051C109.785 21.277 110.273 21.2085 110.62 21.1953C110.717 21.1916 110.795 21.1929 110.853 21.1963Z" stroke="#003860" stroke-width="1.62167"/>
<mask id="path-23-inside-5_1209_28665" fill="white">
<path fill-rule="evenodd" clip-rule="evenodd" d="M93.0221 23.1503C93.1118 23.2862 92.2371 23.6373 91.7661 24.1809C91.34 24.6566 91.0372 25.1436 90.9923 25.2342C90.2748 23.8183 92.5064 22.3914 93.0221 23.1503ZM89.5684 22.1986C89.703 22.3005 88.9404 22.8781 88.6376 23.535C88.3572 24.1127 88.2002 24.6676 88.1777 24.7696C87.1126 23.5915 88.8957 21.6095 89.5684 22.2099L89.5684 22.1986ZM86.1596 21.7452C86.2493 21.8132 85.7558 22.1869 85.5652 22.606C85.3745 22.9797 85.2736 23.3309 85.2623 23.3988C84.5672 22.6399 85.7223 21.3714 86.1596 21.7452ZM89.8934 25.2794C89.9831 25.3474 89.4897 25.7324 89.299 26.1402C89.1308 26.5026 89.0074 26.8764 88.9962 26.933C88.301 26.1741 89.4561 24.9056 89.8934 25.2794ZM92.8201 25.6648C92.9098 25.7441 92.4164 26.1065 92.2257 26.5255C92.035 26.8993 91.9341 27.2617 91.9229 27.3297C91.2277 26.5594 92.3828 25.291 92.8201 25.6761L92.8201 25.6648ZM86.5966 24.6448C86.6976 24.6788 86.3611 25.1998 86.2938 25.6529C86.2489 26.072 86.2601 26.4457 86.2713 26.5137C85.3743 26.0266 86.0696 24.4409 86.5966 24.6562L86.5966 24.6448ZM90.6781 27.8619C90.7566 27.9186 90.2744 28.3036 90.0613 28.7114C89.8931 29.0851 89.7921 29.4476 89.7585 29.5042C89.0745 28.7453 90.2296 27.4768 90.6669 27.8619L90.6781 27.8619ZM87.9869 27.1028C88.0766 27.1368 87.7065 27.6352 87.6056 28.0882C87.527 28.496 87.5158 28.8697 87.5046 28.9264C86.6636 28.36 87.4711 26.8423 87.9869 27.1028ZM95.6348 24.4304C95.7357 24.5663 94.8498 24.9287 94.39 25.461C93.9638 25.9367 93.6722 26.435 93.605 26.5257C92.8762 25.0984 95.1415 23.6828 95.6348 24.4304Z"/>
</mask>
<path d="M93.0221 23.1503L94.3757 22.2571L94.3696 22.2479L94.3634 22.2388L93.0221 23.1503ZM91.7661 24.1809L92.974 25.263L92.983 25.253L92.9918 25.2428L91.7661 24.1809ZM90.9923 25.2342L89.5458 25.9673L91.0092 28.8549L92.4456 25.9538L90.9923 25.2342ZM89.5684 22.1986L90.5478 20.906L87.9471 18.9355L87.9468 22.1984L89.5684 22.1986ZM88.6376 23.535L90.0965 24.2432L90.1036 24.2286L90.1103 24.2139L88.6376 23.535ZM88.1777 24.7696L86.9749 25.8572L89.0852 28.1911L89.7615 25.1182L88.1777 24.7696ZM89.5684 22.2099L88.4887 23.4198L91.1898 25.8303L91.1901 22.21L89.5684 22.2099ZM86.1596 21.7452L85.1058 22.9779L85.1421 23.0089L85.1802 23.0378L86.1596 21.7452ZM85.5652 22.606L87.0097 23.3429L87.0262 23.3106L87.0412 23.2776L85.5652 22.606ZM85.2623 23.3988L84.0665 24.4942L86.3191 26.9534L86.8623 23.663L85.2623 23.3988ZM89.8934 25.2794L88.8397 26.5121L88.876 26.5431L88.914 26.572L89.8934 25.2794ZM89.299 26.1402L87.83 25.4533L87.8281 25.4574L89.299 26.1402ZM88.9962 26.933L87.8003 28.0284L89.9644 30.3909L90.5869 27.2481L88.9962 26.933ZM92.8201 25.6648L93.8941 24.4498L91.1987 22.0671L91.1984 25.6646L92.8201 25.6648ZM92.2257 26.5255L93.6703 27.2624L93.6867 27.2301L93.7018 27.1971L92.2257 26.5255ZM91.9229 27.3297L90.719 28.4162L92.9745 30.9154L93.5229 27.5938L91.9229 27.3297ZM92.8201 25.6761L91.7483 26.8931L94.4414 29.265L94.4417 25.6762L92.8201 25.6761ZM86.5966 24.6448L87.1142 23.108L84.9752 22.3876L84.975 24.6447L86.5966 24.6448ZM86.2938 25.6529L84.6897 25.4145L84.6849 25.4473L84.6814 25.4802L86.2938 25.6529ZM86.2713 26.5137L85.4974 27.9388L88.4108 29.5208L87.8714 26.2498L86.2713 26.5137ZM86.5966 24.6562L85.9835 26.1575L88.2181 27.0701L88.2183 24.6563L86.5966 24.6562ZM90.6781 27.8619L91.627 26.5469L91.2022 26.2403L90.6782 26.2403L90.6781 27.8619ZM90.0613 28.7114L88.6241 27.9603L88.602 28.0024L88.5825 28.0458L90.0613 28.7114ZM89.7585 29.5042L88.5538 30.5899L90.0279 32.2256L91.1526 30.3325L89.7585 29.5042ZM90.6669 27.8619L89.5951 29.0789L90.0545 29.4835L90.6668 29.4836L90.6669 27.8619ZM87.9869 27.1028L87.2557 28.5503L87.3322 28.5889L87.4124 28.6193L87.9869 27.1028ZM87.6056 28.0882L86.0227 27.7355L86.0176 27.7584L86.0132 27.7815L87.6056 28.0882ZM87.5046 28.9264L86.5987 30.2714L88.6214 31.6338L89.0953 29.2415L87.5046 28.9264ZM95.6348 24.4304L94.2813 25.3236L94.306 25.361L94.3327 25.3971L95.6348 24.4304ZM94.39 25.461L95.5978 26.5431L95.6076 26.5322L95.6172 26.5211L94.39 25.461ZM93.605 26.5257L92.1607 27.2631L93.349 29.5903L94.9069 27.4925L93.605 26.5257ZM93.0221 23.1503L91.6686 24.0435C91.4381 23.6942 91.3689 23.291 91.4259 22.9272C91.4753 22.6116 91.6074 22.3938 91.6764 22.2933C91.7512 22.1844 91.822 22.113 91.8544 22.0818C91.8907 22.0468 91.9177 22.0252 91.9258 22.0188C91.9393 22.0082 91.9344 22.0131 91.8889 22.0434C91.845 22.0727 91.797 22.1035 91.7221 22.1521C91.4787 22.3099 90.9487 22.6479 90.5405 23.119L91.7661 24.1809L92.9918 25.2428C93.0546 25.1703 93.1975 25.0609 93.4867 24.8733C93.5788 24.8137 93.7818 24.6857 93.9341 24.5656C93.9977 24.5155 94.1887 24.3643 94.3501 24.1293C94.5015 23.9088 94.9369 23.1075 94.3757 22.2571L93.0221 23.1503ZM91.7661 24.1809L90.5583 23.0988C90.0572 23.6581 89.6626 24.2651 89.539 24.5147L90.9923 25.2342L92.4456 25.9538C92.4177 26.01 92.4072 26.0217 92.4454 25.9609C92.4721 25.9184 92.5127 25.8563 92.5654 25.781C92.6721 25.6284 92.8141 25.4414 92.974 25.263L91.7661 24.1809ZM90.9923 25.2342L92.4388 24.5011C92.4535 24.5302 92.4704 24.5816 92.4728 24.6448C92.4751 24.7043 92.4636 24.744 92.4588 24.7572C92.4547 24.7686 92.4791 24.708 92.5759 24.6283C92.6793 24.5431 92.7364 24.5412 92.6765 24.5521C92.6418 24.5585 92.5074 24.5785 92.3157 24.5242C92.0989 24.4628 91.8535 24.3157 91.6809 24.0618L93.0221 23.1503L94.3634 22.2388C93.7149 21.2845 92.6627 21.2582 92.0965 21.3611C91.4955 21.4703 90.9428 21.7715 90.5136 22.1251C89.723 22.7764 88.6829 24.2645 89.5458 25.9673L90.9923 25.2342ZM89.5684 22.1986L88.5891 23.4911C88.2687 23.2483 88.0537 22.8929 87.9857 22.5002C87.9268 22.1604 87.9941 21.8922 88.0346 21.7652C88.0782 21.6287 88.1307 21.5329 88.1549 21.4912C88.1822 21.4441 88.2042 21.4134 88.2111 21.4039C88.2123 21.4023 88.1927 21.4257 88.0525 21.5841C87.8595 21.8022 87.431 22.2789 87.1649 22.8561L88.6376 23.535L90.1103 24.2139C90.1471 24.1342 90.2512 23.9936 90.4816 23.7332C90.5531 23.6524 90.7178 23.4713 90.8336 23.3121C90.8803 23.248 91.0324 23.0395 91.1244 22.7515C91.1735 22.5976 91.2437 22.3059 91.1813 21.9461C91.1098 21.5335 90.885 21.1616 90.5478 20.906L89.5684 22.1986ZM88.6376 23.535L87.1787 22.8269C86.8406 23.5235 86.6427 24.1997 86.594 24.421L88.1777 24.7696L89.7615 25.1182C89.754 25.1521 89.7773 25.053 89.8441 24.8592C89.906 24.6797 89.9915 24.4594 90.0965 24.2432L88.6376 23.535ZM88.1777 24.7696L89.3806 23.682C89.4033 23.7071 89.433 23.7527 89.4518 23.8125C89.4693 23.8685 89.4683 23.9083 89.4674 23.92C89.4668 23.9273 89.4765 23.8579 89.5506 23.7517C89.6302 23.6379 89.6861 23.6203 89.6296 23.6479C89.5974 23.6636 89.4671 23.7226 89.2578 23.7208C89.019 23.7187 88.7291 23.6344 88.4887 23.4198L89.5684 22.2099L90.6482 20.9999C89.7634 20.2104 88.7144 20.4852 88.2055 20.7339C87.6587 21.0011 87.2093 21.44 86.8921 21.8939C86.3101 22.7267 85.6936 24.4401 86.9749 25.8572L88.1777 24.7696ZM89.5684 22.2099L91.1901 22.21L91.1901 22.1987L89.5684 22.1986L87.9468 22.1984L87.9468 22.2098L89.5684 22.2099ZM86.1596 21.7452L85.1802 23.0378C84.8688 22.8018 84.6523 22.4571 84.5774 22.0684C84.5118 21.728 84.5734 21.4547 84.6147 21.3172C84.6905 21.0655 84.8118 20.9068 84.8129 20.9053C84.8372 20.8714 84.8525 20.8564 84.7508 20.9718C84.6372 21.1007 84.2998 21.4713 84.0891 21.9344L85.5652 22.606L87.0412 23.2776C87.0212 23.3216 87.0259 23.2958 87.1842 23.1161C87.2185 23.0771 87.3523 22.9298 87.4498 22.7936C87.4875 22.741 87.6342 22.5386 87.7205 22.2519C87.7671 22.0968 87.8303 21.8081 87.7621 21.4545C87.6847 21.0528 87.4616 20.6972 87.1389 20.4527L86.1596 21.7452ZM85.5652 22.606L84.1206 21.8691C83.8772 22.3463 83.7079 22.8586 83.6623 23.1347L85.2623 23.3988L86.8623 23.663C86.8569 23.6959 86.8517 23.7201 86.8495 23.7301C86.8469 23.7421 86.8449 23.7503 86.844 23.7537C86.8424 23.7603 86.8425 23.7595 86.845 23.7508C86.85 23.7337 86.8601 23.701 86.8757 23.6568C86.9075 23.5666 86.9533 23.4534 87.0097 23.3429L85.5652 22.606ZM85.2623 23.3988L86.4582 22.3035C86.622 22.4824 86.6783 22.7193 86.6644 22.8954C86.6586 22.9681 86.6427 23.0165 86.6336 23.0396C86.6243 23.063 86.6165 23.0748 86.6133 23.0793C86.6103 23.0836 86.6035 23.0928 86.5875 23.1072C86.5738 23.1196 86.5317 23.1555 86.4532 23.1942C86.3815 23.2295 86.2157 23.2982 85.9758 23.2995C85.7087 23.3009 85.3833 23.215 85.1058 22.9779L86.1596 21.7452L87.2133 20.5125C86.3809 19.801 85.4293 20.0832 85.0211 20.2841C84.5668 20.5077 84.2077 20.8614 83.9592 21.2152C83.5136 21.8497 82.9609 23.2871 84.0665 24.4942L85.2623 23.3988ZM89.8934 25.2794L88.914 26.572C88.5972 26.3319 88.3838 25.9838 88.3105 25.5992C88.2465 25.263 88.3066 24.9935 88.3465 24.8588C88.4199 24.6108 88.5376 24.454 88.5391 24.4518C88.5641 24.4163 88.5778 24.4035 88.4798 24.5158C88.413 24.5923 88.3022 24.719 88.1928 24.8633C88.0852 25.0051 87.9449 25.2075 87.83 25.4533L89.299 26.1402L90.768 26.8271C90.7498 26.866 90.7586 26.8371 90.9229 26.649C90.9608 26.6055 91.093 26.4583 91.1912 26.3187C91.2294 26.2645 91.3724 26.0633 91.4563 25.7796C91.5015 25.6271 91.5632 25.3419 91.4966 24.9924C91.4208 24.5945 91.2007 24.2354 90.8727 23.9869L89.8934 25.2794ZM89.299 26.1402L87.8281 25.4574C87.72 25.6902 87.63 25.9182 87.5655 26.0948C87.5215 26.2152 87.4399 26.4439 87.4054 26.6179L88.9962 26.933L90.5869 27.2481C90.5783 27.2918 90.5699 27.3234 90.5679 27.3311C90.5647 27.3433 90.5625 27.3509 90.5621 27.3523C90.5612 27.3553 90.5626 27.3503 90.5672 27.3362C90.5761 27.3087 90.5912 27.2643 90.6119 27.2078C90.6539 27.0927 90.7097 26.9526 90.7699 26.823L89.299 26.1402ZM88.9962 26.933L90.192 25.8377C90.3559 26.0166 90.4121 26.2535 90.3982 26.4296C90.3925 26.5023 90.3765 26.5507 90.3674 26.5738C90.3581 26.5972 90.3503 26.609 90.3471 26.6135C90.3441 26.6178 90.3373 26.627 90.3213 26.6414C90.3076 26.6538 90.2656 26.6897 90.187 26.7284C90.1153 26.7637 89.9495 26.8324 89.7096 26.8337C89.4425 26.8351 89.1171 26.7492 88.8397 26.5121L89.8934 25.2794L90.9471 24.0467C90.1147 23.3352 89.1631 23.6174 88.7549 23.8183C88.3006 24.0419 87.9415 24.3956 87.693 24.7494C87.2474 25.3839 86.6947 26.8213 87.8003 28.0284L88.9962 26.933ZM92.8201 25.6648L91.746 26.8798C91.4747 26.6399 91.296 26.3167 91.2337 25.9673C91.1778 25.6531 91.2294 25.3986 91.2699 25.2582C91.343 25.0044 91.4631 24.8442 91.4688 24.8361C91.4978 24.7952 91.5175 24.7762 91.4162 24.8901C91.3486 24.9661 91.2344 25.0945 91.1213 25.2431C91.0093 25.3902 90.8658 25.5985 90.7496 25.854L92.2257 26.5255L93.7018 27.1971C93.6794 27.2462 93.6786 27.2267 93.8398 27.0454C93.8745 27.0064 94.0127 26.8557 94.1149 26.7115C94.1573 26.6517 94.3026 26.4469 94.3863 26.1565C94.4321 25.9977 94.4853 25.7269 94.4268 25.3985C94.362 25.0348 94.1767 24.6996 93.8941 24.4498L92.8201 25.6648ZM92.2257 26.5255L90.7811 25.7886C90.5309 26.2792 90.3665 26.801 90.3228 27.0655L91.9229 27.3297L93.5229 27.5938C93.5177 27.625 93.5129 27.6477 93.511 27.6566C93.5086 27.6675 93.5069 27.6747 93.5062 27.6774C93.5049 27.6826 93.5053 27.6805 93.5081 27.6709C93.5135 27.652 93.5238 27.6178 93.5394 27.5727C93.5715 27.48 93.6165 27.3678 93.6703 27.2624L92.2257 26.5255ZM91.9229 27.3297L93.1267 26.2432C93.284 26.4174 93.3384 26.6474 93.325 26.8191C93.3194 26.8902 93.3039 26.9377 93.2948 26.9608C93.2856 26.9841 93.2776 26.9964 93.2738 27.0017C93.2703 27.0068 93.2625 27.0171 93.2449 27.0329C93.2298 27.0465 93.1853 27.0842 93.1032 27.1238C93.0278 27.1603 92.8571 27.2288 92.6124 27.2266C92.3397 27.224 92.0177 27.1304 91.7483 26.8931L92.8201 25.6761L93.8919 24.4591C93.0704 23.7356 92.115 23.9992 91.6921 24.2035C91.2312 24.4263 90.869 24.7827 90.6197 25.1376C90.1683 25.7803 89.6297 27.2092 90.719 28.4162L91.9229 27.3297ZM92.8201 25.6761L94.4417 25.6762L94.4417 25.6649L92.8201 25.6648L91.1984 25.6646L91.1984 25.676L92.8201 25.6761ZM86.5966 24.6448L86.0791 26.1817C85.679 26.047 85.3619 25.7646 85.177 25.4148C85.0176 25.1133 84.9963 24.8403 84.994 24.7082C84.9895 24.4605 85.0493 24.2831 85.0494 24.2825C85.0611 24.2442 85.0679 24.2328 85.0122 24.3662C84.9476 24.5206 84.7584 24.9527 84.6897 25.4145L86.2938 25.6529L87.8979 25.8912C87.8966 25.9 87.9092 25.8451 88.0045 25.6173C88.0286 25.5595 88.1049 25.3832 88.1533 25.2234C88.1719 25.1621 88.2418 24.9349 88.2368 24.6505C88.2341 24.5 88.2097 24.2119 88.0442 23.8988C87.8532 23.5374 87.5269 23.247 87.1142 23.108L86.5966 24.6448ZM86.2938 25.6529L84.6814 25.4802C84.6523 25.7513 84.6417 26.0031 84.6399 26.2001C84.6386 26.3423 84.6397 26.5861 84.6712 26.7776L86.2713 26.5137L87.8714 26.2498C87.8778 26.2888 87.8809 26.3179 87.8821 26.329C87.8835 26.3427 87.8843 26.352 87.8845 26.3554C87.885 26.362 87.8847 26.3602 87.8843 26.3485C87.8834 26.3258 87.8826 26.2851 87.8831 26.2298C87.8841 26.1182 87.8904 25.9736 87.9062 25.8256L86.2938 25.6529ZM86.2713 26.5137L87.0452 25.0886C87.2699 25.2106 87.4015 25.4266 87.4441 25.5994C87.4616 25.6707 87.4616 25.7211 87.4603 25.7442C87.459 25.7677 87.4556 25.7795 87.4547 25.7825C87.4539 25.7853 87.4513 25.7938 87.442 25.8105C87.4343 25.8243 87.4075 25.87 87.3473 25.9306C87.2929 25.9852 87.1587 26.1048 86.9306 26.1847C86.6756 26.274 86.3315 26.2996 85.9835 26.1575L86.5966 24.6562L87.2098 23.1549C86.178 22.7335 85.3591 23.3302 85.0474 23.6437C84.6928 24.0003 84.4674 24.4483 84.3452 24.8606C84.1298 25.5871 84.0429 27.149 85.4974 27.9388L86.2713 26.5137ZM86.5966 24.6562L88.2183 24.6563L88.2183 24.645L86.5966 24.6448L84.975 24.6447L84.975 24.656L86.5966 24.6562ZM90.6781 27.8619L89.7292 29.177C89.3471 28.9012 89.127 28.4892 89.0765 28.0706C89.0344 27.7223 89.1183 27.4553 89.1589 27.3437C89.2052 27.2163 89.2576 27.1257 89.2823 27.085C89.3103 27.0389 89.3335 27.007 89.3434 26.9936C89.3602 26.9711 89.3647 26.9679 89.2678 27.0767C89.1508 27.2081 88.8383 27.5504 88.6241 27.9603L90.0613 28.7114L91.4985 29.4625C91.4974 29.4646 91.5325 29.4105 91.6903 29.2333C91.7308 29.1878 91.8544 29.0523 91.9462 28.9288C91.98 28.8833 92.1154 28.7038 92.2069 28.4522C92.2536 28.3239 92.3399 28.0424 92.2964 27.6821C92.2445 27.2514 92.0189 26.8297 91.627 26.5469L90.6781 27.8619ZM90.0613 28.7114L88.5825 28.0458C88.4699 28.2961 88.3846 28.5314 88.3285 28.6917C88.3144 28.7321 88.3016 28.7693 88.2912 28.7996C88.2801 28.8319 88.2727 28.8532 88.2667 28.8704C88.2599 28.8896 88.2603 28.8879 88.2648 28.8763C88.2673 28.8701 88.2746 28.8515 88.2861 28.826C88.2948 28.8067 88.3212 28.7483 88.3643 28.6759L89.7585 29.5042L91.1526 30.3325C91.1999 30.253 91.2311 30.1852 91.245 30.1541C91.2617 30.1169 91.2749 30.0844 91.2836 30.0622C91.3008 30.0184 91.3158 29.9762 91.3259 29.9476C91.3359 29.9193 91.3806 29.7895 91.3903 29.7618C91.4352 29.6332 91.4845 29.5005 91.5401 29.377L90.0613 28.7114ZM89.7585 29.5042L90.9631 28.4186C91.1286 28.6022 91.1809 28.8407 91.166 29.0126C91.1599 29.084 91.144 29.1312 91.1351 29.1534C91.126 29.176 91.1184 29.1874 91.1151 29.1919C91.1121 29.1963 91.1049 29.2059 91.0879 29.2211C91.0733 29.2341 91.0294 29.2712 90.9479 29.3104C90.8731 29.3464 90.7029 29.4147 90.4587 29.4124C90.1865 29.4098 89.8646 29.3162 89.5951 29.0789L90.6669 27.8619L91.7387 26.645C90.9174 25.9216 89.9623 26.1852 89.5407 26.3883C89.0807 26.6098 88.7188 26.9642 88.4693 27.3162C88.0238 27.9445 87.461 29.3773 88.5538 30.5899L89.7585 29.5042ZM90.6669 27.8619L90.6668 29.4836L90.678 29.4836L90.6781 27.8619L90.6782 26.2403L90.667 26.2403L90.6669 27.8619ZM87.9869 27.1028L87.4124 28.6193C86.9637 28.4493 86.6421 28.1001 86.4875 27.7032C86.3596 27.375 86.3751 27.0947 86.3864 26.979C86.3994 26.8454 86.4271 26.7458 86.4405 26.7013C86.4557 26.6507 86.4698 26.6148 86.4757 26.6001C86.4851 26.5769 86.4877 26.574 86.421 26.7057C86.3398 26.8661 86.1243 27.2797 86.0227 27.7355L87.6056 28.0882L89.1884 28.4409C89.1878 28.4437 89.2078 28.3816 89.3145 28.1711C89.3417 28.1172 89.4263 27.9551 89.483 27.8147C89.5038 27.7633 89.5887 27.5573 89.6144 27.2937C89.6275 27.1602 89.6418 26.8653 89.5096 26.5258C89.3506 26.1177 89.0214 25.7606 88.5615 25.5864L87.9869 27.1028ZM87.6056 28.0882L86.0132 27.7815C85.9601 28.0573 85.9317 28.3102 85.9151 28.4894C85.9068 28.5792 85.9009 28.6567 85.8973 28.7025C85.8964 28.7144 85.8957 28.7232 85.8951 28.7303C85.8945 28.7376 85.8943 28.7403 85.8943 28.7401C85.8943 28.7398 85.8945 28.7378 85.8948 28.7346C85.8952 28.7314 85.8958 28.7256 85.8967 28.7178C85.8977 28.7096 85.9027 28.6673 85.9138 28.6112L87.5046 28.9264L89.0953 29.2415C89.1078 29.1784 89.1143 29.1265 89.1167 29.1064C89.1198 29.0803 89.1221 29.0572 89.1236 29.0415C89.1264 29.011 89.129 28.9783 89.1308 28.9552C89.1349 28.9022 89.1389 28.8502 89.1446 28.7885C89.1561 28.6647 89.1726 28.5269 89.198 28.3949L87.6056 28.0882ZM87.5046 28.9264L88.4105 27.5813C88.6211 27.7232 88.7279 27.9453 88.7543 28.1122C88.7653 28.1816 88.7613 28.2297 88.7583 28.2515C88.7553 28.2739 88.7511 28.285 88.7498 28.2885C88.7486 28.2918 88.7448 28.3012 88.7332 28.3185C88.7234 28.3331 88.6914 28.3783 88.6241 28.4353C88.5627 28.4874 88.4169 28.5956 88.1816 28.6552C87.919 28.7217 87.581 28.7146 87.2557 28.5503L87.9869 27.1028L88.7181 25.6554C87.7363 25.1594 86.877 25.6646 86.5272 25.961C86.1403 26.289 85.8788 26.7197 85.7241 27.1205C85.4507 27.8288 85.2442 29.3591 86.5987 30.2714L87.5046 28.9264ZM95.6348 24.4304L94.3327 25.3971C94.0925 25.0735 93.9897 24.677 94.0294 24.2921C94.0639 23.9579 94.1954 23.7228 94.2667 23.6124C94.3431 23.494 94.4175 23.4162 94.4517 23.3821C94.4901 23.3438 94.5193 23.3199 94.5288 23.3122C94.5331 23.3087 94.5076 23.3271 94.3353 23.4397C94.1001 23.5935 93.566 23.9341 93.1628 24.401L94.39 25.461L95.6172 26.5211C95.6738 26.4556 95.8125 26.3489 96.11 26.1544C96.2041 26.0929 96.4099 25.9619 96.5663 25.8356C96.6301 25.7842 96.829 25.6233 96.9916 25.3714C97.0784 25.237 97.219 24.9797 97.2556 24.625C97.2974 24.2196 97.1897 23.8043 96.9369 23.4638L95.6348 24.4304ZM94.39 25.461L93.1821 24.3789C92.9073 24.6857 92.6848 24.9893 92.5274 25.2178C92.4478 25.3333 92.3825 25.4332 92.3362 25.5045C92.2665 25.6118 92.2799 25.5899 92.303 25.5588L93.605 26.5257L94.9069 27.4925C94.9472 27.4382 94.9833 27.3829 94.9962 27.3632C95.0142 27.3358 95.0379 27.2992 95.056 27.2714C95.0965 27.209 95.1434 27.1375 95.1984 27.0577C95.3102 26.8954 95.4465 26.712 95.5978 26.5431L94.39 25.461ZM93.605 26.5257L95.0492 25.7882C95.0632 25.8156 95.0806 25.8669 95.0831 25.9314C95.0855 25.9923 95.0736 26.0335 95.0684 26.0477C95.0636 26.0609 95.0879 25.9998 95.1879 25.9181C95.2942 25.8312 95.3561 25.8263 95.3013 25.8364C95.27 25.8422 95.1351 25.8636 94.9403 25.8093C94.7188 25.7475 94.4605 25.5953 94.2813 25.3236L95.6348 24.4304L96.9883 23.5372C96.3388 22.553 95.2588 22.5462 94.7128 22.647C94.1173 22.7568 93.5659 23.0549 93.1353 23.4069C92.3428 24.0547 91.2843 25.5469 92.1607 27.2631L93.605 26.5257Z" fill="#003860" mask="url(#path-23-inside-5_1209_28665)"/>
<mask id="path-25-inside-6_1209_28665" fill="white">
<path fill-rule="evenodd" clip-rule="evenodd" d="M75.0684 34.0106C75.9201 34.3279 76.7608 32.4138 75.6065 32.0739C74.5418 31.7566 74.1158 33.6481 75.0684 34.0106Z"/>
</mask>
<path d="M75.0684 34.0106L74.4915 35.5263L74.5024 35.5303L75.0684 34.0106ZM75.6065 32.0739L75.1434 33.628L75.1484 33.6295L75.6065 32.0739ZM75.0684 34.0106L74.5024 35.5303C75.3859 35.8594 76.1812 35.5489 76.6685 35.1707C77.1354 34.8082 77.4461 34.3111 77.6164 33.8353C77.7853 33.3637 77.8812 32.7273 77.6755 32.0761C77.4432 31.3404 76.8722 30.756 76.0646 30.5182L75.6065 32.0739L75.1484 33.6295C75.0635 33.6045 74.9362 33.5452 74.8136 33.4249C74.6919 33.3054 74.6196 33.1696 74.5827 33.0528C74.5478 32.9423 74.547 32.8584 74.5497 32.8163C74.5524 32.7734 74.5601 32.7498 74.5629 32.742C74.5658 32.7338 74.5703 32.7236 74.5809 32.7082C74.5904 32.6944 74.6191 32.6557 74.6797 32.6086C74.7398 32.562 74.8566 32.4881 75.0327 32.4491C75.2218 32.4073 75.4347 32.4166 75.6344 32.491L75.0684 34.0106ZM75.6065 32.0739L76.0696 30.5197C75.285 30.2859 74.5123 30.4613 73.9326 30.9203C73.4115 31.3329 73.1326 31.8984 73.0084 32.3913C72.7989 33.2233 72.884 34.9144 74.4916 35.5263L75.0684 34.0106L75.6452 32.495C75.933 32.6046 76.0828 32.834 76.1332 32.9796C76.1737 33.0966 76.1588 33.1624 76.1535 33.1834C76.1499 33.1978 76.1175 33.3272 75.946 33.463C75.8511 33.5382 75.7178 33.6095 75.553 33.642C75.3861 33.675 75.2421 33.6574 75.1434 33.628L75.6065 32.0739Z" fill="#003860" mask="url(#path-25-inside-6_1209_28665)"/>
<mask id="path-27-inside-7_1209_28665" fill="white">
<path fill-rule="evenodd" clip-rule="evenodd" d="M96.0371 40.1513C96.8888 40.4798 97.7295 38.5544 96.5752 38.2145C95.5106 37.8972 95.0846 39.7887 96.0371 40.1513Z"/>
</mask>
<path d="M96.0371 40.1513L96.6208 38.6383L96.614 38.6357L96.0371 40.1513ZM96.5752 38.2145L96.1121 39.7686L96.1172 39.7701L96.5752 38.2145ZM96.0371 40.1513L95.4535 41.6643C96.3389 42.0058 97.1419 41.6991 97.6349 41.3179C98.1049 40.9544 98.4158 40.4545 98.5857 39.9788C98.7542 39.5066 98.8494 38.8705 98.6448 38.2201C98.4137 37.4853 97.8442 36.8976 97.0333 36.6589L96.5752 38.2145L96.1172 39.7701C96.0308 39.7447 95.9029 39.6848 95.7804 39.5641C95.6589 39.4443 95.5873 39.3088 95.5509 39.1933C95.5165 39.0839 95.5158 39.0013 95.5184 38.9603C95.5211 38.9185 95.5285 38.8957 95.5312 38.8883C95.5339 38.8806 95.5383 38.8703 95.5492 38.8545C95.5589 38.8403 95.5885 38.8004 95.6508 38.7522C95.7128 38.7043 95.8327 38.6291 96.0129 38.5905C96.2066 38.5491 96.4217 38.5615 96.6208 38.6383L96.0371 40.1513ZM96.5752 38.2145L97.0383 36.6603C96.2537 36.4266 95.481 36.602 94.9014 37.0609C94.3803 37.4735 94.1013 38.039 93.9772 38.5319C93.7676 39.3639 93.8527 41.0551 95.4603 41.6669L96.0371 40.1513L96.614 38.6357C96.9017 38.7452 97.0515 38.9747 97.102 39.1202C97.1425 39.2372 97.1276 39.303 97.1223 39.324C97.1187 39.3384 97.0863 39.4678 96.9147 39.6037C96.8198 39.6788 96.6866 39.7501 96.5217 39.7827C96.3549 39.8156 96.2108 39.798 96.1121 39.7686L96.5752 38.2145Z" fill="#003860" mask="url(#path-27-inside-7_1209_28665)"/>
<path d="M5.85524 259.672C9.19004 257.54 13.935 256.777 21.5642 259.692L22.3122 259.986C23.2107 260.347 23.6361 260.796 23.8424 261.253C24.06 261.736 24.0952 262.362 23.9526 263.182C23.8101 264.001 23.5074 264.92 23.1438 265.946C22.7878 266.95 22.3731 268.056 22.0546 269.167C21.42 271.382 21.089 273.867 22.4261 276.117C23.6987 278.259 26.3563 279.973 31.0556 281.15C30.8309 285.95 26.5775 289.007 22.0617 289.734C19.7321 290.108 17.4793 289.826 15.8674 288.922C14.3043 288.046 13.2979 286.569 13.3766 284.338L13.405 283.512L12.5788 283.499C11.1988 283.477 10.2048 283.058 9.4539 282.404C8.6872 281.737 8.11723 280.774 7.69145 279.579C6.82847 277.157 6.64251 274.061 6.3904 271.22C6.26722 269.833 6.12514 268.495 5.86142 267.399C5.60717 266.343 5.19256 265.294 4.35872 264.726C3.43894 264.1 2.31675 264.237 1.12629 264.836C0.980694 264.91 0.830604 264.99 0.677049 265.08C2.11411 262.975 3.72781 261.032 5.85524 259.672Z" stroke="#003860" stroke-width="1.62167"/>
<path d="M152.911 161.118C153.224 161.096 153.55 161.229 153.883 161.604C154.588 162.4 155.034 164.005 154.867 165.497L154.867 165.498C154.731 166.731 154.106 167.732 153.408 168.189C153.069 168.41 152.734 168.492 152.425 168.455C152.12 168.419 151.75 168.258 151.355 167.832C150.739 167.167 150.449 166.068 150.495 164.883C150.541 163.69 150.919 162.644 151.368 162.137L151.528 161.954C152.132 161.329 152.601 161.141 152.911 161.118Z" stroke="#003860" stroke-width="1.62167"/>
<path d="M156.726 167.461C157.709 166.806 158.766 166.512 159.43 166.585L159.796 166.625C160.572 166.763 160.967 167.026 161.159 167.259C161.364 167.509 161.447 167.861 161.338 168.355C161.107 169.401 160.074 170.699 158.784 171.427L158.782 171.428C157.717 172.031 156.554 172.1 155.781 171.793C155.405 171.644 155.141 171.416 154.988 171.137C154.836 170.861 154.751 170.46 154.864 169.889L154.865 169.886C155.038 168.989 155.751 168.111 156.726 167.461Z" stroke="#003860" stroke-width="1.62167"/>
<path d="M145.613 166.154C146.282 166.17 147.23 166.501 148.104 167.128C149.056 167.811 149.738 168.713 149.882 169.621L149.882 169.623C149.975 170.199 149.878 170.598 149.716 170.87C149.553 171.144 149.282 171.362 148.903 171.499C148.17 171.762 147.103 171.683 146.111 171.146L145.914 171.033L145.678 170.881C144.522 170.093 143.642 168.861 143.459 167.875C143.367 167.379 143.462 167.032 143.674 166.791C143.901 166.533 144.397 166.245 145.418 166.168L145.613 166.154Z" stroke="#003860" stroke-width="1.62167"/>
<path d="M149.741 173.066C150.313 173.035 150.689 173.176 150.935 173.364C151.186 173.555 151.373 173.85 151.467 174.25C151.66 175.071 151.425 176.23 150.685 177.217C149.786 178.411 148.37 179.259 147.32 179.343C146.827 179.382 146.499 179.253 146.285 179.016C146.082 178.791 145.879 178.357 145.852 177.561L145.864 177.186C145.884 176.504 146.325 175.485 147.106 174.593C147.882 173.706 148.842 173.117 149.741 173.066Z" stroke="#003860" stroke-width="1.62167"/>
<path d="M154.878 173.599C155.925 173.724 157.308 174.627 158.156 175.856L158.157 175.857C158.857 176.866 159.046 178.037 158.82 178.854C158.71 179.251 158.511 179.54 158.253 179.721C158 179.899 157.62 180.023 157.051 179.968L157.049 179.968C156.149 179.883 155.213 179.259 154.473 178.344C153.729 177.424 153.328 176.388 153.332 175.705L153.332 175.693C153.337 174.656 153.59 174.134 153.831 173.886C154.053 173.658 154.386 173.54 154.878 173.599Z" stroke="#003860" stroke-width="1.62167"/>
<path d="M152.602 168.91C153.021 168.89 153.386 169.024 153.694 169.27C154.346 169.788 154.723 170.794 154.581 171.688L154.581 171.69C154.471 172.391 153.945 173.052 153.221 173.385C152.524 173.706 151.699 173.698 150.961 173.141L150.961 173.141C150.402 172.715 150.164 172.055 150.203 171.349C150.243 170.62 150.573 169.974 150.976 169.652L151.257 169.426C151.789 169.065 152.242 168.928 152.602 168.91Z" stroke="#003860" stroke-width="1.62167"/>
<path d="M3.6552 199.979C3.96806 199.956 4.29443 200.089 4.62684 200.464C5.33258 201.261 5.77791 202.865 5.61089 204.357L5.61089 204.358C5.47519 205.591 4.85043 206.591 4.15168 207.048C3.81268 207.27 3.47873 207.352 3.16923 207.316C2.86366 207.28 2.49389 207.118 2.09897 206.693C1.48322 206.027 1.19281 204.928 1.23887 203.743C1.28523 202.55 1.66337 201.504 2.11215 200.997L2.27232 200.815C2.87577 200.189 3.3447 200.001 3.6552 199.979Z" stroke="#003860" stroke-width="1.62167"/>
<path d="M7.47056 206.322C8.45347 205.667 9.51047 205.372 10.1738 205.446L10.54 205.486C11.3157 205.624 11.7112 205.886 11.9032 206.12C12.1083 206.369 12.1909 206.722 12.0818 207.215C11.8507 208.262 10.8178 209.56 9.52784 210.288L9.52589 210.288C8.46164 210.891 7.29785 210.961 6.52488 210.653C6.14952 210.504 5.88562 210.277 5.73197 209.997C5.58012 209.721 5.49537 209.32 5.60805 208.749L5.60903 208.746C5.78248 207.849 6.49528 206.971 7.47056 206.322Z" stroke="#003860" stroke-width="1.62167"/>
<path d="M-3.64167 205.014C-2.97341 205.03 -2.02579 205.361 -1.15152 205.989C-0.200085 206.671 0.482438 207.574 0.626591 208.481L0.626591 208.483C0.719489 209.06 0.621685 209.459 0.46047 209.73C0.297495 210.004 0.0263271 210.223 -0.353059 210.359C-1.08622 210.622 -2.15249 210.543 -3.14502 210.006L-3.34228 209.893L-3.57762 209.741C-4.73396 208.953 -5.61386 207.721 -5.79709 206.735C-5.88923 206.239 -5.79436 205.892 -5.58215 205.651C-5.35447 205.393 -4.85916 205.105 -3.83796 205.029L-3.64167 205.014Z" stroke="#003860" stroke-width="1.62167"/>
<path d="M0.485283 211.926C1.05757 211.895 1.4335 212.036 1.67959 212.224C1.92968 212.415 2.11681 212.711 2.21077 213.11C2.40395 213.932 2.16888 215.091 1.42927 216.078C0.529821 217.272 -0.886106 218.119 -1.93615 218.203C-2.42913 218.243 -2.75732 218.113 -2.97127 217.876C-3.17385 217.651 -3.37705 217.217 -3.40377 216.421L-3.39202 216.046C-3.37152 215.364 -2.93041 214.345 -2.14961 213.453C-1.37364 212.567 -0.413872 211.977 0.485283 211.926Z" stroke="#003860" stroke-width="1.62167"/>
<path d="M5.622 212.471C6.66926 212.596 8.05242 213.499 8.90013 214.728L8.90111 214.729C9.60088 215.738 9.7904 216.909 9.56394 217.726C9.45381 218.123 9.25467 218.412 8.99746 218.593C8.74461 218.771 8.36453 218.896 7.79529 218.84L7.79334 218.84C6.8931 218.755 5.95708 218.131 5.2173 217.216C4.47318 216.296 4.07177 215.261 4.07592 214.577L4.07593 214.565C4.08107 213.528 4.33395 213.006 4.5751 212.758C4.79742 212.53 5.1302 212.412 5.622 212.471Z" stroke="#003860" stroke-width="1.62167"/>
<path d="M3.34661 207.772C3.76493 207.751 4.12972 207.886 4.43838 208.131C5.08999 208.65 5.46738 209.656 5.32489 210.549L5.32489 210.551C5.21505 211.252 4.68886 211.913 3.96537 212.246C3.26811 212.567 2.44282 212.559 1.70465 212.002L1.70563 212.002C1.14626 211.576 0.907884 210.917 0.946991 210.21C0.987331 209.482 1.31736 208.835 1.72057 208.513L2.00184 208.287C2.53401 207.927 2.98608 207.789 3.34661 207.772Z" stroke="#003860" stroke-width="1.62167"/>
<path d="M4.47161 22.5849C5.22453 22.6315 6.02881 23.016 6.7518 23.63C7.47142 24.2411 8.04254 25.0239 8.34537 25.7492C8.66568 26.5165 8.60747 27.0026 8.46145 27.2209L9.57269 28.3548C11.2209 27.2976 12.572 27.1369 13.5181 27.3786C14.4586 27.6189 15.1035 28.2782 15.3597 29.1073C15.8481 30.6878 14.9368 33.4126 10.4315 34.6127C10.2039 34.6722 10.0254 34.8008 9.91198 34.8939C9.78587 34.9975 9.66329 35.1229 9.54769 35.2542C9.31596 35.5175 9.05851 35.8664 8.78393 36.2727C8.23178 37.0898 7.56136 38.2137 6.82467 39.5284C5.34888 42.1621 3.57216 45.6209 1.87855 49.0671C0.184269 52.5146 -1.43206 55.961 -2.58905 58.5716C-3.16671 59.875 -3.63469 60.9799 -3.9399 61.7755C-4.09101 62.1695 -4.20998 62.5069 -4.28179 62.7618C-4.31613 62.8838 -4.34982 63.0224 -4.36385 63.1525C-4.3704 63.2133 -4.37854 63.3207 -4.35899 63.4425C-4.34623 63.5219 -4.29558 63.7757 -4.06607 63.9679L-3.95572 64.0461C-0.838349 65.9098 -0.0372234 67.915 -0.224725 69.355C-0.404436 70.7347 -1.52577 71.9388 -3.16932 72.3762L-3.50428 72.4533C-4.6103 72.6655 -5.45643 72.1414 -6.12332 71.1972C-6.80432 70.2329 -7.18724 68.9558 -7.28712 68.0926L-7.48326 66.4002L-8.67282 67.6199C-11.0866 70.0946 -13.6467 70.3549 -15.1144 69.6789C-15.8456 69.3419 -16.3248 68.7772 -16.4893 68.088C-16.6546 67.3949 -16.5296 66.4532 -15.8006 65.3312L-15.7986 65.3283C-15.4792 64.832 -14.8536 64.0888 -14.1236 63.5286C-13.3595 62.9421 -12.684 62.7084 -12.1919 62.8247L-11.2906 63.0376L-11.2075 62.2027C-11.1859 62.1508 -11.151 62.0738 -11.102 61.9693C-11.0007 61.7529 -10.8508 61.4477 -10.6566 61.0621C-10.2688 60.292 -9.71569 59.2218 -9.047 57.9431C-7.71 55.3864 -5.91933 52.0099 -4.09016 48.5597C-0.448064 41.69 3.38528 34.4613 4.03616 32.9549L4.26082 32.4364L3.85167 32.0467C3.30903 31.5293 2.02898 30.4455 1.32068 28.943C0.975211 28.2101 0.783247 27.4075 0.878502 26.5484C0.973323 25.6936 1.35971 24.7142 2.28305 23.6345L2.28402 23.6335C3.00441 22.7896 3.76125 22.541 4.47161 22.5849Z" stroke="#003860" stroke-width="1.62167"/>
<path d="M151.604 66.0646C151.622 66.5193 151.549 67.0562 151.286 67.6388L152.18 68.2756C152.162 68.2985 152.144 68.3199 152.13 68.341L151.043 69.9269L152.937 69.5989C153.346 69.5281 153.698 69.4857 154.001 69.4623C153.584 69.5823 153.133 69.7102 152.68 69.8343C151.849 70.0616 151.018 70.2801 150.39 70.4366C150.387 70.4375 150.383 70.4377 150.38 70.4386C150.386 70.409 150.391 70.3785 150.397 70.3477C150.541 69.6576 150.776 68.747 151.04 67.8419C151.224 67.2116 151.419 66.5941 151.604 66.0646ZM157.526 65.8376C156.462 66.1366 155.293 66.4461 154.473 66.6498C154.499 66.5247 154.528 66.3917 154.56 66.2524L157.086 65.8161C157.449 65.7534 157.766 65.7121 158.042 65.6882C157.875 65.7363 157.702 65.788 157.526 65.8376ZM155.699 62.2925C155.715 62.7022 155.656 63.1764 155.453 63.688L156.44 64.3834C156.436 64.3868 156.432 64.3908 156.428 64.3941L154.648 65.8793C154.877 64.9383 155.203 63.7943 155.524 62.812C155.583 62.6309 155.642 62.457 155.699 62.2925Z" stroke="#003860" stroke-width="1.62167"/>
<path d="M171.821 46.0961C173.314 46.0347 174.872 47.2237 175.325 49.7781L175.325 49.779C175.529 50.9249 175.342 52.5496 174.837 54.4958C174.338 56.4196 173.553 58.569 172.641 60.7231C171.014 64.5682 169.006 68.3716 167.588 70.8389C167.204 70.488 166.685 69.9973 166.081 69.3896C164.772 68.0734 163.068 66.2248 161.44 64.0982C159.808 61.9674 158.271 59.5814 157.276 57.1906C156.278 54.7922 155.858 52.4673 156.346 50.4122L156.346 50.4112C156.826 48.3897 157.62 47.6817 158.323 47.4651C159.098 47.2264 160.115 47.4622 161.258 48.0737C162.371 48.6696 163.448 49.538 164.254 50.2869C164.655 50.6587 164.98 50.9926 165.2 51.2352C165.31 51.3574 165.388 51.45 165.434 51.5087C165.449 51.5283 165.458 51.5399 165.46 51.5438C165.459 51.5422 165.445 51.5185 165.427 51.4813C165.418 51.4628 165.401 51.4254 165.386 51.3749C165.375 51.3356 165.344 51.224 165.358 51.078L166.933 51.4141C168.242 47.5581 170.284 46.1596 171.821 46.0961Z" stroke="#003860" stroke-width="1.62167"/>
<path d="M180.71 43.2297C180.482 43.8405 180.17 44.6484 179.848 45.4552C179.527 46.2629 179.198 47.0634 178.938 47.6612C178.905 47.7377 178.872 47.8098 178.841 47.878C178.833 47.8688 178.823 47.8602 178.815 47.8507C178.66 47.6746 178.498 47.4688 178.329 47.2491C178.166 47.0376 177.988 46.8043 177.826 46.6074L177.412 46.1035L177.174 46.2245L176.854 45.7909C176.317 45.0634 175.861 44.5056 175.54 44.1062C175.567 44.099 175.594 44.0903 175.622 44.0828C176.271 43.9105 177.169 43.7259 178.092 43.5674C179.013 43.4091 179.937 43.2808 180.633 43.217C180.661 43.2144 180.689 43.2125 180.716 43.2102C180.713 43.2165 180.712 43.2234 180.71 43.2297Z" stroke="#003860" stroke-width="1.62167"/>
<path d="M92.2186 200.43C96.4235 198.619 100.572 198.965 103.859 200.186C105.504 200.797 106.921 201.623 108.006 202.492C109.105 203.372 109.814 204.255 110.115 204.956L110.302 205.395L110.778 205.443C110.985 205.464 111.156 205.4 111.187 205.39C111.254 205.367 111.318 205.339 111.368 205.316C111.467 205.27 111.598 205.204 111.726 205.14C111.996 205.005 112.356 204.829 112.805 204.65C113.703 204.292 114.96 203.92 116.513 203.873L116.517 203.873C117.793 203.828 119.516 204.261 120.754 205.267C121.765 206.089 122.483 207.313 122.337 209.103C121.678 208.591 120.581 207.865 119.153 208.071L119.15 208.071C118.653 208.145 118.325 208.467 118.121 208.755C117.919 209.04 117.768 209.389 117.644 209.721C117.517 210.059 117.395 210.447 117.274 210.821C117.15 211.205 117.022 211.592 116.873 211.972C116.571 212.742 116.21 213.41 115.716 213.878C115.25 214.321 114.627 214.621 113.693 214.598L112.719 214.573L112.873 215.535C113.716 220.84 113.676 223.518 113.214 225.322C112.985 226.212 112.646 226.916 112.217 227.648C111.999 228.02 111.762 228.392 111.499 228.808C111.239 229.22 110.959 229.668 110.67 230.17L110.669 230.173C109.652 231.957 108.247 232.852 106.655 232.925C105.023 233.001 103.01 232.222 100.813 230.253L99.9329 229.464L99.5139 230.568C99.2279 231.321 98.7742 231.774 98.2579 232.041C97.7256 232.317 97.0798 232.417 96.4063 232.373C95.7333 232.328 95.0754 232.141 94.5558 231.887C94.0041 231.618 93.7339 231.339 93.6642 231.199L93.0003 229.856L92.2394 231.146C90.3104 234.416 86.2003 235.114 82.9082 233.14C79.6801 231.205 77.1659 226.575 79.0471 219.058C79.7016 216.458 80.3506 215.24 80.7076 214.638C80.7541 214.56 80.7973 214.49 80.8375 214.424C80.8762 214.361 80.9161 214.296 80.9508 214.237C81.0027 214.148 81.1161 213.958 81.1579 213.741C81.1833 213.608 81.1887 213.437 81.1276 213.252C81.0668 213.069 80.9611 212.935 80.863 212.844C80.7008 212.694 80.4972 212.608 80.3972 212.565L80.3963 212.565C79.841 212.324 79.1777 212.214 78.6434 212.122C78.0546 212.021 77.5883 211.935 77.2293 211.781C76.9031 211.641 76.7717 211.491 76.7138 211.296C76.6399 211.047 76.6319 210.55 76.9873 209.614L76.9883 209.615C77.7105 207.747 78.2311 206.003 78.2563 204.545C78.269 203.805 78.156 203.094 77.8405 202.464C77.6717 202.127 77.4502 201.829 77.1804 201.568C77.876 200.981 78.5614 200.675 79.2059 200.545C80.0556 200.375 80.9037 200.498 81.7019 200.794C83.3348 201.4 84.6105 202.672 84.9566 203.184L85.2271 203.586L85.7085 203.538C86.1925 203.49 86.7303 203.29 87.2389 203.059C87.7638 202.82 88.3372 202.512 88.9098 202.193C90.0865 201.536 91.2479 200.845 92.2166 200.431L92.2186 200.43Z" stroke="#003860" stroke-width="1.62167"/>
<path d="M79.7059 204.491C80.3578 204.805 81.0109 205.161 81.53 205.663C82.0641 206.18 82.4635 206.856 82.5289 207.842C82.5917 208.791 82.347 210.091 81.5002 211.873C81.2388 211.891 80.9255 211.882 80.5949 211.822C80.0964 211.73 79.6181 211.541 79.2512 211.253C78.8975 210.975 78.6351 210.597 78.5414 210.066C78.445 209.52 78.5156 208.74 78.9732 207.659C79.3474 206.784 79.6304 205.845 79.6951 204.942C79.7059 204.792 79.7079 204.642 79.7059 204.491Z" stroke="#003860" stroke-width="1.62167"/>
<path d="M116.504 207.576C117.093 207.487 117.719 207.551 118.284 207.698C117.847 208.005 117.574 208.395 117.386 208.794C117.192 209.204 117.071 209.671 116.967 210.024C116.853 210.407 116.741 210.734 116.565 211.031L116.563 211.033C115.933 212.105 115.438 212.714 115.07 213.03C114.889 213.185 114.764 213.248 114.692 213.273C114.631 213.293 114.609 213.286 114.606 213.285C114.579 213.279 114.454 213.224 114.258 212.927C114.097 212.683 113.952 212.373 113.803 212.029C113.836 210.334 114.218 209.282 114.694 208.64C115.175 207.992 115.811 207.681 116.504 207.576Z" stroke="#003860" stroke-width="1.62167"/>
<path d="M92.3476 214.937C92.6617 214.863 92.992 214.975 93.3895 215.414C93.778 215.844 94.1006 216.458 94.3386 217.019L94.1003 217.019L94.777 218.227C94.9076 218.46 95.0568 218.648 95.1715 218.791C95.2884 218.936 95.3568 219.02 95.4127 219.104C95.4165 219.118 95.4238 219.147 95.4302 219.197C95.4437 219.301 95.4485 219.452 95.438 219.654C95.417 220.058 95.3385 220.589 95.2103 221.218C94.9548 222.473 94.5223 224.022 94.0518 225.546C93.5826 227.066 93.0819 228.541 92.696 229.64C92.5032 230.189 92.3395 230.643 92.2232 230.96C92.165 231.119 92.118 231.244 92.0864 231.327C92.0829 231.337 92.0788 231.345 92.0757 231.354C91.2909 232.431 90.475 233.266 89.4505 233.759C88.4185 234.255 87.0823 234.45 85.1887 234.048C82.9249 233.568 81.4195 232.241 80.4263 230.837C79.8276 229.991 79.4242 229.126 79.1629 228.429C80.6091 228.543 81.7807 228.459 82.7625 228.138C84.0508 227.717 84.9259 226.924 85.6455 225.878C86.3393 224.868 86.9231 223.566 87.6048 222.114C88.2982 220.637 89.1261 218.924 90.3318 216.977C91.2562 215.483 91.9481 215.031 92.3476 214.937Z" stroke="#003860" stroke-width="1.62167"/>
<path d="M99.6083 214.962C100.086 214.591 100.487 214.502 100.86 214.626C101.249 214.756 101.805 215.176 102.45 216.28L102.639 216.636C103.719 218.675 104.415 220.305 104.987 221.619C105.544 222.901 106.019 223.977 106.646 224.768C107.32 225.62 108.155 226.13 109.355 226.373C110.269 226.558 111.402 226.588 112.847 226.522C112.595 227.367 112.221 228.459 111.614 229.524C110.747 231.042 109.47 232.387 107.511 232.804L107.11 232.875C105.243 233.137 103.82 232.731 102.691 232.012C101.568 231.297 100.693 230.243 99.9782 229.113C99.9774 229.11 99.9771 229.107 99.9762 229.104C99.9537 229.031 99.9208 228.924 99.8796 228.788C99.7971 228.517 99.6809 228.129 99.5437 227.659C99.269 226.719 98.9112 225.454 98.5714 224.138C98.2308 222.819 97.9117 221.462 97.7123 220.335C97.6126 219.771 97.546 219.279 97.5191 218.886C97.4974 218.569 97.5067 218.369 97.5211 218.263L97.5358 218.187C97.6441 217.842 97.9034 217.228 98.28 216.589C98.6602 215.944 99.1209 215.341 99.6083 214.962Z" stroke="#003860" stroke-width="1.62167"/>
<mask id="path-51-inside-8_1209_28665" fill="white">
<path fill-rule="evenodd" clip-rule="evenodd" d="M106.988 221.784C108.289 223.495 110.79 223.438 112.55 222.668C112.774 222.578 112.875 223.518 111.216 224.254C108.872 225.318 107.055 223.177 106.988 221.943L106.988 221.784Z"/>
</mask>
<path d="M106.988 221.784L108.279 220.803L105.367 216.973L105.367 221.784L106.988 221.784ZM112.55 222.668L111.943 221.164L111.921 221.173L111.9 221.182L112.55 222.668ZM111.216 224.254L110.558 222.771L110.552 222.774L110.545 222.777L111.216 224.254ZM106.988 221.943L105.367 221.943L105.367 221.987L105.369 222.031L106.988 221.943ZM106.988 221.784L105.697 222.766C106.682 224.06 108.092 224.632 109.431 224.77C110.752 224.905 112.098 224.636 113.2 224.154L112.55 222.668L111.9 221.182C111.242 221.47 110.457 221.614 109.762 221.543C109.086 221.474 108.595 221.218 108.279 220.803L106.988 221.784ZM112.55 222.668L113.157 224.172C112.63 224.385 112.003 224.293 111.554 223.897C111.195 223.582 111.099 223.211 111.072 223.051C111.011 222.699 111.113 222.478 111.132 222.439C111.197 222.307 111.163 222.503 110.558 222.771L111.216 224.254L111.873 225.736C112.928 225.268 113.673 224.626 114.046 223.863C114.22 223.508 114.359 223.023 114.267 222.497C114.225 222.25 114.097 221.815 113.697 221.463C113.205 221.03 112.527 220.929 111.943 221.164L112.55 222.668ZM111.216 224.254L110.545 222.777C109.986 223.031 109.566 222.917 109.21 222.655C109.012 222.509 108.847 222.321 108.735 222.135C108.613 221.933 108.606 221.825 108.608 221.855L106.988 221.943L105.369 222.031C105.435 223.242 106.24 224.495 107.286 225.266C108.442 226.117 110.102 226.541 111.886 225.73L111.216 224.254ZM106.988 221.943L108.61 221.943L108.61 221.784L106.988 221.784L105.367 221.784L105.367 221.943L106.988 221.943Z" fill="#003860" mask="url(#path-51-inside-8_1209_28665)"/>
<mask id="path-53-inside-9_1209_28665" fill="white">
<path fill-rule="evenodd" clip-rule="evenodd" d="M84.2033 222.157C84.0574 224.331 81.9379 225.656 80.054 226.007C79.8073 226.053 80.2333 226.891 82.0275 226.585C84.5618 226.166 84.9097 223.357 84.2818 222.304L84.2033 222.168L84.2033 222.157Z"/>
</mask>
<path d="M84.2033 222.157L85.825 222.157L82.5853 222.048L84.2033 222.157ZM80.054 226.007L80.3468 227.602L80.351 227.602L80.054 226.007ZM82.0275 226.585L81.7631 224.985L81.7552 224.986L82.0275 226.585ZM84.2818 222.304L82.8774 223.115L82.883 223.124L82.8888 223.134L84.2818 222.304ZM84.2033 222.168L82.5817 222.168L82.5816 222.602L82.7989 222.979L84.2033 222.168ZM84.2033 222.157L82.5853 222.048C82.5489 222.59 82.2735 223.081 81.7479 223.515C81.2064 223.962 80.4697 224.28 79.757 224.413L80.054 226.007L80.351 227.602C81.5222 227.383 82.7871 226.863 83.8128 226.016C84.8545 225.156 85.7118 223.898 85.8213 222.265L84.2033 222.157ZM80.054 226.007L79.7612 224.412C79.1776 224.519 78.6495 224.934 78.4486 225.567C78.2828 226.09 78.4081 226.54 78.5082 226.781C78.719 227.289 79.1117 227.624 79.4513 227.824C80.1855 228.258 81.1642 228.377 82.2999 228.184L82.0275 226.585L81.7552 224.986C81.0967 225.099 80.9653 224.952 81.0996 225.031C81.1392 225.055 81.3595 225.19 81.5037 225.538C81.5705 225.699 81.689 226.079 81.5401 226.548C81.3562 227.128 80.8687 227.506 80.3468 227.602L80.054 226.007ZM82.0275 226.585L82.292 228.185C84.2252 227.866 85.3699 226.584 85.8628 225.241C86.3091 224.025 86.3019 222.526 85.6748 221.474L84.2818 222.304L82.8888 223.134C82.8671 223.098 82.9212 223.183 82.9304 223.421C82.9387 223.637 82.9045 223.888 82.8181 224.124C82.6605 224.553 82.3641 224.886 81.7631 224.985L82.0275 226.585ZM84.2818 222.304L85.6862 221.493L85.6077 221.357L84.2033 222.168L82.7989 222.979L82.8774 223.115L84.2818 222.304ZM84.2033 222.168L85.825 222.168L85.825 222.157L84.2033 222.157L82.5817 222.156L82.5817 222.168L84.2033 222.168Z" fill="#003860" mask="url(#path-53-inside-9_1209_28665)"/>
<path d="M86.9814 208.648C87.3792 208.506 87.7396 208.463 88.0038 208.508C88.1954 208.541 88.3362 208.614 88.4374 208.77C88.2524 208.763 88.0359 208.744 87.7773 208.718C87.5405 208.694 87.268 208.666 86.9814 208.648Z" stroke="#003860" stroke-width="1.62167"/>
<path d="M106.456 207.762C106.719 207.717 107.074 207.759 107.464 207.895C107.181 207.913 106.911 207.94 106.677 207.963C106.42 207.989 106.204 208.007 106.019 208.015C106.123 207.866 106.266 207.794 106.456 207.762Z" stroke="#003860" stroke-width="1.62167"/>
<path d="M95.2372 216.845C95.9931 216.762 97.2 216.802 98.119 217.117C98.6148 217.286 98.9238 217.5 99.0751 217.712C99.1934 217.879 99.28 218.131 99.1218 218.604C99.0104 218.938 98.9091 219.122 98.8415 219.216C98.8337 219.211 98.8241 219.208 98.8152 219.202C98.7069 219.128 98.5833 219.018 98.4304 218.87C98.301 218.744 98.1139 218.553 97.9529 218.418C97.868 218.347 97.7545 218.26 97.6229 218.191C97.4981 218.126 97.2791 218.035 97.0086 218.062C96.6981 218.093 96.4617 218.263 96.3123 218.463C96.1815 218.639 96.118 218.834 96.0818 218.988C96.0087 219.297 95.9881 219.706 95.9967 220.2C95.9992 220.36 95.9818 220.466 95.9645 220.533C95.9355 220.514 95.9014 220.488 95.8658 220.45C95.8558 220.435 95.8209 220.377 95.775 220.251C95.7239 220.111 95.6798 219.944 95.6432 219.775C95.6072 219.608 95.5817 219.456 95.5632 219.344C95.556 219.301 95.5452 219.232 95.5349 219.184C95.5321 219.171 95.5252 219.14 95.5144 219.105C95.5093 219.088 95.498 219.053 95.4792 219.01C95.4741 218.998 95.4153 218.853 95.2722 218.727C95.1896 218.654 95.0081 218.527 94.742 218.525C94.4584 218.522 94.2588 218.663 94.155 218.769C93.9966 218.931 93.9538 219.116 93.9509 219.127C93.9395 219.17 93.9362 219.21 93.9323 219.239L93.9284 219.239C93.9134 219.363 93.8777 219.399 93.8747 219.402C93.8723 219.405 93.8615 219.417 93.823 219.422C93.7219 219.436 93.5583 219.386 93.4568 219.26C93.3923 219.18 93.2929 218.994 93.4646 218.605C93.6464 218.193 94.1326 217.583 95.2372 216.845ZM95.5417 219.406C95.5412 219.413 95.5402 219.427 95.5378 219.446C95.5369 219.452 95.5338 219.465 95.531 219.481C95.5331 219.465 95.5359 219.45 95.5378 219.435L95.194 219.393L95.5417 219.406Z" stroke="#003860" stroke-width="1.62167"/>
<mask id="path-58-inside-10_1209_28665" fill="white">
<path fill-rule="evenodd" clip-rule="evenodd" d="M100.709 225.103C101.337 227.175 103.501 231.706 107.526 231.084C107.751 231.038 107.549 231.978 105.732 232.114C101.819 232.386 100.911 228.58 100.709 225.103Z"/>
</mask>
<path d="M100.709 225.103L102.261 224.632L99.09 225.196L100.709 225.103ZM107.526 231.084L107.774 232.686L107.811 232.68L107.847 232.673L107.526 231.084ZM105.732 232.114L105.844 233.732L105.853 233.731L105.732 232.114ZM100.709 225.103L99.1569 225.573C99.5107 226.741 100.295 228.618 101.61 230.157C102.946 231.72 105.008 233.114 107.774 232.686L107.526 231.084L107.278 229.481C106.019 229.676 104.986 229.115 104.076 228.05C103.146 226.962 102.535 225.537 102.261 224.632L100.709 225.103ZM107.526 231.084L107.847 232.673C107.604 232.722 107.274 232.726 106.927 232.578C106.574 232.427 106.328 232.172 106.181 231.915C105.92 231.459 105.977 231.041 106.002 230.907C106.066 230.569 106.227 230.405 106.255 230.377C106.359 230.275 106.264 230.448 105.611 230.497L105.732 232.114L105.853 233.731C107.017 233.644 107.931 233.28 108.534 232.685C108.812 232.41 109.095 232.011 109.19 231.506C109.231 231.287 109.282 230.803 108.995 230.303C108.836 230.025 108.573 229.754 108.199 229.594C107.831 229.438 107.476 229.439 107.205 229.494L107.526 231.084ZM105.732 232.114L105.62 230.496C104.919 230.545 104.461 230.408 104.142 230.222C103.814 230.03 103.515 229.717 103.25 229.234C102.692 228.215 102.426 226.701 102.328 225.009L100.709 225.103L99.09 225.196C99.1935 226.982 99.4828 229.109 100.407 230.794C100.884 231.664 101.558 232.468 102.507 233.022C103.465 233.582 104.589 233.819 105.844 233.732L105.732 232.114Z" fill="#003860" mask="url(#path-58-inside-10_1209_28665)"/>
<mask id="path-60-inside-11_1209_28665" fill="white">
<path fill-rule="evenodd" clip-rule="evenodd" d="M92.4563 225.77C91.8057 227.831 89.6299 232.373 85.6155 231.716C85.3688 231.671 85.593 232.622 87.3984 232.758C91.3119 233.053 92.2317 229.236 92.4563 225.77Z"/>
</mask>
<path d="M92.4563 225.77L94.0746 225.875L90.9098 225.282L92.4563 225.77ZM85.6155 231.716L85.3225 233.311L85.338 233.314L85.3535 233.316L85.6155 231.716ZM87.3984 232.758L87.2765 234.375L87.2766 234.375L87.3984 232.758ZM92.4563 225.77L90.9098 225.282C90.6229 226.191 90.0021 227.618 89.0677 228.705C88.1527 229.77 87.1251 230.32 85.8776 230.116L85.6155 231.716L85.3535 233.316C88.1204 233.769 90.1879 232.377 91.527 230.82C92.8468 229.285 93.6391 227.411 94.0028 226.258L92.4563 225.77ZM85.6155 231.716L85.9086 230.121C85.6563 230.075 85.3272 230.074 84.9814 230.21C84.6254 230.35 84.3549 230.595 84.1788 230.872C83.8584 231.376 83.8978 231.881 83.9377 232.114C84.0273 232.638 84.3196 233.046 84.5946 233.32C85.1965 233.917 86.1132 234.288 87.2765 234.375L87.3984 232.758L87.5203 231.141C86.8783 231.093 86.7801 230.919 86.8803 231.019C86.9044 231.042 87.074 231.213 87.1346 231.567C87.1599 231.715 87.2082 232.152 86.9157 232.612C86.7536 232.867 86.5018 233.097 86.1688 233.228C85.8459 233.355 85.5439 233.352 85.3225 233.311L85.6155 231.716ZM87.3984 232.758L87.2766 234.375C88.5332 234.47 89.659 234.238 90.6206 233.682C91.5723 233.131 92.2495 232.327 92.7297 231.459C93.6598 229.778 93.9594 227.652 94.0746 225.875L92.4563 225.77L90.838 225.665C90.7286 227.354 90.4561 228.869 89.8917 229.889C89.6247 230.372 89.3241 230.684 88.9957 230.875C88.6771 231.059 88.2204 231.194 87.5202 231.141L87.3984 232.758Z" fill="#003860" mask="url(#path-60-inside-11_1209_28665)"/>
<mask id="path-62-inside-12_1209_28665" fill="white">
<path fill-rule="evenodd" clip-rule="evenodd" d="M107.527 217.322C106.675 217.004 107.28 215 108.379 215.498C109.387 215.963 108.479 217.673 107.527 217.322Z"/>
</mask>
<path d="M107.527 217.322L106.961 218.841L106.966 218.843L107.527 217.322ZM108.379 215.498L109.057 214.025L109.049 214.022L108.379 215.498ZM107.527 217.322L108.093 215.802C108.293 215.877 108.459 216.009 108.574 216.162C108.68 216.305 108.72 216.436 108.735 216.509C108.75 216.582 108.747 216.629 108.745 216.645C108.743 216.663 108.74 216.673 108.737 216.681C108.734 216.688 108.725 216.712 108.699 216.746C108.673 216.78 108.617 216.844 108.518 216.906C108.412 216.971 108.267 217.028 108.096 217.039C107.924 217.05 107.788 217.011 107.708 216.975L108.379 215.498L109.049 214.022C108.282 213.673 107.466 213.742 106.807 214.15C106.225 214.512 105.884 215.059 105.706 215.527C105.526 216 105.439 216.579 105.557 217.157C105.68 217.759 106.078 218.513 106.961 218.841L107.527 217.322ZM108.379 215.498L107.7 216.971C107.607 216.928 107.489 216.847 107.387 216.715C107.286 216.585 107.234 216.447 107.212 216.331C107.172 216.122 107.23 216.007 107.236 215.993C107.246 215.974 107.278 215.912 107.388 215.848C107.526 215.768 107.795 215.692 108.088 215.8L107.527 217.322L106.966 218.843C107.735 219.127 108.475 218.969 109.019 218.652C109.535 218.352 109.91 217.899 110.14 217.439C110.366 216.983 110.521 216.375 110.398 215.726C110.261 215.006 109.799 214.367 109.057 214.025L108.379 215.498Z" fill="#003860" mask="url(#path-62-inside-12_1209_28665)"/>
<mask id="path-64-inside-13_1209_28665" fill="white">
<path fill-rule="evenodd" clip-rule="evenodd" d="M83.7994 217.014C84.5502 217.523 85.8056 215.847 84.7522 215.247C83.7884 214.692 82.9477 216.447 83.7994 217.014Z"/>
</mask>
<path d="M83.7994 217.014L84.7103 215.672L84.7039 215.668L84.6974 215.663L83.7994 217.014ZM84.7522 215.247L83.9428 216.652L83.9491 216.656L84.7522 215.247ZM83.7994 217.014L82.8885 218.355C83.6734 218.888 84.5245 218.77 85.0892 218.511C85.6284 218.264 86.0443 217.848 86.3174 217.422C86.5887 216.999 86.8244 216.4 86.7698 215.718C86.7082 214.95 86.2849 214.254 85.5552 213.838L84.7522 215.247L83.9491 216.656C83.8744 216.613 83.7663 216.528 83.6759 216.386C83.586 216.244 83.5465 216.098 83.5368 215.977C83.5276 215.863 83.5453 215.782 83.5574 215.741C83.5697 215.7 83.5826 215.679 83.5873 215.671C83.5923 215.663 83.5994 215.654 83.614 215.64C83.6273 215.628 83.6654 215.596 83.7372 215.563C83.8085 215.53 83.9425 215.484 84.1268 215.487C84.3249 215.491 84.5326 215.551 84.7103 215.672L83.7994 217.014ZM84.7522 215.247L85.5615 213.842C84.8499 213.432 84.0539 213.425 83.3819 213.744C82.7792 214.03 82.3805 214.521 82.1499 214.974C81.7606 215.739 81.4664 217.41 82.9014 218.364L83.7994 217.014L84.6974 215.663C84.9536 215.834 85.0486 216.091 85.0654 216.243C85.0789 216.366 85.0499 216.426 85.0401 216.445C85.0337 216.458 84.9727 216.579 84.772 216.674C84.6609 216.727 84.5127 216.767 84.3423 216.761C84.1699 216.755 84.0323 216.704 83.9428 216.652L84.7522 215.247Z" fill="#003860" mask="url(#path-64-inside-13_1209_28665)"/>
<path d="M135.104 118.923L134.648 118.762C134.604 118.728 134.537 118.677 134.448 118.605C134.264 118.455 134.005 118.237 133.679 117.956C133.027 117.396 132.126 116.602 131.05 115.647C128.899 113.738 126.064 111.193 123.168 108.593C117.402 103.416 111.335 97.968 110.039 96.9785L109.58 96.6278L109.099 96.9471C108.477 97.3591 107.137 98.3615 105.529 98.7056C104.745 98.8732 103.932 98.8742 103.131 98.5824C102.333 98.2917 101.48 97.6855 100.653 96.5275C100.009 95.6249 99.943 94.8196 100.153 94.1241C100.376 93.3901 100.936 92.6877 101.695 92.1213C102.451 91.5569 103.336 91.1796 104.101 91.0522C104.91 90.9175 105.354 91.088 105.525 91.2779L106.895 90.4753C106.262 88.609 106.423 87.2384 106.881 86.359C107.336 85.4853 108.123 85.0089 108.974 84.951C110.589 84.8411 113.009 86.3552 113.11 91.0822L113.11 91.0832C113.115 91.3153 113.196 91.5172 113.259 91.6496C113.329 91.7963 113.421 91.9444 113.521 92.0881C113.721 92.3765 113.998 92.7111 114.325 93.0755C114.984 93.8075 115.91 94.7269 117.004 95.7564C119.196 97.8191 122.113 100.369 125.037 102.836C127.961 105.304 130.901 107.695 133.145 109.44C134.265 110.312 135.22 111.028 135.916 111.514C136.26 111.754 136.558 111.951 136.788 112.081C136.897 112.144 137.024 112.209 137.148 112.254C137.206 112.275 137.309 112.309 137.434 112.319C137.53 112.326 137.854 112.335 138.117 112.064L138.121 112.06C140.637 109.427 142.744 109.118 144.072 109.633C145.435 110.161 146.373 111.698 146.29 113.583L146.29 113.584C146.24 114.734 145.533 115.441 144.474 115.872C143.389 116.314 142.072 116.391 141.218 116.291L139.551 116.093L140.433 117.521C142.256 120.475 141.914 123.063 140.916 124.356C140.419 124.999 139.766 125.334 139.073 125.334C138.375 125.335 137.502 124.996 136.59 124.018L136.431 123.839C136.046 123.386 135.568 122.69 135.245 121.948C134.859 121.064 134.787 120.337 135.019 119.867L135.104 119.697L135.104 118.923Z" stroke="#003860" stroke-width="1.62167"/>
<path d="M177.878 218.673L178.233 218.711C180.584 218.964 181.842 220.332 182.305 221.888C182.788 223.506 182.404 225.296 181.449 226.325L181.448 226.325C180.708 227.121 179.411 227.652 178.052 227.656C176.71 227.659 175.438 227.152 174.655 226.047C173.578 224.518 173.367 222.509 173.981 220.985C174.284 220.235 174.78 219.614 175.459 219.206C176.066 218.842 176.863 218.624 177.878 218.673Z" stroke="#003860" stroke-width="1.62167"/>
<path d="M79.8095 142.799L80.165 142.837C82.5154 143.09 83.7735 144.458 84.237 146.013C84.7192 147.632 84.3352 149.422 83.3801 150.451L83.3792 150.451C82.6399 151.247 81.3428 151.778 79.9835 151.782C78.6421 151.785 77.3692 151.278 76.5862 150.173C75.5101 148.644 75.2991 146.635 75.9128 145.111C76.2153 144.36 76.7112 143.74 77.3905 143.332C77.998 142.968 78.7944 142.749 79.8095 142.799Z" stroke="#003860" stroke-width="1.62167"/>
<path d="M37.495 75.1196L37.8505 75.1577C40.201 75.4101 41.459 76.7786 41.9225 78.3338C42.4048 79.9526 42.0208 81.7423 41.0657 82.7712L41.0647 82.7712C40.3254 83.5677 39.0284 84.0984 37.6691 84.102C36.3276 84.1055 35.0548 83.5982 34.2718 82.4933C33.1957 80.9644 32.9847 78.9558 33.5984 77.4317C33.9008 76.6808 34.3968 76.06 35.0761 75.6526C35.6836 75.2882 36.48 75.0698 37.495 75.1196Z" stroke="#003860" stroke-width="1.62167"/>
</g>
<use xlink:href="#Repeat%20group%201_2_inner" transform="translate(200.703 0.0280045)"/>
<use xlink:href="#Repeat%20group%201_2_inner" transform="translate(401.405 0.056009)"/>
<use xlink:href="#Repeat%20group%201_2_inner" transform="translate(602.108 0.0840135)"/>
<use xlink:href="#Repeat%20group%201_2_inner" transform="translate(802.81 0.112018)"/>
<use xlink:href="#Repeat%20group%201_2_inner" transform="translate(1003.51 0.140023)"/>
<use xlink:href="#Repeat%20group%201_2_inner" transform="translate(1204.22 0.168027)"/>
<use xlink:href="#Repeat%20group%201_2_inner" transform="translate(1404.92 0.196032)"/>
<use xlink:href="#Repeat%20group%201_2_inner" transform="translate(1605.62 0.224036)"/>
<use xlink:href="#Repeat%20group%201_2_inner" transform="translate(1806.32 0.252041)"/>
</g>
</g>
</g>
<use xlink:href="#Repeat%20group%201_inner" transform="translate(0 255.731)"/>
<use xlink:href="#Repeat%20group%201_inner" transform="translate(0 511.461)"/>
<use xlink:href="#Repeat%20group%201_inner" transform="translate(0 767.192)"/>
<use xlink:href="#Repeat%20group%201_inner" transform="translate(1937.85)"/>
<use xlink:href="#Repeat%20group%201_inner" transform="translate(1937.85 255.731)"/>
<use xlink:href="#Repeat%20group%201_inner" transform="translate(1937.85 511.461)"/>
<use xlink:href="#Repeat%20group%201_inner" transform="translate(1937.85 767.192)"/>
<defs>
<clipPath id="clip0_1209_28665">
<rect width="2279.79" height="255.412" fill="white" transform="translate(0.0351562 0.232422)"/>
</clipPath>
</defs>
</svg>
